<svg width="48" height="48" viewBox="0 0 48 48" fill="none" xmlns="http://www.w3.org/2000/svg" xmlns:xlink="http://www.w3.org/1999/xlink">
<path d="M23.866,11.5C24.694,11.5 25.366,10.828 25.366,10C25.366,9.172 24.694,8.5 23.866,8.5L23.866,11.5ZM10,10L10,8.5C9.172,8.5 8.5,9.172 8.5,10L10,10ZM10,42L8.5,42C8.5,42.828 9.172,43.5 10,43.5L10,42ZM36,42L36,43.5C36.828,43.5 37.5,42.828 37.5,42L36,42ZM37.5,26C37.5,25.172 36.828,24.5 36,24.5C35.172,24.5 34.5,25.172 34.5,26L37.5,26ZM23.866,8.5L10,8.5L10,11.5L23.866,11.5L23.866,8.5ZM8.5,10L8.5,42L11.5,42L11.5,10L8.5,10ZM10,43.5L36,43.5L36,40.5L10,40.5L10,43.5ZM37.5,42L37.5,26L34.5,26L34.5,42L37.5,42Z" fill="#A5A5A5"/>
<path d="M23.866,11.5C24.694,11.5 25.366,10.828 25.366,10C25.366,9.172 24.694,8.5 23.866,8.5L23.866,11.5ZM10,10L10,8.5C9.172,8.5 8.5,9.172 8.5,10L10,10ZM10,42L8.5,42C8.5,42.828 9.172,43.5 10,43.5L10,42ZM36,42L36,43.5C36.828,43.5 37.5,42.828 37.5,42L36,42ZM37.5,26C37.5,25.172 36.828,24.5 36,24.5C35.172,24.5 34.5,25.172 34.5,26L37.5,26ZM23.866,8.5L10,8.5L10,11.5L23.866,11.5L23.866,8.5ZM8.5,10L8.5,42L11.5,42L11.5,10L8.5,10ZM10,43.5L36,43.5L36,40.5L10,40.5L10,43.5ZM37.5,42L37.5,26L34.5,26L34.5,42L37.5,42Z" fill="#A5A5A5" fill-opacity="0.2"/>
<path d="M28,35.5C28.828,35.5 29.5,34.828 29.5,34C29.5,33.172 28.828,32.5 28,32.5L28,35.5ZM18,32.5C17.172,32.5 16.5,33.172 16.5,34C16.5,34.828 17.172,35.5 18,35.5L18,32.5ZM28,32.5L18,32.5L18,35.5L28,35.5L28,32.5Z" fill="#A5A5A5"/>
<path d="M28,35.5C28.828,35.5 29.5,34.828 29.5,34C29.5,33.172 28.828,32.5 28,32.5L28,35.5ZM18,32.5C17.172,32.5 16.5,33.172 16.5,34C16.5,34.828 17.172,35.5 18,35.5L18,32.5ZM28,32.5L18,32.5L18,35.5L28,35.5L28,32.5Z" fill="#A5A5A5" fill-opacity="0.2"/>
<path d="M18,26L16.5,26C16.5,26.828 17.172,27.5 18,27.5L18,26ZM28,26L28,27.5C28.828,27.5 29.5,26.828 29.5,26L28,26ZM28,18L29.5,18C29.5,17.172 28.828,16.5 28,16.5L28,18ZM18,18L18,16.5C17.172,16.5 16.5,17.172 16.5,18L18,18ZM18,27.5L28,27.5L28,24.5L18,24.5L18,27.5ZM29.5,26L29.5,18L26.5,18L26.5,26L29.5,26ZM28,16.5L18,16.5L18,19.5L28,19.5L28,16.5ZM16.5,18L16.5,26L19.5,26L19.5,18L16.5,18Z" fill="#A5A5A5"/>
<path d="M18,26L16.5,26C16.5,26.828 17.172,27.5 18,27.5L18,26ZM28,26L28,27.5C28.828,27.5 29.5,26.828 29.5,26L28,26ZM28,18L29.5,18C29.5,17.172 28.828,16.5 28,16.5L28,18ZM18,18L18,16.5C17.172,16.5 16.5,17.172 16.5,18L18,18ZM18,27.5L28,27.5L28,24.5L18,24.5L18,27.5ZM29.5,26L29.5,18L26.5,18L26.5,26L29.5,26ZM28,16.5L18,16.5L18,19.5L28,19.5L28,16.5ZM16.5,18L16.5,26L19.5,26L19.5,18L16.5,18Z" fill="#A5A5A5" fill-opacity="0.2"/>
<path d="M28.5,10C28.5,10.828 29.172,11.5 30,11.5C30.828,11.5 31.5,10.828 31.5,10L28.5,10ZM31.5,6C31.5,5.172 30.828,4.5 30,4.5C29.172,4.5 28.5,5.172 28.5,6L31.5,6ZM31.5,10L31.5,6L28.5,6L28.5,10L31.5,10Z" fill="#A5A5A5"/>
<path d="M28.5,10C28.5,10.828 29.172,11.5 30,11.5C30.828,11.5 31.5,10.828 31.5,10L28.5,10ZM31.5,6C31.5,5.172 30.828,4.5 30,4.5C29.172,4.5 28.5,5.172 28.5,6L31.5,6ZM31.5,10L31.5,6L28.5,6L28.5,10L31.5,10Z" fill="#A5A5A5" fill-opacity="0.2"/>
<path d="M34.939,10.939C34.354,11.525 34.354,12.475 34.939,13.061C35.525,13.646 36.475,13.646 37.061,13.061L34.939,10.939ZM41.061,9.061C41.646,8.475 41.646,7.525 41.061,6.939C40.475,6.354 39.525,6.354 38.939,6.939L41.061,9.061ZM37.061,13.061L41.061,9.061L38.939,6.939L34.939,10.939L37.061,13.061Z" fill="#A5A5A5"/>
<path d="M34.939,10.939C34.354,11.525 34.354,12.475 34.939,13.061C35.525,13.646 36.475,13.646 37.061,13.061L34.939,10.939ZM41.061,9.061C41.646,8.475 41.646,7.525 41.061,6.939C40.475,6.354 39.525,6.354 38.939,6.939L41.061,9.061ZM37.061,13.061L41.061,9.061L38.939,6.939L34.939,10.939L37.061,13.061Z" fill="#A5A5A5" fill-opacity="0.2"/>
<path d="M38,16.5C37.172,16.5 36.5,17.172 36.5,18C36.5,18.828 37.172,19.5 38,19.5L38,16.5ZM42,19.5C42.828,19.5 43.5,18.828 43.5,18C43.5,17.172 42.828,16.5 42,16.5L42,19.5ZM38,19.5L42,19.5L42,16.5L38,16.5L38,19.5Z" fill="#A5A5A5"/>
<path d="M38,16.5C37.172,16.5 36.5,17.172 36.5,18C36.5,18.828 37.172,19.5 38,19.5L38,16.5ZM42,19.5C42.828,19.5 43.5,18.828 43.5,18C43.5,17.172 42.828,16.5 42,16.5L42,19.5ZM38,19.5L42,19.5L42,16.5L38,16.5L38,19.5Z" fill="#A5A5A5" fill-opacity="0.2"/>
</svg>
