<svg width="44" height="44" viewBox="0 0 44 44" fill="none" xmlns="http://www.w3.org/2000/svg" xmlns:xlink="http://www.w3.org/1999/xlink">
<path d="M21.877,10.667C22.706,10.667 23.377,9.995 23.377,9.167C23.377,8.338 22.706,7.667 21.877,7.667L21.877,10.667ZM9.167,9.167L9.167,7.667C8.338,7.667 7.667,8.338 7.667,9.167L9.167,9.167ZM9.167,38.5L7.667,38.5C7.667,39.328 8.338,40 9.167,40L9.167,38.5ZM33,38.5L33,40C33.828,40 34.5,39.328 34.5,38.5L33,38.5ZM34.5,23.833C34.5,23.005 33.828,22.333 33,22.333C32.172,22.333 31.5,23.005 31.5,23.833L34.5,23.833ZM21.877,7.667L9.167,7.667L9.167,10.667L21.877,10.667L21.877,7.667ZM7.667,9.167L7.667,38.5L10.667,38.5L10.667,9.167L7.667,9.167ZM9.167,40L33,40L33,37L9.167,37L9.167,40ZM34.5,38.5L34.5,23.833L31.5,23.833L31.5,38.5L34.5,38.5Z" fill="#A5A5A5"/>
<path d="M21.877,10.667C22.706,10.667 23.377,9.995 23.377,9.167C23.377,8.338 22.706,7.667 21.877,7.667L21.877,10.667ZM9.167,9.167L9.167,7.667C8.338,7.667 7.667,8.338 7.667,9.167L9.167,9.167ZM9.167,38.5L7.667,38.5C7.667,39.328 8.338,40 9.167,40L9.167,38.5ZM33,38.5L33,40C33.828,40 34.5,39.328 34.5,38.5L33,38.5ZM34.5,23.833C34.5,23.005 33.828,22.333 33,22.333C32.172,22.333 31.5,23.005 31.5,23.833L34.5,23.833ZM21.877,7.667L9.167,7.667L9.167,10.667L21.877,10.667L21.877,7.667ZM7.667,9.167L7.667,38.5L10.667,38.5L10.667,9.167L7.667,9.167ZM9.167,40L33,40L33,37L9.167,37L9.167,40ZM34.5,38.5L34.5,23.833L31.5,23.833L31.5,38.5L34.5,38.5Z" fill="#A5A5A5" fill-opacity="0.2"/>
<path d="M25.667,32.667C26.495,32.667 27.167,31.995 27.167,31.167C27.167,30.338 26.495,29.667 25.667,29.667L25.667,32.667ZM16.5,29.667C15.672,29.667 15,30.338 15,31.167C15,31.995 15.672,32.667 16.5,32.667L16.5,29.667ZM25.667,29.667L16.5,29.667L16.5,32.667L25.667,32.667L25.667,29.667Z" fill="#A5A5A5"/>
<path d="M25.667,32.667C26.495,32.667 27.167,31.995 27.167,31.167C27.167,30.338 26.495,29.667 25.667,29.667L25.667,32.667ZM16.5,29.667C15.672,29.667 15,30.338 15,31.167C15,31.995 15.672,32.667 16.5,32.667L16.5,29.667ZM25.667,29.667L16.5,29.667L16.5,32.667L25.667,32.667L25.667,29.667Z" fill="#A5A5A5" fill-opacity="0.2"/>
<path d="M16.5,23.833L15,23.833C15,24.662 15.672,25.333 16.5,25.333L16.5,23.833ZM25.667,23.833L25.667,25.333C26.495,25.333 27.167,24.662 27.167,23.833L25.667,23.833ZM25.667,16.5L27.167,16.5C27.167,15.672 26.495,15 25.667,15L25.667,16.5ZM16.5,16.5L16.5,15C15.672,15 15,15.672 15,16.5L16.5,16.5ZM16.5,25.333L25.667,25.333L25.667,22.333L16.5,22.333L16.5,25.333ZM27.167,23.833L27.167,16.5L24.167,16.5L24.167,23.833L27.167,23.833ZM25.667,15L16.5,15L16.5,18L25.667,18L25.667,15ZM15,16.5L15,23.833L18,23.833L18,16.5L15,16.5Z" fill="#A5A5A5"/>
<path d="M16.5,23.833L15,23.833C15,24.662 15.672,25.333 16.5,25.333L16.5,23.833ZM25.667,23.833L25.667,25.333C26.495,25.333 27.167,24.662 27.167,23.833L25.667,23.833ZM25.667,16.5L27.167,16.5C27.167,15.672 26.495,15 25.667,15L25.667,16.5ZM16.5,16.5L16.5,15C15.672,15 15,15.672 15,16.5L16.5,16.5ZM16.5,25.333L25.667,25.333L25.667,22.333L16.5,22.333L16.5,25.333ZM27.167,23.833L27.167,16.5L24.167,16.5L24.167,23.833L27.167,23.833ZM25.667,15L16.5,15L16.5,18L25.667,18L25.667,15ZM15,16.5L15,23.833L18,23.833L18,16.5L15,16.5Z" fill="#A5A5A5" fill-opacity="0.2"/>
<path d="M26,9.167C26,9.995 26.672,10.667 27.5,10.667C28.328,10.667 29,9.995 29,9.167L26,9.167ZM29,5.5C29,4.672 28.328,4 27.5,4C26.672,4 26,4.672 26,5.5L29,5.5ZM29,9.167L29,5.5L26,5.5L26,9.167L29,9.167Z" fill="#A5A5A5"/>
<path d="M26,9.167C26,9.995 26.672,10.667 27.5,10.667C28.328,10.667 29,9.995 29,9.167L26,9.167ZM29,5.5C29,4.672 28.328,4 27.5,4C26.672,4 26,4.672 26,5.5L29,5.5ZM29,9.167L29,5.5L26,5.5L26,9.167L29,9.167Z" fill="#A5A5A5" fill-opacity="0.2"/>
<path d="M31.763,9.763C31.079,10.446 31.079,11.554 31.763,12.237C32.446,12.921 33.554,12.921 34.237,12.237L31.763,9.763ZM37.904,8.571C38.588,7.887 38.588,6.779 37.904,6.096C37.221,5.412 36.113,5.412 35.429,6.096L37.904,8.571ZM34.237,12.237L37.904,8.571L35.429,6.096L31.763,9.763L34.237,12.237Z" fill="#A5A5A5"/>
<path d="M31.763,9.763C31.079,10.446 31.079,11.554 31.763,12.237C32.446,12.921 33.554,12.921 34.237,12.237L31.763,9.763ZM37.904,8.571C38.588,7.887 38.588,6.779 37.904,6.096C37.221,5.412 36.113,5.412 35.429,6.096L37.904,8.571ZM34.237,12.237L37.904,8.571L35.429,6.096L31.763,9.763L34.237,12.237Z" fill="#A5A5A5" fill-opacity="0.2"/>
<path d="M34.833,14.75C33.867,14.75 33.083,15.533 33.083,16.5C33.083,17.466 33.867,18.25 34.833,18.25L34.833,14.75ZM38.5,18.25C39.466,18.25 40.25,17.466 40.25,16.5C40.25,15.533 39.466,14.75 38.5,14.75L38.5,18.25ZM34.833,18.25L38.5,18.25L38.5,14.75L34.833,14.75L34.833,18.25Z" fill="#A5A5A5"/>
<path d="M34.833,14.75C33.867,14.75 33.083,15.533 33.083,16.5C33.083,17.466 33.867,18.25 34.833,18.25L34.833,14.75ZM38.5,18.25C39.466,18.25 40.25,17.466 40.25,16.5C40.25,15.533 39.466,14.75 38.5,14.75L38.5,18.25ZM34.833,18.25L38.5,18.25L38.5,14.75L34.833,14.75L34.833,18.25Z" fill="#A5A5A5" fill-opacity="0.2"/>
</svg>
