<svg width="44" height="44" viewBox="0 0 44 44" fill="none" xmlns="http://www.w3.org/2000/svg" xmlns:xlink="http://www.w3.org/1999/xlink">
<path d="M16.833,9.167C16.833,9.995 17.505,10.667 18.333,10.667C19.162,10.667 19.833,9.995 19.833,9.167L16.833,9.167ZM25.667,9.167L24.167,9.167C24.167,9.747 24.501,10.275 25.025,10.523L25.667,9.167ZM33,20.167L34.5,20.167C34.5,20.143 34.5,20.12 34.498,20.096L33,20.167ZM33,25.667L31.5,25.667C31.5,25.727 31.504,25.787 31.511,25.847L33,25.667ZM36.667,31.167L36.667,32.667C37.348,32.667 37.944,32.208 38.117,31.549C38.291,30.89 37.999,30.197 37.406,29.861L36.667,31.167ZM7.333,31.167L6.594,29.861C6.001,30.197 5.709,30.89 5.883,31.549C6.056,32.208 6.652,32.667 7.333,32.667L7.333,31.167ZM11,25.667L12.489,25.847C12.496,25.787 12.5,25.727 12.5,25.667L11,25.667ZM11,20.167L9.502,20.096C9.501,20.12 9.5,20.143 9.5,20.167L11,20.167ZM18.975,10.523C19.723,10.169 20.044,9.274 19.689,8.525C19.335,7.777 18.441,7.456 17.692,7.811L18.975,10.523ZM19.833,9.167C19.833,7.97 20.803,7 22,7L22,4C19.147,4 16.833,6.313 16.833,9.167L19.833,9.167ZM22,7C23.197,7 24.167,7.97 24.167,9.167L27.167,9.167C27.167,6.313 24.853,4 22,4L22,7ZM25.025,10.523C28.814,12.314 31.305,16.051 31.502,20.237L34.498,20.096C34.25,14.802 31.1,10.076 26.308,7.811L25.025,10.523ZM31.5,20.167L31.5,25.667L34.5,25.667L34.5,20.167L31.5,20.167ZM31.511,25.847C31.848,28.631 33.487,31.09 35.928,32.472L37.406,29.861C35.794,28.949 34.712,27.325 34.489,25.486L31.511,25.847ZM36.667,29.667L7.333,29.667L7.333,32.667L36.667,32.667L36.667,29.667ZM8.072,32.472C10.513,31.09 12.152,28.631 12.489,25.847L9.511,25.486C9.288,27.325 8.206,28.949 6.594,29.861L8.072,32.472ZM12.5,25.667L12.5,20.167L9.5,20.167L9.5,25.667L12.5,25.667ZM12.498,20.237C12.695,16.051 15.186,12.314 18.975,10.523L17.692,7.811C12.9,10.076 9.75,14.802 9.502,20.096L12.498,20.237Z" fill="#A5A5A5"/>
<path d="M16.833,9.167C16.833,9.995 17.505,10.667 18.333,10.667C19.162,10.667 19.833,9.995 19.833,9.167L16.833,9.167ZM25.667,9.167L24.167,9.167C24.167,9.747 24.501,10.275 25.025,10.523L25.667,9.167ZM33,20.167L34.5,20.167C34.5,20.143 34.5,20.12 34.498,20.096L33,20.167ZM33,25.667L31.5,25.667C31.5,25.727 31.504,25.787 31.511,25.847L33,25.667ZM36.667,31.167L36.667,32.667C37.348,32.667 37.944,32.208 38.117,31.549C38.291,30.89 37.999,30.197 37.406,29.861L36.667,31.167ZM7.333,31.167L6.594,29.861C6.001,30.197 5.709,30.89 5.883,31.549C6.056,32.208 6.652,32.667 7.333,32.667L7.333,31.167ZM11,25.667L12.489,25.847C12.496,25.787 12.5,25.727 12.5,25.667L11,25.667ZM11,20.167L9.502,20.096C9.501,20.12 9.5,20.143 9.5,20.167L11,20.167ZM18.975,10.523C19.723,10.169 20.044,9.274 19.689,8.525C19.335,7.777 18.441,7.456 17.692,7.811L18.975,10.523ZM19.833,9.167C19.833,7.97 20.803,7 22,7L22,4C19.147,4 16.833,6.313 16.833,9.167L19.833,9.167ZM22,7C23.197,7 24.167,7.97 24.167,9.167L27.167,9.167C27.167,6.313 24.853,4 22,4L22,7ZM25.025,10.523C28.814,12.314 31.305,16.051 31.502,20.237L34.498,20.096C34.25,14.802 31.1,10.076 26.308,7.811L25.025,10.523ZM31.5,20.167L31.5,25.667L34.5,25.667L34.5,20.167L31.5,20.167ZM31.511,25.847C31.848,28.631 33.487,31.09 35.928,32.472L37.406,29.861C35.794,28.949 34.712,27.325 34.489,25.486L31.511,25.847ZM36.667,29.667L7.333,29.667L7.333,32.667L36.667,32.667L36.667,29.667ZM8.072,32.472C10.513,31.09 12.152,28.631 12.489,25.847L9.511,25.486C9.288,27.325 8.206,28.949 6.594,29.861L8.072,32.472ZM12.5,25.667L12.5,20.167L9.5,20.167L9.5,25.667L12.5,25.667ZM12.498,20.237C12.695,16.051 15.186,12.314 18.975,10.523L17.692,7.811C12.9,10.076 9.75,14.802 9.502,20.096L12.498,20.237Z" fill="#A5A5A5" fill-opacity="0.2"/>
<path d="M18,31.167C18,30.338 17.328,29.667 16.5,29.667C15.672,29.667 15,30.338 15,31.167L18,31.167ZM29,31.167C29,30.338 28.328,29.667 27.5,29.667C26.672,29.667 26,30.338 26,31.167L29,31.167ZM15,31.167L15,33L18,33L18,31.167L15,31.167ZM15,33C15,36.866 18.134,40 22,40L22,37C19.791,37 18,35.209 18,33L15,33ZM22,40C25.866,40 29,36.866 29,33L26,33C26,35.209 24.209,37 22,37L22,40ZM29,33L29,31.167L26,31.167L26,33L29,33Z" fill="#A5A5A5"/>
<path d="M18,31.167C18,30.338 17.328,29.667 16.5,29.667C15.672,29.667 15,30.338 15,31.167L18,31.167ZM29,31.167C29,30.338 28.328,29.667 27.5,29.667C26.672,29.667 26,30.338 26,31.167L29,31.167ZM15,31.167L15,33L18,33L18,31.167L15,31.167ZM15,33C15,36.866 18.134,40 22,40L22,37C19.791,37 18,35.209 18,33L15,33ZM22,40C25.866,40 29,36.866 29,33L26,33C26,35.209 24.209,37 22,37L22,40ZM29,33L29,31.167L26,31.167L26,33L29,33Z" fill="#A5A5A5" fill-opacity="0.2"/>
<path d="M37.137,12.959C37.483,13.712 38.374,14.042 39.127,13.696C39.879,13.35 40.209,12.459 39.863,11.706L37.137,12.959ZM34.361,4.368C33.736,3.824 32.788,3.891 32.245,4.516C31.702,5.142 31.769,6.089 32.394,6.632L34.361,4.368ZM39.863,11.706C38.571,8.897 36.696,6.395 34.361,4.368L32.394,6.632C34.407,8.381 36.024,10.537 37.137,12.959L39.863,11.706Z" fill="#A5A5A5"/>
<path d="M37.137,12.959C37.483,13.712 38.374,14.042 39.127,13.696C39.879,13.35 40.209,12.459 39.863,11.706L37.137,12.959ZM34.361,4.368C33.736,3.824 32.788,3.891 32.245,4.516C31.702,5.142 31.769,6.089 32.394,6.632L34.361,4.368ZM39.863,11.706C38.571,8.897 36.696,6.395 34.361,4.368L32.394,6.632C34.407,8.381 36.024,10.537 37.137,12.959L39.863,11.706Z" fill="#A5A5A5" fill-opacity="0.2"/>
<path d="M4.137,11.707C3.791,12.459 4.121,13.35 4.874,13.696C5.627,14.042 6.517,13.712 6.863,12.959L4.137,11.707ZM11.603,6.632C12.228,6.089 12.294,5.141 11.751,4.516C11.207,3.891 10.26,3.824 9.635,4.368L11.603,6.632ZM6.863,12.959C7.976,10.537 9.591,8.38 11.603,6.632L9.635,4.368C7.302,6.396 5.427,8.898 4.137,11.707L6.863,12.959Z" fill="#A5A5A5"/>
<path d="M4.137,11.707C3.791,12.459 4.121,13.35 4.874,13.696C5.627,14.042 6.517,13.712 6.863,12.959L4.137,11.707ZM11.603,6.632C12.228,6.089 12.294,5.141 11.751,4.516C11.207,3.891 10.26,3.824 9.635,4.368L11.603,6.632ZM6.863,12.959C7.976,10.537 9.591,8.38 11.603,6.632L9.635,4.368C7.302,6.396 5.427,8.898 4.137,11.707L6.863,12.959Z" fill="#A5A5A5" fill-opacity="0.2"/>
</svg>
