<svg width="44" height="44" viewBox="0 0 44 44" fill="none" xmlns="http://www.w3.org/2000/svg" xmlns:xlink="http://www.w3.org/1999/xlink">
<path d="M32.637,31.702L31.137,31.702C31.137,32.264 31.451,32.779 31.951,33.036C32.45,33.293 33.052,33.249 33.509,32.923L32.637,31.702ZM33.004,31.429L33.914,32.621L33.921,32.615L33.004,31.429ZM25.828,34.679L26.645,33.421C26.377,33.247 26.061,33.163 25.741,33.182L25.828,34.679ZM35.233,35.898L36.424,34.987C36.415,34.974 36.405,34.962 36.396,34.95L35.233,35.898ZM32.637,31.7L34.052,31.202C33.809,30.513 33.105,30.098 32.384,30.222C31.664,30.345 31.137,30.969 31.137,31.7L32.637,31.7ZM32.637,31.702C33.509,32.923 33.509,32.923 33.509,32.922C33.509,32.922 33.509,32.922 33.509,32.922C33.509,32.922 33.509,32.922 33.509,32.922C33.509,32.922 33.509,32.922 33.509,32.922C33.51,32.922 33.51,32.922 33.51,32.922C33.511,32.921 33.512,32.921 33.513,32.92C33.514,32.919 33.517,32.917 33.519,32.915C33.525,32.911 33.533,32.905 33.543,32.898C33.563,32.884 33.59,32.864 33.625,32.838C33.695,32.786 33.794,32.713 33.914,32.621L32.093,30.237C31.988,30.317 31.903,30.38 31.846,30.422C31.818,30.443 31.796,30.459 31.782,30.469C31.775,30.474 31.77,30.478 31.768,30.48C31.766,30.481 31.765,30.481 31.765,30.482C31.765,30.482 31.764,30.482 31.765,30.482C31.765,30.482 31.765,30.482 31.765,30.482C31.765,30.482 31.765,30.482 31.765,30.481C31.765,30.481 31.765,30.481 31.765,30.481C31.765,30.481 31.765,30.481 31.765,30.481C31.765,30.481 31.765,30.481 32.637,31.702ZM33.921,32.615C37.613,29.761 40,25.56 40,20.816L37,20.816C37,24.501 35.152,27.871 32.086,30.242L33.921,32.615ZM40,20.816C40,11.93 31.725,5.082 22.004,5.082L22.004,8.082C30.498,8.082 37,13.986 37,20.816L40,20.816ZM22.004,5.082C12.279,5.082 4,11.929 4,20.816L7,20.816C7,13.987 13.505,8.082 22.004,8.082L22.004,5.082ZM4,20.816C4,29.733 12.307,36.333 22,36.333L22,33.333C13.469,33.333 7,27.621 7,20.816L4,20.816ZM22,36.333C22.824,36.333 24.138,36.28 25.915,36.177L25.741,33.182C23.969,33.284 22.73,33.333 22,33.333L22,36.333ZM25.011,35.937C27.511,37.562 31.167,38.916 34.474,38.916L34.474,35.916C31.87,35.916 28.773,34.804 26.645,33.421L25.011,35.937ZM34.474,38.916C35.322,38.916 36.268,38.552 36.745,37.641C37.237,36.702 36.967,35.695 36.424,34.987L34.042,36.81C34.065,36.84 34.026,36.802 34.008,36.69C33.99,36.571 34.004,36.409 34.088,36.248C34.268,35.906 34.541,35.916 34.474,35.916L34.474,38.916ZM36.396,34.95C35.524,33.881 34.438,32.298 34.052,31.202L31.222,32.198C31.79,33.812 33.16,35.73 34.071,36.846L36.396,34.95ZM31.137,31.7L31.137,31.702L34.137,31.702L34.137,31.7L31.137,31.7Z" fill="#A5A5A5"/>
<path d="M32.637,31.702L31.137,31.702C31.137,32.264 31.451,32.779 31.951,33.036C32.45,33.293 33.052,33.249 33.509,32.923L32.637,31.702ZM33.004,31.429L33.914,32.621L33.921,32.615L33.004,31.429ZM25.828,34.679L26.645,33.421C26.377,33.247 26.061,33.163 25.741,33.182L25.828,34.679ZM35.233,35.898L36.424,34.987C36.415,34.974 36.405,34.962 36.396,34.95L35.233,35.898ZM32.637,31.7L34.052,31.202C33.809,30.513 33.105,30.098 32.384,30.222C31.664,30.345 31.137,30.969 31.137,31.7L32.637,31.7ZM32.637,31.702C33.509,32.923 33.509,32.923 33.509,32.922C33.509,32.922 33.509,32.922 33.509,32.922C33.509,32.922 33.509,32.922 33.509,32.922C33.509,32.922 33.509,32.922 33.509,32.922C33.51,32.922 33.51,32.922 33.51,32.922C33.511,32.921 33.512,32.921 33.513,32.92C33.514,32.919 33.517,32.917 33.519,32.915C33.525,32.911 33.533,32.905 33.543,32.898C33.563,32.884 33.59,32.864 33.625,32.838C33.695,32.786 33.794,32.713 33.914,32.621L32.093,30.237C31.988,30.317 31.903,30.38 31.846,30.422C31.818,30.443 31.796,30.459 31.782,30.469C31.775,30.474 31.77,30.478 31.768,30.48C31.766,30.481 31.765,30.481 31.765,30.482C31.765,30.482 31.764,30.482 31.765,30.482C31.765,30.482 31.765,30.482 31.765,30.482C31.765,30.482 31.765,30.482 31.765,30.481C31.765,30.481 31.765,30.481 31.765,30.481C31.765,30.481 31.765,30.481 31.765,30.481C31.765,30.481 31.765,30.481 32.637,31.702ZM33.921,32.615C37.613,29.761 40,25.56 40,20.816L37,20.816C37,24.501 35.152,27.871 32.086,30.242L33.921,32.615ZM40,20.816C40,11.93 31.725,5.082 22.004,5.082L22.004,8.082C30.498,8.082 37,13.986 37,20.816L40,20.816ZM22.004,5.082C12.279,5.082 4,11.929 4,20.816L7,20.816C7,13.987 13.505,8.082 22.004,8.082L22.004,5.082ZM4,20.816C4,29.733 12.307,36.333 22,36.333L22,33.333C13.469,33.333 7,27.621 7,20.816L4,20.816ZM22,36.333C22.824,36.333 24.138,36.28 25.915,36.177L25.741,33.182C23.969,33.284 22.73,33.333 22,33.333L22,36.333ZM25.011,35.937C27.511,37.562 31.167,38.916 34.474,38.916L34.474,35.916C31.87,35.916 28.773,34.804 26.645,33.421L25.011,35.937ZM34.474,38.916C35.322,38.916 36.268,38.552 36.745,37.641C37.237,36.702 36.967,35.695 36.424,34.987L34.042,36.81C34.065,36.84 34.026,36.802 34.008,36.69C33.99,36.571 34.004,36.409 34.088,36.248C34.268,35.906 34.541,35.916 34.474,35.916L34.474,38.916ZM36.396,34.95C35.524,33.881 34.438,32.298 34.052,31.202L31.222,32.198C31.79,33.812 33.16,35.73 34.071,36.846L36.396,34.95ZM31.137,31.7L31.137,31.702L34.137,31.702L34.137,31.7L31.137,31.7Z" fill="#A5A5A5" fill-opacity="0.2"/>
<path d="M14.811,23.689C14.225,23.104 13.275,23.104 12.689,23.689C12.104,24.275 12.104,25.225 12.689,25.811L14.811,23.689ZM31.311,25.811C31.896,25.225 31.896,24.275 31.311,23.689C30.725,23.104 29.775,23.104 29.189,23.689L31.311,25.811ZM12.689,25.811C17.858,30.98 26.142,30.98 31.311,25.811L29.189,23.689C25.192,27.687 18.808,27.687 14.811,23.689L12.689,25.811Z" fill="#A5A5A5"/>
<path d="M14.811,23.689C14.225,23.104 13.275,23.104 12.689,23.689C12.104,24.275 12.104,25.225 12.689,25.811L14.811,23.689ZM31.311,25.811C31.896,25.225 31.896,24.275 31.311,23.689C30.725,23.104 29.775,23.104 29.189,23.689L31.311,25.811ZM12.689,25.811C17.858,30.98 26.142,30.98 31.311,25.811L29.189,23.689C25.192,27.687 18.808,27.687 14.811,23.689L12.689,25.811Z" fill="#A5A5A5" fill-opacity="0.2"/>
</svg>
