<svg width="44" height="44" viewBox="0 0 44 44" fill="none" xmlns="http://www.w3.org/2000/svg" xmlns:xlink="http://www.w3.org/1999/xlink">
<path d="M5.5,20.5C4.672,20.5 4,21.172 4,22C4,22.828 4.672,23.5 5.5,23.5L5.5,20.5ZM11,23.5C11.828,23.5 12.5,22.828 12.5,22C12.5,21.172 11.828,20.5 11,20.5L11,23.5ZM5.5,23.5L11,23.5L11,20.5L5.5,20.5L5.5,23.5Z" fill="#A5A5A5"/>
<path d="M5.5,20.5C4.672,20.5 4,21.172 4,22C4,22.828 4.672,23.5 5.5,23.5L5.5,20.5ZM11,23.5C11.828,23.5 12.5,22.828 12.5,22C12.5,21.172 11.828,20.5 11,20.5L11,23.5ZM5.5,23.5L11,23.5L11,20.5L5.5,20.5L5.5,23.5Z" fill="#A5A5A5" fill-opacity="0.2"/>
<path d="M23.5,5.5C23.5,4.672 22.828,4 22,4C21.172,4 20.5,4.672 20.5,5.5L23.5,5.5ZM20.5,11C20.5,11.828 21.172,12.5 22,12.5C22.828,12.5 23.5,11.828 23.5,11L20.5,11ZM20.5,5.5L20.5,11L23.5,11L23.5,5.5L20.5,5.5Z" fill="#A5A5A5"/>
<path d="M23.5,5.5C23.5,4.672 22.828,4 22,4C21.172,4 20.5,4.672 20.5,5.5L23.5,5.5ZM20.5,11C20.5,11.828 21.172,12.5 22,12.5C22.828,12.5 23.5,11.828 23.5,11L20.5,11ZM20.5,5.5L20.5,11L23.5,11L23.5,5.5L20.5,5.5Z" fill="#A5A5A5" fill-opacity="0.2"/>
<path d="M13.239,15.361C13.825,15.946 14.775,15.946 15.361,15.361C15.946,14.775 15.946,13.825 15.361,13.239L13.239,15.361ZM11.327,9.206C10.741,8.62 9.792,8.62 9.206,9.206C8.62,9.792 8.62,10.742 9.206,11.327L11.327,9.206ZM15.361,13.239L11.327,9.206L9.206,11.327L13.239,15.361L15.361,13.239Z" fill="#A5A5A5"/>
<path d="M13.239,15.361C13.825,15.946 14.775,15.946 15.361,15.361C15.946,14.775 15.946,13.825 15.361,13.239L13.239,15.361ZM11.327,9.206C10.741,8.62 9.792,8.62 9.206,9.206C8.62,9.792 8.62,10.742 9.206,11.327L11.327,9.206ZM15.361,13.239L11.327,9.206L9.206,11.327L13.239,15.361L15.361,13.239Z" fill="#A5A5A5" fill-opacity="0.2"/>
<path d="M28.462,13.063C27.779,13.746 27.779,14.854 28.462,15.537C29.146,16.221 30.254,16.221 30.937,15.537L28.462,13.063ZM34.971,11.504C35.654,10.821 35.654,9.713 34.971,9.029C34.287,8.346 33.179,8.346 32.496,9.029L34.971,11.504ZM30.937,15.537L34.971,11.504L32.496,9.029L28.462,13.063L30.937,15.537Z" fill="#A5A5A5"/>
<path d="M28.462,13.063C27.779,13.746 27.779,14.854 28.462,15.537C29.146,16.221 30.254,16.221 30.937,15.537L28.462,13.063ZM34.971,11.504C35.654,10.821 35.654,9.713 34.971,9.029C34.287,8.346 33.179,8.346 32.496,9.029L34.971,11.504ZM30.937,15.537L34.971,11.504L32.496,9.029L28.462,13.063L30.937,15.537Z" fill="#A5A5A5" fill-opacity="0.2"/>
<path d="M15.361,30.761C15.946,30.175 15.946,29.225 15.361,28.639C14.775,28.054 13.825,28.054 13.239,28.639L15.361,30.761ZM9.206,32.673C8.62,33.258 8.62,34.208 9.206,34.794C9.792,35.38 10.741,35.38 11.327,34.794L9.206,32.673ZM13.239,28.639L9.206,32.673L11.327,34.794L15.361,30.761L13.239,28.639Z" fill="#A5A5A5"/>
<path d="M15.361,30.761C15.946,30.175 15.946,29.225 15.361,28.639C14.775,28.054 13.825,28.054 13.239,28.639L15.361,30.761ZM9.206,32.673C8.62,33.258 8.62,34.208 9.206,34.794C9.792,35.38 10.741,35.38 11.327,34.794L9.206,32.673ZM13.239,28.639L9.206,32.673L11.327,34.794L15.361,30.761L13.239,28.639Z" fill="#A5A5A5" fill-opacity="0.2"/>
<path d="M22.474,20.577C21.688,20.315 20.839,20.74 20.577,21.526C20.315,22.312 20.74,23.161 21.526,23.423L22.474,20.577ZM38.5,27.5L39.171,28.842C39.713,28.57 40.039,27.999 39.996,27.394C39.953,26.789 39.55,26.269 38.974,26.077L38.5,27.5ZM31.167,31.167L30.496,29.825C30.206,29.97 29.97,30.206 29.825,30.496L31.167,31.167ZM27.5,38.5L26.077,38.974C26.269,39.55 26.789,39.953 27.394,39.996C27.999,40.039 28.57,39.713 28.842,39.171L27.5,38.5ZM23.423,21.526C23.161,20.74 22.312,20.315 21.526,20.577C20.74,20.839 20.315,21.688 20.577,22.474L23.423,21.526ZM21.526,23.423L38.026,28.923L38.974,26.077L22.474,20.577L21.526,23.423ZM37.829,26.158L30.496,29.825L31.837,32.508L39.171,28.842L37.829,26.158ZM29.825,30.496L26.158,37.829L28.842,39.171L32.508,31.837L29.825,30.496ZM28.923,38.026L23.423,21.526L20.577,22.474L26.077,38.974L28.923,38.026Z" fill="#A5A5A5"/>
<path d="M22.474,20.577C21.688,20.315 20.839,20.74 20.577,21.526C20.315,22.312 20.74,23.161 21.526,23.423L22.474,20.577ZM38.5,27.5L39.171,28.842C39.713,28.57 40.039,27.999 39.996,27.394C39.953,26.789 39.55,26.269 38.974,26.077L38.5,27.5ZM31.167,31.167L30.496,29.825C30.206,29.97 29.97,30.206 29.825,30.496L31.167,31.167ZM27.5,38.5L26.077,38.974C26.269,39.55 26.789,39.953 27.394,39.996C27.999,40.039 28.57,39.713 28.842,39.171L27.5,38.5ZM23.423,21.526C23.161,20.74 22.312,20.315 21.526,20.577C20.74,20.839 20.315,21.688 20.577,22.474L23.423,21.526ZM21.526,23.423L38.026,28.923L38.974,26.077L22.474,20.577L21.526,23.423ZM37.829,26.158L30.496,29.825L31.837,32.508L39.171,28.842L37.829,26.158ZM29.825,30.496L26.158,37.829L28.842,39.171L32.508,31.837L29.825,30.496ZM28.923,38.026L23.423,21.526L20.577,22.474L26.077,38.974L28.923,38.026Z" fill="#A5A5A5" fill-opacity="0.2"/>
</svg>
