<svg width="44" height="44" viewBox="0 0 44 44" fill="none" xmlns="http://www.w3.org/2000/svg" xmlns:xlink="http://www.w3.org/1999/xlink">
<path d="M28.417,33.917L29.087,32.575C28.665,32.364 28.168,32.364 27.746,32.575L28.417,33.917ZM22.917,36.667L21.432,36.455C21.353,37.007 21.587,37.557 22.04,37.884C22.492,38.21 23.088,38.258 23.587,38.008L22.917,36.667ZM23.833,30.25L25.318,30.462C25.385,29.995 25.228,29.523 24.894,29.189L23.833,30.25ZM20.167,26.583L19.92,25.104C19.366,25.196 18.91,25.591 18.738,26.126C18.567,26.661 18.709,27.247 19.106,27.644L20.167,26.583ZM25.667,25.667L25.913,27.146C26.387,27.067 26.794,26.767 27.008,26.338L25.667,25.667ZM28.417,20.167L29.758,19.496C29.504,18.988 28.985,18.667 28.417,18.667C27.849,18.667 27.329,18.988 27.075,19.496L28.417,20.167ZM31.167,25.667L29.825,26.338C30.04,26.767 30.447,27.067 30.92,27.146L31.167,25.667ZM36.667,26.583L37.727,27.644C38.125,27.247 38.267,26.661 38.095,26.126C37.924,25.591 37.468,25.196 36.913,25.104L36.667,26.583ZM33,30.25L31.939,29.189C31.605,29.523 31.448,29.995 31.515,30.462L33,30.25ZM33.917,36.667L33.246,38.008C33.745,38.258 34.341,38.21 34.794,37.884C35.246,37.557 35.48,37.007 35.402,36.455L33.917,36.667ZM27.746,32.575L22.246,35.325L23.587,38.008L29.087,35.258L27.746,32.575ZM24.402,36.879L25.318,30.462L22.348,30.038L21.432,36.455L24.402,36.879ZM24.894,29.189L21.227,25.523L19.106,27.644L22.773,31.311L24.894,29.189ZM20.413,28.063L25.913,27.146L25.42,24.187L19.92,25.104L20.413,28.063ZM27.008,26.338L29.758,20.838L27.075,19.496L24.325,24.996L27.008,26.338ZM27.075,20.838L29.825,26.338L32.508,24.996L29.758,19.496L27.075,20.838ZM30.92,27.146L36.42,28.063L36.913,25.104L31.413,24.187L30.92,27.146ZM35.606,25.523L31.939,29.189L34.061,31.311L37.727,27.644L35.606,25.523ZM31.515,30.462L32.432,36.879L35.402,36.455L34.485,30.038L31.515,30.462ZM34.587,35.325L29.087,32.575L27.746,35.258L33.246,38.008L34.587,35.325Z" fill="#A5A5A5"/>
<path d="M28.417,33.917L29.087,32.575C28.665,32.364 28.168,32.364 27.746,32.575L28.417,33.917ZM22.917,36.667L21.432,36.455C21.353,37.007 21.587,37.557 22.04,37.884C22.492,38.21 23.088,38.258 23.587,38.008L22.917,36.667ZM23.833,30.25L25.318,30.462C25.385,29.995 25.228,29.523 24.894,29.189L23.833,30.25ZM20.167,26.583L19.92,25.104C19.366,25.196 18.91,25.591 18.738,26.126C18.567,26.661 18.709,27.247 19.106,27.644L20.167,26.583ZM25.667,25.667L25.913,27.146C26.387,27.067 26.794,26.767 27.008,26.338L25.667,25.667ZM28.417,20.167L29.758,19.496C29.504,18.988 28.985,18.667 28.417,18.667C27.849,18.667 27.329,18.988 27.075,19.496L28.417,20.167ZM31.167,25.667L29.825,26.338C30.04,26.767 30.447,27.067 30.92,27.146L31.167,25.667ZM36.667,26.583L37.727,27.644C38.125,27.247 38.267,26.661 38.095,26.126C37.924,25.591 37.468,25.196 36.913,25.104L36.667,26.583ZM33,30.25L31.939,29.189C31.605,29.523 31.448,29.995 31.515,30.462L33,30.25ZM33.917,36.667L33.246,38.008C33.745,38.258 34.341,38.21 34.794,37.884C35.246,37.557 35.48,37.007 35.402,36.455L33.917,36.667ZM27.746,32.575L22.246,35.325L23.587,38.008L29.087,35.258L27.746,32.575ZM24.402,36.879L25.318,30.462L22.348,30.038L21.432,36.455L24.402,36.879ZM24.894,29.189L21.227,25.523L19.106,27.644L22.773,31.311L24.894,29.189ZM20.413,28.063L25.913,27.146L25.42,24.187L19.92,25.104L20.413,28.063ZM27.008,26.338L29.758,20.838L27.075,19.496L24.325,24.996L27.008,26.338ZM27.075,20.838L29.825,26.338L32.508,24.996L29.758,19.496L27.075,20.838ZM30.92,27.146L36.42,28.063L36.913,25.104L31.413,24.187L30.92,27.146ZM35.606,25.523L31.939,29.189L34.061,31.311L37.727,27.644L35.606,25.523ZM31.515,30.462L32.432,36.879L35.402,36.455L34.485,30.038L31.515,30.462ZM34.587,35.325L29.087,32.575L27.746,35.258L33.246,38.008L34.587,35.325Z" fill="#A5A5A5" fill-opacity="0.2"/>
<path d="M8.394,6.273C7.808,5.687 6.858,5.687 6.273,6.273C5.687,6.858 5.687,7.808 6.273,8.394L8.394,6.273ZM19.106,21.227C19.692,21.813 20.642,21.813 21.227,21.227C21.813,20.642 21.813,19.692 21.227,19.106L19.106,21.227ZM6.273,8.394L19.106,21.227L21.227,19.106L8.394,6.273L6.273,8.394Z" fill="#A5A5A5"/>
<path d="M8.394,6.273C7.808,5.687 6.858,5.687 6.273,6.273C5.687,6.858 5.687,7.808 6.273,8.394L8.394,6.273ZM19.106,21.227C19.692,21.813 20.642,21.813 21.227,21.227C21.813,20.642 21.813,19.692 21.227,19.106L19.106,21.227ZM6.273,8.394L19.106,21.227L21.227,19.106L8.394,6.273L6.273,8.394Z" fill="#A5A5A5" fill-opacity="0.2"/>
<path d="M17.561,6.273C16.975,5.687 16.025,5.687 15.439,6.273C14.854,6.858 14.854,7.808 15.439,8.394L17.561,6.273ZM21.856,14.811C22.442,15.396 23.392,15.396 23.977,14.811C24.563,14.225 24.563,13.275 23.977,12.689L21.856,14.811ZM15.439,8.394L21.856,14.811L23.977,12.689L17.561,6.273L15.439,8.394Z" fill="#A5A5A5"/>
<path d="M17.561,6.273C16.975,5.687 16.025,5.687 15.439,6.273C14.854,6.858 14.854,7.808 15.439,8.394L17.561,6.273ZM21.856,14.811C22.442,15.396 23.392,15.396 23.977,14.811C24.563,14.225 24.563,13.275 23.977,12.689L21.856,14.811ZM15.439,8.394L21.856,14.811L23.977,12.689L17.561,6.273L15.439,8.394Z" fill="#A5A5A5" fill-opacity="0.2"/>
<path d="M8.394,15.439C7.808,14.854 6.858,14.854 6.273,15.439C5.687,16.025 5.687,16.975 6.273,17.561L8.394,15.439ZM12.689,23.977C13.275,24.563 14.225,24.563 14.811,23.977C15.396,23.392 15.396,22.442 14.811,21.856L12.689,23.977ZM6.273,17.561L12.689,23.977L14.811,21.856L8.394,15.439L6.273,17.561Z" fill="#A5A5A5"/>
<path d="M8.394,15.439C7.808,14.854 6.858,14.854 6.273,15.439C5.687,16.025 5.687,16.975 6.273,17.561L8.394,15.439ZM12.689,23.977C13.275,24.563 14.225,24.563 14.811,23.977C15.396,23.392 15.396,22.442 14.811,21.856L12.689,23.977ZM6.273,17.561L12.689,23.977L14.811,21.856L8.394,15.439L6.273,17.561Z" fill="#A5A5A5" fill-opacity="0.2"/>
</svg>
