<svg width="14" height="26" viewBox="0 0 14 26" fill="none" xmlns="http://www.w3.org/2000/svg" xmlns:xlink="http://www.w3.org/1999/xlink">
<path d="M1,7C0.172,7 -0.5,7.672 -0.5,8.5C-0.5,9.328 0.172,10 1,10L1,7ZM12,10C12.828,10 13.5,9.328 13.5,8.5C13.5,7.672 12.828,7 12,7L12,10ZM1,10L12,10L12,7L1,7L1,10Z" fill="#A5A5A5"/>
<path d="M1,7C0.172,7 -0.5,7.672 -0.5,8.5C-0.5,9.328 0.172,10 1,10L1,7ZM12,10C12.828,10 13.5,9.328 13.5,8.5C13.5,7.672 12.828,7 12,7L12,10ZM1,10L12,10L12,7L1,7L1,10Z" fill="#A5A5A5" fill-opacity="0.2"/>
<path d="M2.5,1.167C2.5,0.338 1.828,-0.333 1,-0.333C0.172,-0.333 -0.5,0.338 -0.5,1.167L2.5,1.167ZM12,24.667C12.828,24.667 13.5,23.995 13.5,23.167C13.5,22.338 12.828,21.667 12,21.667L12,24.667ZM-0.5,1.167L-0.5,21.333L2.5,21.333L2.5,1.167L-0.5,1.167ZM-0.5,21.333C-0.5,23.174 0.992,24.667 2.833,24.667L2.833,21.667C2.649,21.667 2.5,21.517 2.5,21.333L-0.5,21.333ZM2.833,24.667L12,24.667L12,21.667L2.833,21.667L2.833,24.667Z" fill="#A5A5A5"/>
<path d="M2.5,1.167C2.5,0.338 1.828,-0.333 1,-0.333C0.172,-0.333 -0.5,0.338 -0.5,1.167L2.5,1.167ZM12,24.667C12.828,24.667 13.5,23.995 13.5,23.167C13.5,22.338 12.828,21.667 12,21.667L12,24.667ZM-0.5,1.167L-0.5,21.333L2.5,21.333L2.5,1.167L-0.5,1.167ZM-0.5,21.333C-0.5,23.174 0.992,24.667 2.833,24.667L2.833,21.667C2.649,21.667 2.5,21.517 2.5,21.333L-0.5,21.333ZM2.833,24.667L12,24.667L12,21.667L2.833,21.667L2.833,24.667Z" fill="#A5A5A5" fill-opacity="0.2"/>
</svg>
