<svg width="44" height="44" viewBox="0 0 44 44" fill="none" xmlns="http://www.w3.org/2000/svg" xmlns:xlink="http://www.w3.org/1999/xlink">
<path d="M29.202,15.165C29.477,15.947 30.334,16.357 31.115,16.081C31.897,15.806 32.307,14.949 32.031,14.168L29.202,15.165ZM25.667,11L25.731,9.501C25.71,9.5 25.688,9.5 25.667,9.5L25.667,11ZM18.333,33L18.269,34.499C18.29,34.5 18.312,34.5 18.333,34.5L18.333,33ZM14.798,28.835C14.523,28.053 13.666,27.643 12.885,27.919C12.103,28.194 11.693,29.051 11.969,29.832L14.798,28.835ZM32.031,14.168C31.081,11.472 28.587,9.625 25.731,9.501L25.602,12.499C27.234,12.569 28.659,13.625 29.202,15.165L32.031,14.168ZM25.667,9.5L18.333,9.5L18.333,12.5L25.667,12.5L25.667,9.5ZM18.333,9.5C14.467,9.5 11.333,12.634 11.333,16.5L14.333,16.5C14.333,14.291 16.124,12.5 18.333,12.5L18.333,9.5ZM11.333,16.5C11.333,20.366 14.467,23.5 18.333,23.5L18.333,20.5C16.124,20.5 14.333,18.709 14.333,16.5L11.333,16.5ZM18.333,23.5L25.667,23.5L25.667,20.5L18.333,20.5L18.333,23.5ZM25.667,23.5C27.876,23.5 29.667,25.291 29.667,27.5L32.667,27.5C32.667,23.634 29.533,20.5 25.667,20.5L25.667,23.5ZM29.667,27.5C29.667,29.709 27.876,31.5 25.667,31.5L25.667,34.5C29.533,34.5 32.667,31.366 32.667,27.5L29.667,27.5ZM25.667,31.5L18.333,31.5L18.333,34.5L25.667,34.5L25.667,31.5ZM18.398,31.501C16.766,31.431 15.341,30.375 14.798,28.835L11.969,29.832C12.919,32.528 15.413,34.375 18.269,34.499L18.398,31.501Z" fill="#A5A5A5"/>
<path d="M29.202,15.165C29.477,15.947 30.334,16.357 31.115,16.081C31.897,15.806 32.307,14.949 32.031,14.168L29.202,15.165ZM25.667,11L25.731,9.501C25.71,9.5 25.688,9.5 25.667,9.5L25.667,11ZM18.333,33L18.269,34.499C18.29,34.5 18.312,34.5 18.333,34.5L18.333,33ZM14.798,28.835C14.523,28.053 13.666,27.643 12.885,27.919C12.103,28.194 11.693,29.051 11.969,29.832L14.798,28.835ZM32.031,14.168C31.081,11.472 28.587,9.625 25.731,9.501L25.602,12.499C27.234,12.569 28.659,13.625 29.202,15.165L32.031,14.168ZM25.667,9.5L18.333,9.5L18.333,12.5L25.667,12.5L25.667,9.5ZM18.333,9.5C14.467,9.5 11.333,12.634 11.333,16.5L14.333,16.5C14.333,14.291 16.124,12.5 18.333,12.5L18.333,9.5ZM11.333,16.5C11.333,20.366 14.467,23.5 18.333,23.5L18.333,20.5C16.124,20.5 14.333,18.709 14.333,16.5L11.333,16.5ZM18.333,23.5L25.667,23.5L25.667,20.5L18.333,20.5L18.333,23.5ZM25.667,23.5C27.876,23.5 29.667,25.291 29.667,27.5L32.667,27.5C32.667,23.634 29.533,20.5 25.667,20.5L25.667,23.5ZM29.667,27.5C29.667,29.709 27.876,31.5 25.667,31.5L25.667,34.5C29.533,34.5 32.667,31.366 32.667,27.5L29.667,27.5ZM25.667,31.5L18.333,31.5L18.333,34.5L25.667,34.5L25.667,31.5ZM18.398,31.501C16.766,31.431 15.341,30.375 14.798,28.835L11.969,29.832C12.919,32.528 15.413,34.375 18.269,34.499L18.398,31.501Z" fill="#A5A5A5" fill-opacity="0.2"/>
<line x1="20.5" y1="5.5" x2="20.5" y2="38.5" stroke="#A5A5A5" stroke-width="1.5" stroke-miterlimit="3.999327" stroke-linecap="round" stroke-linejoin="round"/>
<line x1="20.5" y1="5.5" x2="20.5" y2="38.5" stroke="#A5A5A5" stroke-opacity="0.2" stroke-width="1.5" stroke-miterlimit="3.999327" stroke-linecap="round" stroke-linejoin="round"/>
</svg>
