<svg width="44" height="44" viewBox="0 0 44 44" fill="none" xmlns="http://www.w3.org/2000/svg" xmlns:xlink="http://www.w3.org/1999/xlink">
<path d="M27.167,5.5C27.167,4.672 26.495,4 25.667,4C24.838,4 24.167,4.672 24.167,5.5L27.167,5.5ZM34.833,16.167C35.662,16.167 36.333,15.495 36.333,14.667C36.333,13.838 35.662,13.167 34.833,13.167L34.833,16.167ZM24.167,5.5L24.167,12.833L27.167,12.833L27.167,5.5L24.167,5.5ZM24.167,12.833C24.167,14.674 25.659,16.167 27.5,16.167L27.5,13.167C27.316,13.167 27.167,13.017 27.167,12.833L24.167,12.833ZM27.5,16.167L34.833,16.167L34.833,13.167L27.5,13.167L27.5,16.167Z" fill="#A5A5A5"/>
<path d="M27.167,5.5C27.167,4.672 26.495,4 25.667,4C24.838,4 24.167,4.672 24.167,5.5L27.167,5.5ZM34.833,16.167C35.662,16.167 36.333,15.495 36.333,14.667C36.333,13.838 35.662,13.167 34.833,13.167L34.833,16.167ZM24.167,5.5L24.167,12.833L27.167,12.833L27.167,5.5L24.167,5.5ZM24.167,12.833C24.167,14.674 25.659,16.167 27.5,16.167L27.5,13.167C27.316,13.167 27.167,13.017 27.167,12.833L24.167,12.833ZM27.5,16.167L34.833,16.167L34.833,13.167L27.5,13.167L27.5,16.167Z" fill="#A5A5A5" fill-opacity="0.2"/>
<path d="M25.667,5.5L26.727,4.439C26.446,4.158 26.064,4 25.667,4L25.667,5.5ZM34.833,14.667L36.333,14.667C36.333,14.269 36.175,13.887 35.894,13.606L34.833,14.667ZM31.167,37L12.833,37L12.833,40L31.167,40L31.167,37ZM12.833,37C11.637,37 10.667,36.03 10.667,34.833L7.667,34.833C7.667,37.687 9.98,40 12.833,40L12.833,37ZM10.667,34.833L10.667,9.167L7.667,9.167L7.667,34.833L10.667,34.833ZM10.667,9.167C10.667,7.97 11.637,7 12.833,7L12.833,4C9.98,4 7.667,6.313 7.667,9.167L10.667,9.167ZM12.833,7L25.667,7L25.667,4L12.833,4L12.833,7ZM24.606,6.561L33.773,15.727L35.894,13.606L26.727,4.439L24.606,6.561ZM33.333,14.667L33.333,34.833L36.333,34.833L36.333,14.667L33.333,14.667ZM33.333,34.833C33.333,36.03 32.363,37 31.167,37L31.167,40C34.02,40 36.333,37.687 36.333,34.833L33.333,34.833Z" fill="#A5A5A5"/>
<path d="M25.667,5.5L26.727,4.439C26.446,4.158 26.064,4 25.667,4L25.667,5.5ZM34.833,14.667L36.333,14.667C36.333,14.269 36.175,13.887 35.894,13.606L34.833,14.667ZM31.167,37L12.833,37L12.833,40L31.167,40L31.167,37ZM12.833,37C11.637,37 10.667,36.03 10.667,34.833L7.667,34.833C7.667,37.687 9.98,40 12.833,40L12.833,37ZM10.667,34.833L10.667,9.167L7.667,9.167L7.667,34.833L10.667,34.833ZM10.667,9.167C10.667,7.97 11.637,7 12.833,7L12.833,4C9.98,4 7.667,6.313 7.667,9.167L10.667,9.167ZM12.833,7L25.667,7L25.667,4L12.833,4L12.833,7ZM24.606,6.561L33.773,15.727L35.894,13.606L26.727,4.439L24.606,6.561ZM33.333,14.667L33.333,34.833L36.333,34.833L36.333,14.667L33.333,14.667ZM33.333,34.833C33.333,36.03 32.363,37 31.167,37L31.167,40C34.02,40 36.333,37.687 36.333,34.833L33.333,34.833Z" fill="#A5A5A5" fill-opacity="0.2"/>
<path d="M16.5,11.333C15.672,11.333 15,12.005 15,12.833C15,13.662 15.672,14.333 16.5,14.333L16.5,11.333ZM18.333,14.333C19.162,14.333 19.833,13.662 19.833,12.833C19.833,12.005 19.162,11.333 18.333,11.333L18.333,14.333ZM16.5,14.333L18.333,14.333L18.333,11.333L16.5,11.333L16.5,14.333Z" fill="#A5A5A5"/>
<path d="M16.5,11.333C15.672,11.333 15,12.005 15,12.833C15,13.662 15.672,14.333 16.5,14.333L16.5,11.333ZM18.333,14.333C19.162,14.333 19.833,13.662 19.833,12.833C19.833,12.005 19.162,11.333 18.333,11.333L18.333,14.333ZM16.5,14.333L18.333,14.333L18.333,11.333L16.5,11.333L16.5,14.333Z" fill="#A5A5A5" fill-opacity="0.2"/>
<path d="M16.5,22.333C15.672,22.333 15,23.005 15,23.833C15,24.662 15.672,25.333 16.5,25.333L16.5,22.333ZM27.5,25.333C28.328,25.333 29,24.662 29,23.833C29,23.005 28.328,22.333 27.5,22.333L27.5,25.333ZM16.5,25.333L27.5,25.333L27.5,22.333L16.5,22.333L16.5,25.333Z" fill="#A5A5A5"/>
<path d="M16.5,22.333C15.672,22.333 15,23.005 15,23.833C15,24.662 15.672,25.333 16.5,25.333L16.5,22.333ZM27.5,25.333C28.328,25.333 29,24.662 29,23.833C29,23.005 28.328,22.333 27.5,22.333L27.5,25.333ZM16.5,25.333L27.5,25.333L27.5,22.333L16.5,22.333L16.5,25.333Z" fill="#A5A5A5" fill-opacity="0.2"/>
<path d="M23.833,29.667C23.005,29.667 22.333,30.338 22.333,31.167C22.333,31.995 23.005,32.667 23.833,32.667L23.833,29.667ZM27.5,32.667C28.328,32.667 29,31.995 29,31.167C29,30.338 28.328,29.667 27.5,29.667L27.5,32.667ZM23.833,32.667L27.5,32.667L27.5,29.667L23.833,29.667L23.833,32.667Z" fill="#A5A5A5"/>
<path d="M23.833,29.667C23.005,29.667 22.333,30.338 22.333,31.167C22.333,31.995 23.005,32.667 23.833,32.667L23.833,29.667ZM27.5,32.667C28.328,32.667 29,31.995 29,31.167C29,30.338 28.328,29.667 27.5,29.667L27.5,32.667ZM23.833,32.667L27.5,32.667L27.5,29.667L23.833,29.667L23.833,32.667Z" fill="#A5A5A5" fill-opacity="0.2"/>
</svg>
