<svg width="44" height="44" viewBox="0 0 44 44" fill="none" xmlns="http://www.w3.org/2000/svg" xmlns:xlink="http://www.w3.org/1999/xlink">
<path d="M27.167,5.5C27.167,4.672 26.495,4 25.667,4C24.838,4 24.167,4.672 24.167,5.5L27.167,5.5ZM34.833,16.167C35.662,16.167 36.333,15.495 36.333,14.667C36.333,13.838 35.662,13.167 34.833,13.167L34.833,16.167ZM24.167,5.5L24.167,12.833L27.167,12.833L27.167,5.5L24.167,5.5ZM24.167,12.833C24.167,14.674 25.659,16.167 27.5,16.167L27.5,13.167C27.316,13.167 27.167,13.017 27.167,12.833L24.167,12.833ZM27.5,16.167L34.833,16.167L34.833,13.167L27.5,13.167L27.5,16.167Z" fill="#A5A5A5"/>
<path d="M27.167,5.5C27.167,4.672 26.495,4 25.667,4C24.838,4 24.167,4.672 24.167,5.5L27.167,5.5ZM34.833,16.167C35.662,16.167 36.333,15.495 36.333,14.667C36.333,13.838 35.662,13.167 34.833,13.167L34.833,16.167ZM24.167,5.5L24.167,12.833L27.167,12.833L27.167,5.5L24.167,5.5ZM24.167,12.833C24.167,14.674 25.659,16.167 27.5,16.167L27.5,13.167C27.316,13.167 27.167,13.017 27.167,12.833L24.167,12.833ZM27.5,16.167L34.833,16.167L34.833,13.167L27.5,13.167L27.5,16.167Z" fill="#A5A5A5" fill-opacity="0.2"/>
<path d="M25.667,5.5L26.727,4.439C26.446,4.158 26.064,4 25.667,4L25.667,5.5ZM34.833,14.667L36.333,14.667C36.333,14.269 36.175,13.887 35.894,13.606L34.833,14.667ZM31.167,37L12.833,37L12.833,40L31.167,40L31.167,37ZM12.833,37C11.637,37 10.667,36.03 10.667,34.833L7.667,34.833C7.667,37.687 9.98,40 12.833,40L12.833,37ZM10.667,34.833L10.667,9.167L7.667,9.167L7.667,34.833L10.667,34.833ZM10.667,9.167C10.667,7.97 11.637,7 12.833,7L12.833,4C9.98,4 7.667,6.313 7.667,9.167L10.667,9.167ZM12.833,7L25.667,7L25.667,4L12.833,4L12.833,7ZM24.606,6.561L33.773,15.727L35.894,13.606L26.727,4.439L24.606,6.561ZM33.333,14.667L33.333,34.833L36.333,34.833L36.333,14.667L33.333,14.667ZM33.333,34.833C33.333,36.03 32.363,37 31.167,37L31.167,40C34.02,40 36.333,37.687 36.333,34.833L33.333,34.833Z" fill="#A5A5A5"/>
<path d="M25.667,5.5L26.727,4.439C26.446,4.158 26.064,4 25.667,4L25.667,5.5ZM34.833,14.667L36.333,14.667C36.333,14.269 36.175,13.887 35.894,13.606L34.833,14.667ZM31.167,37L12.833,37L12.833,40L31.167,40L31.167,37ZM12.833,37C11.637,37 10.667,36.03 10.667,34.833L7.667,34.833C7.667,37.687 9.98,40 12.833,40L12.833,37ZM10.667,34.833L10.667,9.167L7.667,9.167L7.667,34.833L10.667,34.833ZM10.667,9.167C10.667,7.97 11.637,7 12.833,7L12.833,4C9.98,4 7.667,6.313 7.667,9.167L10.667,9.167ZM12.833,7L25.667,7L25.667,4L12.833,4L12.833,7ZM24.606,6.561L33.773,15.727L35.894,13.606L26.727,4.439L24.606,6.561ZM33.333,14.667L33.333,34.833L36.333,34.833L36.333,14.667L33.333,14.667ZM33.333,34.833C33.333,36.03 32.363,37 31.167,37L31.167,40C34.02,40 36.333,37.687 36.333,34.833L33.333,34.833Z" fill="#A5A5A5" fill-opacity="0.2"/>
<path d="M19.675,24.504C20.045,23.763 19.745,22.862 19.004,22.492C18.263,22.121 17.362,22.422 16.992,23.162L19.675,24.504ZM16.5,27.5L15.158,26.829C14.947,27.251 14.947,27.749 15.158,28.171L16.5,27.5ZM16.992,31.837C17.362,32.578 18.263,32.879 19.004,32.508C19.745,32.138 20.045,31.237 19.675,30.496L16.992,31.837ZM16.992,23.162L15.158,26.829L17.842,28.171L19.675,24.504L16.992,23.162ZM15.158,28.171L16.992,31.837L19.675,30.496L17.842,26.829L15.158,28.171Z" fill="#A5A5A5"/>
<path d="M19.675,24.504C20.045,23.763 19.745,22.862 19.004,22.492C18.263,22.121 17.362,22.422 16.992,23.162L19.675,24.504ZM16.5,27.5L15.158,26.829C14.947,27.251 14.947,27.749 15.158,28.171L16.5,27.5ZM16.992,31.837C17.362,32.578 18.263,32.879 19.004,32.508C19.745,32.138 20.045,31.237 19.675,30.496L16.992,31.837ZM16.992,23.162L15.158,26.829L17.842,28.171L19.675,24.504L16.992,23.162ZM15.158,28.171L16.992,31.837L19.675,30.496L17.842,26.829L15.158,28.171Z" fill="#A5A5A5" fill-opacity="0.2"/>
<path d="M27.008,23.162C26.638,22.422 25.737,22.121 24.996,22.492C24.255,22.862 23.955,23.763 24.325,24.504L27.008,23.162ZM27.5,27.5L28.842,28.171C29.053,27.749 29.053,27.251 28.842,26.829L27.5,27.5ZM24.325,30.496C23.955,31.237 24.255,32.138 24.996,32.508C25.737,32.879 26.638,32.578 27.008,31.837L24.325,30.496ZM24.325,24.504L26.158,28.171L28.842,26.829L27.008,23.162L24.325,24.504ZM26.158,26.829L24.325,30.496L27.008,31.837L28.842,28.171L26.158,26.829Z" fill="#A5A5A5"/>
<path d="M27.008,23.162C26.638,22.422 25.737,22.121 24.996,22.492C24.255,22.862 23.955,23.763 24.325,24.504L27.008,23.162ZM27.5,27.5L28.842,28.171C29.053,27.749 29.053,27.251 28.842,26.829L27.5,27.5ZM24.325,30.496C23.955,31.237 24.255,32.138 24.996,32.508C25.737,32.879 26.638,32.578 27.008,31.837L24.325,30.496ZM24.325,24.504L26.158,28.171L28.842,26.829L27.008,23.162L24.325,24.504ZM26.158,26.829L24.325,30.496L27.008,31.837L28.842,28.171L26.158,26.829Z" fill="#A5A5A5" fill-opacity="0.2"/>
</svg>
