<svg width="48" height="48" viewBox="0 0 48 48" fill="none" xmlns="http://www.w3.org/2000/svg" xmlns:xlink="http://www.w3.org/1999/xlink">
<path d="M29.5,6C29.5,5.172 28.828,4.5 28,4.5C27.172,4.5 26.5,5.172 26.5,6L29.5,6ZM38,17.5C38.828,17.5 39.5,16.828 39.5,16C39.5,15.172 38.828,14.5 38,14.5L38,17.5ZM26.5,6L26.5,14L29.5,14L29.5,6L26.5,6ZM26.5,14C26.5,15.933 28.067,17.5 30,17.5L30,14.5C29.724,14.5 29.5,14.276 29.5,14L26.5,14ZM30,17.5L38,17.5L38,14.5L30,14.5L30,17.5Z" fill="#A5A5A5"/>
<path d="M29.5,6C29.5,5.172 28.828,4.5 28,4.5C27.172,4.5 26.5,5.172 26.5,6L29.5,6ZM38,17.5C38.828,17.5 39.5,16.828 39.5,16C39.5,15.172 38.828,14.5 38,14.5L38,17.5ZM26.5,6L26.5,14L29.5,14L29.5,6L26.5,6ZM26.5,14C26.5,15.933 28.067,17.5 30,17.5L30,14.5C29.724,14.5 29.5,14.276 29.5,14L26.5,14ZM30,17.5L38,17.5L38,14.5L30,14.5L30,17.5Z" fill="#A5A5A5" fill-opacity="0.2"/>
<path d="M28,6L29.061,4.939C28.779,4.658 28.398,4.5 28,4.5L28,6ZM38,16L39.5,16C39.5,15.602 39.342,15.221 39.061,14.939L38,16ZM34,40.5L14,40.5L14,43.5L34,43.5L34,40.5ZM14,40.5C12.619,40.5 11.5,39.381 11.5,38L8.5,38C8.5,41.038 10.962,43.5 14,43.5L14,40.5ZM11.5,38L11.5,10L8.5,10L8.5,38L11.5,38ZM11.5,10C11.5,8.619 12.619,7.5 14,7.5L14,4.5C10.962,4.5 8.5,6.962 8.5,10L11.5,10ZM14,7.5L28,7.5L28,4.5L14,4.5L14,7.5ZM26.939,7.061L36.939,17.061L39.061,14.939L29.061,4.939L26.939,7.061ZM36.5,16L36.5,38L39.5,38L39.5,16L36.5,16ZM36.5,38C36.5,39.381 35.381,40.5 34,40.5L34,43.5C37.038,43.5 39.5,41.038 39.5,38L36.5,38Z" fill="#A5A5A5"/>
<path d="M28,6L29.061,4.939C28.779,4.658 28.398,4.5 28,4.5L28,6ZM38,16L39.5,16C39.5,15.602 39.342,15.221 39.061,14.939L38,16ZM34,40.5L14,40.5L14,43.5L34,43.5L34,40.5ZM14,40.5C12.619,40.5 11.5,39.381 11.5,38L8.5,38C8.5,41.038 10.962,43.5 14,43.5L14,40.5ZM11.5,38L11.5,10L8.5,10L8.5,38L11.5,38ZM11.5,10C11.5,8.619 12.619,7.5 14,7.5L14,4.5C10.962,4.5 8.5,6.962 8.5,10L11.5,10ZM14,7.5L28,7.5L28,4.5L14,4.5L14,7.5ZM26.939,7.061L36.939,17.061L39.061,14.939L29.061,4.939L26.939,7.061ZM36.5,16L36.5,38L39.5,38L39.5,16L36.5,16ZM36.5,38C36.5,39.381 35.381,40.5 34,40.5L34,43.5C37.038,43.5 39.5,41.038 39.5,38L36.5,38Z" fill="#A5A5A5" fill-opacity="0.2"/>
<path d="M28,23.5C28.828,23.5 29.5,22.828 29.5,22C29.5,21.172 28.828,20.5 28,20.5L28,23.5ZM23,22L23,20.5L23,20.5L23,22ZM23,28L23,29.5L23,29.5L23,28ZM20,32.5C19.172,32.5 18.5,33.172 18.5,34C18.5,34.828 19.172,35.5 20,35.5L20,32.5ZM28,20.5L23,20.5L23,23.5L28,23.5L28,20.5ZM23,20.5C20.515,20.5 18.5,22.515 18.5,25L21.5,25C21.5,24.172 22.172,23.5 23,23.5L23,20.5ZM18.5,25C18.5,27.485 20.515,29.5 23,29.5L23,26.5C22.172,26.5 21.5,25.828 21.5,25L18.5,25ZM23,29.5L25,29.5L25,26.5L23,26.5L23,29.5ZM25,29.5C25.828,29.5 26.5,30.172 26.5,31L29.5,31C29.5,28.515 27.485,26.5 25,26.5L25,29.5ZM26.5,31C26.5,31.828 25.828,32.5 25,32.5L25,35.5C27.485,35.5 29.5,33.485 29.5,31L26.5,31ZM25,32.5L20,32.5L20,35.5L25,35.5L25,32.5Z" fill="#A5A5A5"/>
<path d="M28,23.5C28.828,23.5 29.5,22.828 29.5,22C29.5,21.172 28.828,20.5 28,20.5L28,23.5ZM23,22L23,20.5L23,20.5L23,22ZM23,28L23,29.5L23,29.5L23,28ZM20,32.5C19.172,32.5 18.5,33.172 18.5,34C18.5,34.828 19.172,35.5 20,35.5L20,32.5ZM28,20.5L23,20.5L23,23.5L28,23.5L28,20.5ZM23,20.5C20.515,20.5 18.5,22.515 18.5,25L21.5,25C21.5,24.172 22.172,23.5 23,23.5L23,20.5ZM18.5,25C18.5,27.485 20.515,29.5 23,29.5L23,26.5C22.172,26.5 21.5,25.828 21.5,25L18.5,25ZM23,29.5L25,29.5L25,26.5L23,26.5L23,29.5ZM25,29.5C25.828,29.5 26.5,30.172 26.5,31L29.5,31C29.5,28.515 27.485,26.5 25,26.5L25,29.5ZM26.5,31C26.5,31.828 25.828,32.5 25,32.5L25,35.5C27.485,35.5 29.5,33.485 29.5,31L26.5,31ZM25,32.5L20,32.5L20,35.5L25,35.5L25,32.5Z" fill="#A5A5A5" fill-opacity="0.2"/>
<path d="M25.5,34C25.5,33.172 24.828,32.5 24,32.5C23.172,32.5 22.5,33.172 22.5,34L25.5,34ZM22.5,36C22.5,36.828 23.172,37.5 24,37.5C24.828,37.5 25.5,36.828 25.5,36L22.5,36ZM25.5,20C25.5,19.172 24.828,18.5 24,18.5C23.172,18.5 22.5,19.172 22.5,20L25.5,20ZM22.5,22C22.5,22.828 23.172,23.5 24,23.5C24.828,23.5 25.5,22.828 25.5,22L22.5,22ZM22.5,34L22.5,36L25.5,36L25.5,34L22.5,34ZM22.5,20L22.5,22L25.5,22L25.5,20L22.5,20Z" fill="#A5A5A5"/>
<path d="M25.5,34C25.5,33.172 24.828,32.5 24,32.5C23.172,32.5 22.5,33.172 22.5,34L25.5,34ZM22.5,36C22.5,36.828 23.172,37.5 24,37.5C24.828,37.5 25.5,36.828 25.5,36L22.5,36ZM25.5,20C25.5,19.172 24.828,18.5 24,18.5C23.172,18.5 22.5,19.172 22.5,20L25.5,20ZM22.5,22C22.5,22.828 23.172,23.5 24,23.5C24.828,23.5 25.5,22.828 25.5,22L22.5,22ZM22.5,34L22.5,36L25.5,36L25.5,34L22.5,34ZM22.5,20L22.5,22L25.5,22L25.5,20L22.5,20Z" fill="#A5A5A5" fill-opacity="0.2"/>
</svg>
