<svg width="38" height="42" viewBox="0 0 38 42" fill="none" xmlns="http://www.w3.org/2000/svg" xmlns:xlink="http://www.w3.org/1999/xlink">
<path d="M35.613,11.247L37.113,11.247C37.113,10.984 37.044,10.726 36.913,10.498L35.613,11.247ZM34.369,9.087L33.069,9.836L33.069,9.836L34.369,9.087ZM29.151,7.677L28.405,6.376L28.39,6.385L29.151,7.677ZM23.934,6.323L25.228,5.564L25.224,5.557L23.934,6.323ZM23.421,4.492L21.922,4.449C21.921,4.468 21.921,4.488 21.921,4.508L23.421,4.492ZM19.595,0.556L19.595,2.056L19.596,2.056L19.595,0.556ZM13.279,4.382L14.779,4.404C14.779,4.394 14.779,4.384 14.779,4.375L13.279,4.382ZM9.453,8.153L9.438,9.653L9.453,9.653L9.453,8.153ZM7.622,7.641L8.388,6.351L8.368,6.339L7.622,7.641ZM2.405,9.05L3.687,9.83C3.693,9.82 3.699,9.809 3.705,9.799L2.405,9.05ZM1.069,11.247L-0.213,10.468C-0.219,10.478 -0.225,10.488 -0.231,10.498L1.069,11.247ZM2.46,16.464L1.706,17.761L1.71,17.764L2.46,16.464ZM2.46,23.091L1.71,21.792L1.709,21.793L2.46,23.091ZM1.069,28.291L-0.231,29.04L-0.229,29.043L1.069,28.291ZM2.332,30.469L3.644,29.742C3.639,29.733 3.634,29.725 3.629,29.717L2.332,30.469ZM4.632,32.295L5.042,30.852L4.632,32.295ZM7.549,31.952L8.283,33.261L8.305,33.247L7.549,31.952ZM12.748,33.343L11.446,34.088L11.458,34.109L12.748,33.343ZM13.261,35.174L14.761,35.174L14.761,35.158L13.261,35.174ZM23.421,35.192L24.921,35.199L24.921,35.185L23.421,35.192ZM24.536,32.481L25.597,33.542L25.597,33.542L24.536,32.481ZM27.247,31.366L27.287,29.867C27.276,29.866 27.265,29.866 27.254,29.866L27.247,31.366ZM29.078,31.879L29.827,30.579L29.822,30.576L29.078,31.879ZM34.295,30.487L33.009,29.716L32.999,29.733L34.295,30.487ZM35.613,28.291L36.9,29.062L36.909,29.046L35.613,28.291ZM36.002,25.393L37.452,25.006L37.452,25.006L36.002,25.393ZM32.442,20.754L33.891,20.367L33.891,20.367L32.442,20.754ZM32.831,17.856L34.127,18.611L34.132,18.601L32.831,17.856ZM34.222,16.464L34.968,17.766L34.979,17.759L34.222,16.464ZM35.613,11.265L34.113,11.265C34.113,11.526 34.181,11.782 34.311,12.009L35.613,11.265ZM36.913,10.498L35.668,8.338L33.069,9.836L34.314,11.996L36.913,10.498ZM35.668,8.338C34.202,5.794 30.953,4.916 28.405,6.376L29.897,8.979C31.01,8.341 32.429,8.725 33.069,9.836L35.668,8.338ZM28.39,6.385C27.862,6.696 27.232,6.784 26.638,6.63L25.885,9.534C27.249,9.888 28.698,9.685 29.912,8.97L28.39,6.385ZM26.638,6.63C26.045,6.476 25.538,6.093 25.228,5.564L22.64,7.081C23.353,8.297 24.52,9.18 25.885,9.534L26.638,6.63ZM25.224,5.557C25.029,5.23 24.925,4.857 24.921,4.476L21.921,4.508C21.931,5.416 22.18,6.307 22.644,7.088L25.224,5.557ZM24.921,4.535C24.962,3.096 24.419,1.702 23.416,0.67L21.265,2.761C21.703,3.212 21.94,3.82 21.922,4.449L24.921,4.535ZM23.416,0.67C22.412,-0.362 21.034,-0.945 19.594,-0.944L19.596,2.056C20.224,2.056 20.826,2.31 21.265,2.761L23.416,0.67ZM19.595,-0.944L17.087,-0.944L17.087,2.056L19.595,2.056L19.595,-0.944ZM17.087,-0.944C15.675,-0.944 14.321,-0.381 13.325,0.62L15.451,2.736C15.884,2.301 16.473,2.056 17.087,2.056L17.087,-0.944ZM13.325,0.62C12.329,1.621 11.772,2.977 11.779,4.389L14.779,4.375C14.776,3.761 15.018,3.171 15.451,2.736L13.325,0.62ZM11.779,4.361C11.761,5.632 10.725,6.653 9.453,6.653L9.453,9.653C12.365,9.654 14.737,7.315 14.779,4.404L11.779,4.361ZM9.469,6.653C9.088,6.649 8.715,6.545 8.388,6.351L6.857,8.931C7.638,9.395 8.529,9.644 9.438,9.653L9.469,6.653ZM8.368,6.339C5.82,4.879 2.571,5.757 1.105,8.301L3.705,9.799C4.345,8.688 5.764,8.305 6.877,8.942L8.368,6.339ZM1.124,8.271L-0.213,10.468L2.35,12.027L3.687,9.83L1.124,8.271ZM-0.231,10.498C-1.695,13.039 -0.829,16.286 1.706,17.761L3.214,15.168C2.107,14.524 1.729,13.106 2.368,11.996L-0.231,10.498ZM1.71,17.764C2.43,18.179 2.873,18.947 2.873,19.778L5.873,19.778C5.873,17.875 4.858,16.117 3.21,15.165L1.71,17.764ZM2.873,19.778C2.873,20.609 2.43,21.377 1.71,21.792L3.21,24.391C4.858,23.439 5.873,21.681 5.873,19.778L2.873,19.778ZM1.709,21.793C-0.827,23.26 -1.694,26.503 -0.231,29.04L2.368,27.541C1.731,26.438 2.109,25.028 3.211,24.39L1.709,21.793ZM-0.229,29.043L1.034,31.221L3.629,29.717L2.366,27.538L-0.229,29.043ZM1.02,31.196C1.707,32.436 2.859,33.35 4.222,33.738L5.042,30.852C4.447,30.683 3.944,30.283 3.644,29.742L1.02,31.196ZM4.222,33.738C5.585,34.125 7.047,33.953 8.283,33.26L6.816,30.643C6.276,30.946 5.638,31.021 5.042,30.852L4.222,33.738ZM8.305,33.247C8.833,32.94 9.461,32.855 10.051,33.013L10.826,30.115C9.464,29.751 8.012,29.945 6.793,30.656L8.305,33.247ZM10.051,33.013C10.641,33.171 11.143,33.558 11.446,34.088L14.05,32.598C13.35,31.374 12.189,30.48 10.826,30.115L10.051,33.013ZM11.458,34.109C11.653,34.436 11.757,34.809 11.761,35.189L14.761,35.158C14.751,34.249 14.502,33.359 14.038,32.578L11.458,34.109ZM11.761,35.174C11.761,38.115 14.145,40.5 17.087,40.5L17.087,37.5C15.802,37.5 14.761,36.459 14.761,35.174L11.761,35.174ZM17.087,40.5L19.595,40.5L19.595,37.5L17.087,37.5L17.087,40.5ZM19.595,40.5C22.527,40.5 24.907,38.131 24.921,35.199L21.921,35.185C21.915,36.465 20.875,37.5 19.595,37.5L19.595,40.5ZM24.921,35.185C24.918,34.569 25.162,33.977 25.597,33.542L23.476,31.421C22.474,32.422 21.914,33.783 21.921,35.199L24.921,35.185ZM25.597,33.542C26.033,33.106 26.624,32.863 27.24,32.866L27.254,29.866C25.838,29.859 24.477,30.419 23.476,31.421L25.597,33.542ZM27.207,32.866C27.603,32.876 27.99,32.984 28.334,33.181L29.822,30.576C29.049,30.134 28.178,29.89 27.287,29.867L27.207,32.866ZM28.329,33.178C30.87,34.643 34.117,33.777 35.592,31.242L32.999,29.733C32.355,30.84 30.937,31.218 29.827,30.579L28.329,33.178ZM35.582,31.259L36.9,29.062L34.327,27.519L33.009,29.716L35.582,31.259ZM36.909,29.046C37.621,27.825 37.816,26.371 37.452,25.006L34.553,25.779C34.711,26.373 34.627,27.005 34.317,27.535L36.909,29.046ZM37.452,25.006C37.088,23.641 36.195,22.477 34.97,21.773L33.474,24.373C34.007,24.68 34.395,25.186 34.553,25.779L37.452,25.006ZM34.97,21.773C34.438,21.467 34.049,20.961 33.891,20.367L30.992,21.14C31.356,22.505 32.25,23.669 33.474,24.373L34.97,21.773ZM33.891,20.367C33.733,19.774 33.818,19.142 34.127,18.611L31.535,17.101C30.824,18.321 30.628,19.775 30.992,21.14L33.891,20.367ZM34.132,18.601C34.332,18.254 34.62,17.965 34.968,17.766L33.477,15.163C32.666,15.627 31.994,16.3 31.529,17.11L34.132,18.601ZM34.979,17.759C37.499,16.285 38.363,13.057 36.916,10.522L34.311,12.009C34.943,13.116 34.565,14.526 33.465,15.17L34.979,17.759ZM37.113,11.265L37.113,11.247L34.113,11.247L34.113,11.265L37.113,11.265Z" fill="#474747"/>
<path d="M22.122,19.778C22.122,21.861 20.433,23.55 18.35,23.55L18.35,26.55C22.09,26.55 25.122,23.518 25.122,19.778L22.122,19.778ZM18.35,23.55C16.267,23.55 14.578,21.861 14.578,19.778L11.578,19.778C11.578,23.518 14.61,26.55 18.35,26.55L18.35,23.55ZM14.578,19.778C14.578,17.695 16.267,16.006 18.35,16.006L18.35,13.006C14.61,13.006 11.578,16.038 11.578,19.778L14.578,19.778ZM18.35,16.006C20.433,16.006 22.122,17.695 22.122,19.778L25.122,19.778C25.122,16.038 22.09,13.006 18.35,13.006L18.35,16.006Z" fill="#474747"/>
</svg>
