<svg width="2804" height="696" viewBox="0 0 2804 696" fill="none" xmlns="http://www.w3.org/2000/svg" xmlns:xlink="http://www.w3.org/1999/xlink">
<path d="M2.275,342L2798.419,342L2798.419,340L2.275,340L2.275,342Z" fill="#DBDADE"/>
<path d="M2.275,514L2798.419,514L2798.419,512L2.275,512L2.275,514Z" fill="#DBDADE"/>
<path d="M2.275,684L2798.419,684L2798.419,682L2.275,682L2.275,684Z" fill="#DBDADE"/>
<path d="M2.275,174L2798.419,174L2798.419,172L2.275,172L2.275,174Z" fill="#DBDADE"/>
<path d="M2.275,2L2798.419,2L2798.419,0L2.275,0L2.275,2Z" fill="#DBDADE"/>
<path d="M1.275,1L1.275,695L3.275,695L3.275,1L1.275,1Z" fill="#DBDADE"/>
<path d="M235.682,1L235.682,695L237.682,695L237.682,1L235.682,1Z" fill="#DBDADE"/>
<path d="M467.299,1L467.299,695L469.299,695L469.299,1L467.299,1Z" fill="#DBDADE"/>
<path d="M701.707,1L701.707,695L703.707,695L703.707,1L701.707,1Z" fill="#DBDADE"/>
<path d="M936.114,1L936.114,695L938.114,695L938.114,1L936.114,1Z" fill="#DBDADE"/>
<path d="M1167.731,1L1167.731,695L1169.731,695L1169.731,1L1167.731,1Z" fill="#DBDADE"/>
<path d="M1402.139,1L1402.139,695L1404.139,695L1404.139,1L1402.139,1Z" fill="#DBDADE"/>
<path d="M1636.546,1L1636.546,695L1638.546,695L1638.546,1L1636.546,1Z" fill="#DBDADE"/>
<path d="M1868.163,1L1868.163,695L1870.163,695L1870.163,1L1868.163,1Z" fill="#DBDADE"/>
<path d="M2102.571,1L2102.571,695L2104.571,695L2104.571,1L2102.571,1Z" fill="#DBDADE"/>
<path d="M2334.188,1L2334.188,695L2336.188,695L2336.188,1L2334.188,1Z" fill="#DBDADE"/>
<path d="M2568.595,1L2568.595,695L2570.595,695L2570.595,1L2568.595,1Z" fill="#DBDADE"/>
<path d="M2800.212,1L2800.212,695L2802.212,695L2802.212,1L2800.212,1Z" fill="#DBDADE"/>
</svg>
