<svg width="44" height="44" viewBox="0 0 44 44" fill="none" xmlns="http://www.w3.org/2000/svg" xmlns:xlink="http://www.w3.org/1999/xlink">
<path d="M20.939,37.727C21.525,38.313 22.475,38.313 23.061,37.727C23.646,37.141 23.646,36.192 23.061,35.606L20.939,37.727ZM16.5,31.167L17.561,30.106C17.279,29.825 16.898,29.667 16.5,29.667L16.5,31.167ZM27.5,31.167L27.5,29.667C27.102,29.667 26.721,29.825 26.439,30.106L27.5,31.167ZM20.939,35.606C20.354,36.192 20.354,37.141 20.939,37.727C21.525,38.313 22.475,38.313 23.061,37.727L20.939,35.606ZM23.061,35.606L17.561,30.106L15.439,32.227L20.939,37.727L23.061,35.606ZM16.5,29.667L12.833,29.667L12.833,32.667L16.5,32.667L16.5,29.667ZM12.833,29.667C10.624,29.667 8.833,27.876 8.833,25.667L5.833,25.667C5.833,29.533 8.967,32.667 12.833,32.667L12.833,29.667ZM8.833,25.667L8.833,14.667L5.833,14.667L5.833,25.667L8.833,25.667ZM8.833,14.667C8.833,12.458 10.624,10.667 12.833,10.667L12.833,7.667C8.967,7.667 5.833,10.801 5.833,14.667L8.833,14.667ZM12.833,10.667L31.167,10.667L31.167,7.667L12.833,7.667L12.833,10.667ZM31.167,10.667C33.376,10.667 35.167,12.458 35.167,14.667L38.167,14.667C38.167,10.801 35.033,7.667 31.167,7.667L31.167,10.667ZM35.167,14.667L35.167,25.667L38.167,25.667L38.167,14.667L35.167,14.667ZM35.167,25.667C35.167,27.876 33.376,29.667 31.167,29.667L31.167,32.667C35.033,32.667 38.167,29.533 38.167,25.667L35.167,25.667ZM31.167,29.667L27.5,29.667L27.5,32.667L31.167,32.667L31.167,29.667ZM26.439,30.106L20.939,35.606L23.061,37.727L28.561,32.227L26.439,30.106Z" fill="#A5A5A5"/>
<path d="M20.939,37.727C21.525,38.313 22.475,38.313 23.061,37.727C23.646,37.141 23.646,36.192 23.061,35.606L20.939,37.727ZM16.5,31.167L17.561,30.106C17.279,29.825 16.898,29.667 16.5,29.667L16.5,31.167ZM27.5,31.167L27.5,29.667C27.102,29.667 26.721,29.825 26.439,30.106L27.5,31.167ZM20.939,35.606C20.354,36.192 20.354,37.141 20.939,37.727C21.525,38.313 22.475,38.313 23.061,37.727L20.939,35.606ZM23.061,35.606L17.561,30.106L15.439,32.227L20.939,37.727L23.061,35.606ZM16.5,29.667L12.833,29.667L12.833,32.667L16.5,32.667L16.5,29.667ZM12.833,29.667C10.624,29.667 8.833,27.876 8.833,25.667L5.833,25.667C5.833,29.533 8.967,32.667 12.833,32.667L12.833,29.667ZM8.833,25.667L8.833,14.667L5.833,14.667L5.833,25.667L8.833,25.667ZM8.833,14.667C8.833,12.458 10.624,10.667 12.833,10.667L12.833,7.667C8.967,7.667 5.833,10.801 5.833,14.667L8.833,14.667ZM12.833,10.667L31.167,10.667L31.167,7.667L12.833,7.667L12.833,10.667ZM31.167,10.667C33.376,10.667 35.167,12.458 35.167,14.667L38.167,14.667C38.167,10.801 35.033,7.667 31.167,7.667L31.167,10.667ZM35.167,14.667L35.167,25.667L38.167,25.667L38.167,14.667L35.167,14.667ZM35.167,25.667C35.167,27.876 33.376,29.667 31.167,29.667L31.167,32.667C35.033,32.667 38.167,29.533 38.167,25.667L35.167,25.667ZM31.167,29.667L27.5,29.667L27.5,32.667L31.167,32.667L31.167,29.667ZM26.439,30.106L20.939,35.606L23.061,37.727L28.561,32.227L26.439,30.106Z" fill="#A5A5A5" fill-opacity="0.2"/>
<path d="M14.667,15C13.838,15 13.167,15.672 13.167,16.5C13.167,17.328 13.838,18 14.667,18L14.667,15ZM29.333,18C30.162,18 30.833,17.328 30.833,16.5C30.833,15.672 30.162,15 29.333,15L29.333,18ZM14.667,18L29.333,18L29.333,15L14.667,15L14.667,18Z" fill="#A5A5A5"/>
<path d="M14.667,15C13.838,15 13.167,15.672 13.167,16.5C13.167,17.328 13.838,18 14.667,18L14.667,15ZM29.333,18C30.162,18 30.833,17.328 30.833,16.5C30.833,15.672 30.162,15 29.333,15L29.333,18ZM14.667,18L29.333,18L29.333,15L14.667,15L14.667,18Z" fill="#A5A5A5" fill-opacity="0.2"/>
<path d="M14.667,22.333C13.838,22.333 13.167,23.005 13.167,23.833C13.167,24.662 13.838,25.333 14.667,25.333L14.667,22.333ZM25.667,25.333C26.495,25.333 27.167,24.662 27.167,23.833C27.167,23.005 26.495,22.333 25.667,22.333L25.667,25.333ZM14.667,25.333L25.667,25.333L25.667,22.333L14.667,22.333L14.667,25.333Z" fill="#A5A5A5"/>
<path d="M14.667,22.333C13.838,22.333 13.167,23.005 13.167,23.833C13.167,24.662 13.838,25.333 14.667,25.333L14.667,22.333ZM25.667,25.333C26.495,25.333 27.167,24.662 27.167,23.833C27.167,23.005 26.495,22.333 25.667,22.333L25.667,25.333ZM14.667,25.333L25.667,25.333L25.667,22.333L14.667,22.333L14.667,25.333Z" fill="#A5A5A5" fill-opacity="0.2"/>
</svg>
