<svg width="44" height="44" viewBox="0 0 44 44" fill="none" xmlns="http://www.w3.org/2000/svg" xmlns:xlink="http://www.w3.org/1999/xlink">
<path d="M5.833,38.5C5.833,39.328 6.505,40 7.333,40C8.162,40 8.833,39.328 8.833,38.5L5.833,38.5ZM14.667,31.167L14.667,29.667C14.269,29.667 13.887,29.825 13.606,30.106L14.667,31.167ZM6.273,37.439C5.687,38.025 5.687,38.975 6.273,39.561C6.858,40.146 7.808,40.146 8.394,39.561L6.273,37.439ZM8.833,38.5L8.833,14.667L5.833,14.667L5.833,38.5L8.833,38.5ZM8.833,14.667C8.833,12.458 10.624,10.667 12.833,10.667L12.833,7.667C8.967,7.667 5.833,10.801 5.833,14.667L8.833,14.667ZM12.833,10.667L31.167,10.667L31.167,7.667L12.833,7.667L12.833,10.667ZM31.167,10.667C33.376,10.667 35.167,12.458 35.167,14.667L38.167,14.667C38.167,10.801 35.033,7.667 31.167,7.667L31.167,10.667ZM35.167,14.667L35.167,25.667L38.167,25.667L38.167,14.667L35.167,14.667ZM35.167,25.667C35.167,27.876 33.376,29.667 31.167,29.667L31.167,32.667C35.033,32.667 38.167,29.533 38.167,25.667L35.167,25.667ZM31.167,29.667L14.667,29.667L14.667,32.667L31.167,32.667L31.167,29.667ZM13.606,30.106L6.273,37.439L8.394,39.561L15.727,32.227L13.606,30.106Z" fill="#A5A5A5"/>
<path d="M5.833,38.5C5.833,39.328 6.505,40 7.333,40C8.162,40 8.833,39.328 8.833,38.5L5.833,38.5ZM14.667,31.167L14.667,29.667C14.269,29.667 13.887,29.825 13.606,30.106L14.667,31.167ZM6.273,37.439C5.687,38.025 5.687,38.975 6.273,39.561C6.858,40.146 7.808,40.146 8.394,39.561L6.273,37.439ZM8.833,38.5L8.833,14.667L5.833,14.667L5.833,38.5L8.833,38.5ZM8.833,14.667C8.833,12.458 10.624,10.667 12.833,10.667L12.833,7.667C8.967,7.667 5.833,10.801 5.833,14.667L8.833,14.667ZM12.833,10.667L31.167,10.667L31.167,7.667L12.833,7.667L12.833,10.667ZM31.167,10.667C33.376,10.667 35.167,12.458 35.167,14.667L38.167,14.667C38.167,10.801 35.033,7.667 31.167,7.667L31.167,10.667ZM35.167,14.667L35.167,25.667L38.167,25.667L38.167,14.667L35.167,14.667ZM35.167,25.667C35.167,27.876 33.376,29.667 31.167,29.667L31.167,32.667C35.033,32.667 38.167,29.533 38.167,25.667L35.167,25.667ZM31.167,29.667L14.667,29.667L14.667,32.667L31.167,32.667L31.167,29.667ZM13.606,30.106L6.273,37.439L8.394,39.561L15.727,32.227L13.606,30.106Z" fill="#A5A5A5" fill-opacity="0.2"/>
<path d="M14.667,15C13.838,15 13.167,15.672 13.167,16.5C13.167,17.328 13.838,18 14.667,18L14.667,15ZM29.333,18C30.162,18 30.833,17.328 30.833,16.5C30.833,15.672 30.162,15 29.333,15L29.333,18ZM14.667,18L29.333,18L29.333,15L14.667,15L14.667,18Z" fill="#A5A5A5"/>
<path d="M14.667,15C13.838,15 13.167,15.672 13.167,16.5C13.167,17.328 13.838,18 14.667,18L14.667,15ZM29.333,18C30.162,18 30.833,17.328 30.833,16.5C30.833,15.672 30.162,15 29.333,15L29.333,18ZM14.667,18L29.333,18L29.333,15L14.667,15L14.667,18Z" fill="#A5A5A5" fill-opacity="0.2"/>
<path d="M14.667,22.333C13.838,22.333 13.167,23.005 13.167,23.833C13.167,24.662 13.838,25.333 14.667,25.333L14.667,22.333ZM25.667,25.333C26.495,25.333 27.167,24.662 27.167,23.833C27.167,23.005 26.495,22.333 25.667,22.333L25.667,25.333ZM14.667,25.333L25.667,25.333L25.667,22.333L14.667,22.333L14.667,25.333Z" fill="#A5A5A5"/>
<path d="M14.667,22.333C13.838,22.333 13.167,23.005 13.167,23.833C13.167,24.662 13.838,25.333 14.667,25.333L14.667,22.333ZM25.667,25.333C26.495,25.333 27.167,24.662 27.167,23.833C27.167,23.005 26.495,22.333 25.667,22.333L25.667,25.333ZM14.667,25.333L25.667,25.333L25.667,22.333L14.667,22.333L14.667,25.333Z" fill="#A5A5A5" fill-opacity="0.2"/>
</svg>
