<svg width="44" height="44" viewBox="0 0 44 44" fill="none" xmlns="http://www.w3.org/2000/svg" xmlns:xlink="http://www.w3.org/1999/xlink">
<rect  x="14.75" y="1.917" width="11" height="20.167" rx="6" stroke="#A5A5A5" stroke-width="1.75" stroke-miterlimit="3.999327" stroke-linecap="round" stroke-linejoin="round"/>
<rect  x="14.75" y="1.917" width="11" height="20.167" rx="6" stroke="#A5A5A5" stroke-opacity="0.2" stroke-width="1.75" stroke-miterlimit="3.999327" stroke-linecap="round" stroke-linejoin="round"/>
<path d="M10.917,18.333C10.917,17.367 10.133,16.583 9.167,16.583C8.2,16.583 7.417,17.367 7.417,18.333L10.917,18.333ZM36.583,18.333C36.583,17.367 35.8,16.583 34.833,16.583C33.867,16.583 33.083,17.367 33.083,18.333L36.583,18.333ZM7.417,18.333C7.417,26.388 13.946,32.917 22,32.917L22,29.417C15.879,29.417 10.917,24.455 10.917,18.333L7.417,18.333ZM22,32.917C30.054,32.917 36.583,26.388 36.583,18.333L33.083,18.333C33.083,24.455 28.121,29.417 22,29.417L22,32.917Z" fill="#A5A5A5"/>
<path d="M10.917,18.333C10.917,17.367 10.133,16.583 9.167,16.583C8.2,16.583 7.417,17.367 7.417,18.333L10.917,18.333ZM36.583,18.333C36.583,17.367 35.8,16.583 34.833,16.583C33.867,16.583 33.083,17.367 33.083,18.333L36.583,18.333ZM7.417,18.333C7.417,26.388 13.946,32.917 22,32.917L22,29.417C15.879,29.417 10.917,24.455 10.917,18.333L7.417,18.333ZM22,32.917C30.054,32.917 36.583,26.388 36.583,18.333L33.083,18.333C33.083,24.455 28.121,29.417 22,29.417L22,32.917Z" fill="#A5A5A5" fill-opacity="0.2"/>
<path d="M14.667,36.75C13.7,36.75 12.917,37.534 12.917,38.5C12.917,39.467 13.7,40.25 14.667,40.25L14.667,36.75ZM29.333,40.25C30.3,40.25 31.083,39.467 31.083,38.5C31.083,37.534 30.3,36.75 29.333,36.75L29.333,40.25ZM14.667,40.25L29.333,40.25L29.333,36.75L14.667,36.75L14.667,40.25Z" fill="#A5A5A5"/>
<path d="M14.667,36.75C13.7,36.75 12.917,37.534 12.917,38.5C12.917,39.467 13.7,40.25 14.667,40.25L14.667,36.75ZM29.333,40.25C30.3,40.25 31.083,39.467 31.083,38.5C31.083,37.534 30.3,36.75 29.333,36.75L29.333,40.25ZM14.667,40.25L29.333,40.25L29.333,36.75L14.667,36.75L14.667,40.25Z" fill="#A5A5A5" fill-opacity="0.2"/>
<path d="M23.75,31.167C23.75,30.2 22.966,29.417 22,29.417C21.033,29.417 20.25,30.2 20.25,31.167L23.75,31.167ZM20.25,38.5C20.25,39.466 21.033,40.25 22,40.25C22.966,40.25 23.75,39.466 23.75,38.5L20.25,38.5ZM20.25,31.167L20.25,38.5L23.75,38.5L23.75,31.167L20.25,31.167Z" fill="#A5A5A5"/>
<path d="M23.75,31.167C23.75,30.2 22.966,29.417 22,29.417C21.033,29.417 20.25,30.2 20.25,31.167L23.75,31.167ZM20.25,38.5C20.25,39.466 21.033,40.25 22,40.25C22.966,40.25 23.75,39.466 23.75,38.5L20.25,38.5ZM20.25,31.167L20.25,38.5L23.75,38.5L23.75,31.167L20.25,31.167Z" fill="#A5A5A5" fill-opacity="0.2"/>
</svg>
