<svg width="44" height="44" viewBox="0 0 44 44" fill="none" xmlns="http://www.w3.org/2000/svg" xmlns:xlink="http://www.w3.org/1999/xlink">
<path d="M27.803,22.18C26.991,22.015 26.199,22.539 26.034,23.351C25.869,24.163 26.393,24.955 27.205,25.12L27.803,22.18ZM18.88,16.8C19.046,17.612 19.838,18.135 20.65,17.97C21.462,17.804 21.985,17.012 21.82,16.2L18.88,16.8ZM27.205,25.12C31.818,26.058 36.501,23.862 38.728,19.715L36.086,18.295C34.484,21.276 31.119,22.855 27.803,22.18L27.205,25.12ZM38.728,19.715C40.956,15.568 40.202,10.451 36.872,7.123L34.751,9.245C37.145,11.637 37.687,15.315 36.086,18.295L38.728,19.715ZM36.872,7.123C33.543,3.795 28.425,3.043 24.279,5.273L25.7,7.915C28.68,6.313 32.358,6.853 34.751,9.245L36.872,7.123ZM24.279,5.273C20.133,7.503 17.939,12.187 18.88,16.8L21.82,16.2C21.143,12.885 22.72,9.518 25.7,7.915L24.279,5.273Z" fill="#A5A5A5"/>
<path d="M27.803,22.18C26.991,22.015 26.199,22.539 26.034,23.351C25.869,24.163 26.393,24.955 27.205,25.12L27.803,22.18ZM18.88,16.8C19.046,17.612 19.838,18.135 20.65,17.97C21.462,17.804 21.985,17.012 21.82,16.2L18.88,16.8ZM27.205,25.12C31.818,26.058 36.501,23.862 38.728,19.715L36.086,18.295C34.484,21.276 31.119,22.855 27.803,22.18L27.205,25.12ZM38.728,19.715C40.956,15.568 40.202,10.451 36.872,7.123L34.751,9.245C37.145,11.637 37.687,15.315 36.086,18.295L38.728,19.715ZM36.872,7.123C33.543,3.795 28.425,3.043 24.279,5.273L25.7,7.915C28.68,6.313 32.358,6.853 34.751,9.245L36.872,7.123ZM24.279,5.273C20.133,7.503 17.939,12.187 18.88,16.8L21.82,16.2C21.143,12.885 22.72,9.518 25.7,7.915L24.279,5.273Z" fill="#A5A5A5" fill-opacity="0.2"/>
<path d="M20.35,16.502L21.41,15.441C21.117,15.147 20.715,14.989 20.3,15.003C19.885,15.017 19.495,15.202 19.221,15.514L20.35,16.502ZM6.576,32.239L7.636,33.3C7.66,33.277 7.683,33.252 7.705,33.227L6.576,32.239ZM11.759,37.427L10.771,36.299C10.747,36.32 10.722,36.343 10.699,36.366L11.759,37.427ZM28.564,22.589L21.41,15.441L19.29,17.563L26.443,24.711L28.564,22.589ZM19.221,15.514L5.448,31.251L7.705,33.227L21.479,17.49L19.221,15.514ZM5.516,31.178C4.21,32.483 3.7,34.385 4.176,36.168L7.075,35.393C6.875,34.645 7.089,33.847 7.636,33.3L5.516,31.178ZM4.176,36.168C4.653,37.951 6.045,39.345 7.828,39.823L8.606,36.926C7.858,36.725 7.274,36.141 7.075,35.393L4.176,36.168ZM7.828,39.823C9.611,40.302 11.513,39.793 12.819,38.489L10.699,36.366C10.151,36.913 9.353,37.127 8.606,36.926L7.828,39.823ZM12.747,38.556L28.492,24.779L26.516,22.521L10.771,36.299L12.747,38.556Z" fill="#A5A5A5"/>
<path d="M20.35,16.502L21.41,15.441C21.117,15.147 20.715,14.989 20.3,15.003C19.885,15.017 19.495,15.202 19.221,15.514L20.35,16.502ZM6.576,32.239L7.636,33.3C7.66,33.277 7.683,33.252 7.705,33.227L6.576,32.239ZM11.759,37.427L10.771,36.299C10.747,36.32 10.722,36.343 10.699,36.366L11.759,37.427ZM28.564,22.589L21.41,15.441L19.29,17.563L26.443,24.711L28.564,22.589ZM19.221,15.514L5.448,31.251L7.705,33.227L21.479,17.49L19.221,15.514ZM5.516,31.178C4.21,32.483 3.7,34.385 4.176,36.168L7.075,35.393C6.875,34.645 7.089,33.847 7.636,33.3L5.516,31.178ZM4.176,36.168C4.653,37.951 6.045,39.345 7.828,39.823L8.606,36.926C7.858,36.725 7.274,36.141 7.075,35.393L4.176,36.168ZM7.828,39.823C9.611,40.302 11.513,39.793 12.819,38.489L10.699,36.366C10.151,36.913 9.353,37.127 8.606,36.926L7.828,39.823ZM12.747,38.556L28.492,24.779L26.516,22.521L10.771,36.299L12.747,38.556Z" fill="#A5A5A5" fill-opacity="0.2"/>
</svg>
