<svg width="44" height="44" viewBox="0 0 44 44" fill="none" xmlns="http://www.w3.org/2000/svg" xmlns:xlink="http://www.w3.org/1999/xlink">
<rect  x="7.667" y="4" width="25.667" height="33" rx="4" stroke="#A5A5A5" stroke-width="1.5" stroke-miterlimit="3.999327" stroke-linecap="round" stroke-linejoin="round"/>
<rect  x="7.667" y="4" width="25.667" height="33" rx="4" stroke="#A5A5A5" stroke-opacity="0.2" stroke-width="1.5" stroke-miterlimit="3.999327" stroke-linecap="round" stroke-linejoin="round"/>
<path d="M16.5,11.333C15.672,11.333 15,12.005 15,12.833C15,13.662 15.672,14.333 16.5,14.333L16.5,11.333ZM27.5,14.333C28.328,14.333 29,13.662 29,12.833C29,12.005 28.328,11.333 27.5,11.333L27.5,14.333ZM16.5,14.333L27.5,14.333L27.5,11.333L16.5,11.333L16.5,14.333Z" fill="#A5A5A5"/>
<path d="M16.5,11.333C15.672,11.333 15,12.005 15,12.833C15,13.662 15.672,14.333 16.5,14.333L16.5,11.333ZM27.5,14.333C28.328,14.333 29,13.662 29,12.833C29,12.005 28.328,11.333 27.5,11.333L27.5,14.333ZM16.5,14.333L27.5,14.333L27.5,11.333L16.5,11.333L16.5,14.333Z" fill="#A5A5A5" fill-opacity="0.2"/>
<path d="M16.5,18.667C15.672,18.667 15,19.338 15,20.167C15,20.995 15.672,21.667 16.5,21.667L16.5,18.667ZM27.5,21.667C28.328,21.667 29,20.995 29,20.167C29,19.338 28.328,18.667 27.5,18.667L27.5,21.667ZM16.5,21.667L27.5,21.667L27.5,18.667L16.5,18.667L16.5,21.667Z" fill="#A5A5A5"/>
<path d="M16.5,18.667C15.672,18.667 15,19.338 15,20.167C15,20.995 15.672,21.667 16.5,21.667L16.5,18.667ZM27.5,21.667C28.328,21.667 29,20.995 29,20.167C29,19.338 28.328,18.667 27.5,18.667L27.5,21.667ZM16.5,21.667L27.5,21.667L27.5,18.667L16.5,18.667L16.5,21.667Z" fill="#A5A5A5" fill-opacity="0.2"/>
<path d="M16.5,26C15.672,26 15,26.672 15,27.5C15,28.328 15.672,29 16.5,29L16.5,26ZM23.833,29C24.662,29 25.333,28.328 25.333,27.5C25.333,26.672 24.662,26 23.833,26L23.833,29ZM16.5,29L23.833,29L23.833,26L16.5,26L16.5,29Z" fill="#A5A5A5"/>
<path d="M16.5,26C15.672,26 15,26.672 15,27.5C15,28.328 15.672,29 16.5,29L16.5,26ZM23.833,29C24.662,29 25.333,28.328 25.333,27.5C25.333,26.672 24.662,26 23.833,26L23.833,29ZM16.5,29L23.833,29L23.833,26L16.5,26L16.5,29Z" fill="#A5A5A5" fill-opacity="0.2"/>
</svg>
