<svg width="34" height="38" viewBox="0 0 34 38" fill="none" xmlns="http://www.w3.org/2000/svg" xmlns:xlink="http://www.w3.org/1999/xlink">
<path d="M31.129,22.008C30.611,21.493 30.2,20.88 29.921,20.205C29.641,19.53 29.498,18.806 29.5,18.075L29.5,13.5C29.5,9.92 28.078,6.486 25.546,3.954C23.014,1.422 19.581,0 16,0C12.42,0 8.986,1.422 6.454,3.954C3.922,6.486 2.5,9.92 2.5,13.5L2.5,18.075C2.502,18.806 2.359,19.53 2.079,20.205C1.8,20.88 1.389,21.493 0.871,22.008C0.216,22.663 -0.23,23.497 -0.41,24.405C-0.591,25.313 -0.498,26.255 -0.144,27.11C0.21,27.966 0.811,28.697 1.581,29.211C2.35,29.726 3.256,30 4.182,30L8.65,30C8.994,31.695 9.914,33.22 11.254,34.315C12.593,35.409 14.27,36.008 16,36.008C17.73,36.008 19.407,35.409 20.747,34.315C22.086,33.22 23.006,31.695 23.35,30L27.82,30C28.746,30 29.651,29.726 30.421,29.211C31.191,28.697 31.791,27.966 32.146,27.11C32.5,26.255 32.593,25.313 32.412,24.405C32.231,23.497 31.784,22.663 31.129,22.008ZM16,33C15.073,32.996 14.169,32.706 13.413,32.169C12.657,31.632 12.085,30.874 11.776,30L20.224,30C19.915,30.874 19.343,31.632 18.587,32.169C17.831,32.706 16.928,32.996 16,33ZM27.819,27L4.182,27C3.849,27 3.524,26.902 3.247,26.717C2.97,26.532 2.755,26.269 2.627,25.962C2.5,25.655 2.467,25.316 2.531,24.99C2.596,24.664 2.757,24.364 2.992,24.129C3.79,23.336 4.422,22.392 4.852,21.353C5.283,20.314 5.503,19.2 5.5,18.075L5.5,13.5C5.5,10.715 6.606,8.045 8.575,6.075C10.545,4.106 13.215,3 16,3C18.785,3 21.456,4.106 23.425,6.075C25.394,8.045 26.5,10.715 26.5,13.5L26.5,18.075C26.497,19.2 26.717,20.314 27.148,21.353C27.578,22.392 28.211,23.336 29.008,24.129C29.244,24.364 29.404,24.664 29.469,24.99C29.534,25.316 29.5,25.655 29.373,25.962C29.246,26.269 29.03,26.532 28.753,26.717C28.477,26.902 28.151,27 27.819,27Z" fill="#13101C"/>
</svg>
