<svg width="44" height="44" viewBox="0 0 44 44" fill="none" xmlns="http://www.w3.org/2000/svg" xmlns:xlink="http://www.w3.org/1999/xlink">
<path d="M27.167,5.5C27.167,4.672 26.495,4 25.667,4C24.838,4 24.167,4.672 24.167,5.5L27.167,5.5ZM34.833,16.167C35.662,16.167 36.333,15.495 36.333,14.667C36.333,13.838 35.662,13.167 34.833,13.167L34.833,16.167ZM24.167,5.5L24.167,12.833L27.167,12.833L27.167,5.5L24.167,5.5ZM24.167,12.833C24.167,14.674 25.659,16.167 27.5,16.167L27.5,13.167C27.316,13.167 27.167,13.017 27.167,12.833L24.167,12.833ZM27.5,16.167L34.833,16.167L34.833,13.167L27.5,13.167L27.5,16.167Z" fill="#A5A5A5"/>
<path d="M27.167,5.5C27.167,4.672 26.495,4 25.667,4C24.838,4 24.167,4.672 24.167,5.5L27.167,5.5ZM34.833,16.167C35.662,16.167 36.333,15.495 36.333,14.667C36.333,13.838 35.662,13.167 34.833,13.167L34.833,16.167ZM24.167,5.5L24.167,12.833L27.167,12.833L27.167,5.5L24.167,5.5ZM24.167,12.833C24.167,14.674 25.659,16.167 27.5,16.167L27.5,13.167C27.316,13.167 27.167,13.017 27.167,12.833L24.167,12.833ZM27.5,16.167L34.833,16.167L34.833,13.167L27.5,13.167L27.5,16.167Z" fill="#A5A5A5" fill-opacity="0.2"/>
<path d="M36.333,33C36.333,32.172 35.662,31.5 34.833,31.5C34.005,31.5 33.333,32.172 33.333,33L36.333,33ZM10.667,33C10.667,32.172 9.995,31.5 9.167,31.5C8.338,31.5 7.667,32.172 7.667,33L10.667,33ZM33.333,33L33.333,34.833L36.333,34.833L36.333,33L33.333,33ZM33.333,34.833C33.333,36.03 32.363,37 31.167,37L31.167,40C34.02,40 36.333,37.687 36.333,34.833L33.333,34.833ZM31.167,37L12.833,37L12.833,40L31.167,40L31.167,37ZM12.833,37C11.637,37 10.667,36.03 10.667,34.833L7.667,34.833C7.667,37.687 9.98,40 12.833,40L12.833,37ZM10.667,34.833L10.667,33L7.667,33L7.667,34.833L10.667,34.833Z" fill="#A5A5A5"/>
<path d="M36.333,33C36.333,32.172 35.662,31.5 34.833,31.5C34.005,31.5 33.333,32.172 33.333,33L36.333,33ZM10.667,33C10.667,32.172 9.995,31.5 9.167,31.5C8.338,31.5 7.667,32.172 7.667,33L10.667,33ZM33.333,33L33.333,34.833L36.333,34.833L36.333,33L33.333,33ZM33.333,34.833C33.333,36.03 32.363,37 31.167,37L31.167,40C34.02,40 36.333,37.687 36.333,34.833L33.333,34.833ZM31.167,37L12.833,37L12.833,40L31.167,40L31.167,37ZM12.833,37C11.637,37 10.667,36.03 10.667,34.833L7.667,34.833C7.667,37.687 9.98,40 12.833,40L12.833,37ZM10.667,34.833L10.667,33L7.667,33L7.667,34.833L10.667,34.833Z" fill="#A5A5A5" fill-opacity="0.2"/>
<path d="M5.5,24.167C4.672,24.167 4,24.838 4,25.667C4,26.495 4.672,27.167 5.5,27.167L5.5,24.167ZM11,27.167C11.828,27.167 12.5,26.495 12.5,25.667C12.5,24.838 11.828,24.167 11,24.167L11,27.167ZM19.25,24.167C18.422,24.167 17.75,24.838 17.75,25.667C17.75,26.495 18.422,27.167 19.25,27.167L19.25,24.167ZM24.75,27.167C25.578,27.167 26.25,26.495 26.25,25.667C26.25,24.838 25.578,24.167 24.75,24.167L24.75,27.167ZM33,24.167C32.172,24.167 31.5,24.838 31.5,25.667C31.5,26.495 32.172,27.167 33,27.167L33,24.167ZM38.5,27.167C39.328,27.167 40,26.495 40,25.667C40,24.838 39.328,24.167 38.5,24.167L38.5,27.167ZM5.5,27.167L11,27.167L11,24.167L5.5,24.167L5.5,27.167ZM19.25,27.167L24.75,27.167L24.75,24.167L19.25,24.167L19.25,27.167ZM33,27.167L38.5,27.167L38.5,24.167L33,24.167L33,27.167Z" fill="#A5A5A5"/>
<path d="M5.5,24.167C4.672,24.167 4,24.838 4,25.667C4,26.495 4.672,27.167 5.5,27.167L5.5,24.167ZM11,27.167C11.828,27.167 12.5,26.495 12.5,25.667C12.5,24.838 11.828,24.167 11,24.167L11,27.167ZM19.25,24.167C18.422,24.167 17.75,24.838 17.75,25.667C17.75,26.495 18.422,27.167 19.25,27.167L19.25,24.167ZM24.75,27.167C25.578,27.167 26.25,26.495 26.25,25.667C26.25,24.838 25.578,24.167 24.75,24.167L24.75,27.167ZM33,24.167C32.172,24.167 31.5,24.838 31.5,25.667C31.5,26.495 32.172,27.167 33,27.167L33,24.167ZM38.5,27.167C39.328,27.167 40,26.495 40,25.667C40,24.838 39.328,24.167 38.5,24.167L38.5,27.167ZM5.5,27.167L11,27.167L11,24.167L5.5,24.167L5.5,27.167ZM19.25,27.167L24.75,27.167L24.75,24.167L19.25,24.167L19.25,27.167ZM33,27.167L38.5,27.167L38.5,24.167L33,24.167L33,27.167Z" fill="#A5A5A5" fill-opacity="0.2"/>
<path d="M7.667,18.333C7.667,19.162 8.338,19.833 9.167,19.833C9.995,19.833 10.667,19.162 10.667,18.333L7.667,18.333ZM25.667,5.5L26.727,4.439C26.446,4.158 26.064,4 25.667,4L25.667,5.5ZM34.833,14.667L36.333,14.667C36.333,14.269 36.175,13.887 35.894,13.606L34.833,14.667ZM33.333,18.333C33.333,19.162 34.005,19.833 34.833,19.833C35.662,19.833 36.333,19.162 36.333,18.333L33.333,18.333ZM10.667,18.333L10.667,9.167L7.667,9.167L7.667,18.333L10.667,18.333ZM10.667,9.167C10.667,7.97 11.637,7 12.833,7L12.833,4C9.98,4 7.667,6.313 7.667,9.167L10.667,9.167ZM12.833,7L25.667,7L25.667,4L12.833,4L12.833,7ZM24.606,6.561L33.773,15.727L35.894,13.606L26.727,4.439L24.606,6.561ZM33.333,14.667L33.333,18.333L36.333,18.333L36.333,14.667L33.333,14.667Z" fill="#A5A5A5"/>
<path d="M7.667,18.333C7.667,19.162 8.338,19.833 9.167,19.833C9.995,19.833 10.667,19.162 10.667,18.333L7.667,18.333ZM25.667,5.5L26.727,4.439C26.446,4.158 26.064,4 25.667,4L25.667,5.5ZM34.833,14.667L36.333,14.667C36.333,14.269 36.175,13.887 35.894,13.606L34.833,14.667ZM33.333,18.333C33.333,19.162 34.005,19.833 34.833,19.833C35.662,19.833 36.333,19.162 36.333,18.333L33.333,18.333ZM10.667,18.333L10.667,9.167L7.667,9.167L7.667,18.333L10.667,18.333ZM10.667,9.167C10.667,7.97 11.637,7 12.833,7L12.833,4C9.98,4 7.667,6.313 7.667,9.167L10.667,9.167ZM12.833,7L25.667,7L25.667,4L12.833,4L12.833,7ZM24.606,6.561L33.773,15.727L35.894,13.606L26.727,4.439L24.606,6.561ZM33.333,14.667L33.333,18.333L36.333,18.333L36.333,14.667L33.333,14.667Z" fill="#A5A5A5" fill-opacity="0.2"/>
</svg>
