<svg width="4" height="4" viewBox="0 0 4 4" fill="none" xmlns="http://www.w3.org/2000/svg" xmlns:xlink="http://www.w3.org/1999/xlink">
<path d="M2.65,0.868C2.65,0.04 1.978,-0.632 1.15,-0.632C0.322,-0.632 -0.35,0.04 -0.35,0.868L2.65,0.868ZM-0.35,0.887C-0.35,1.715 0.322,2.387 1.15,2.387C1.978,2.387 2.65,1.715 2.65,0.887L-0.35,0.887ZM-0.35,0.868L-0.35,0.887L2.65,0.887L2.65,0.868L-0.35,0.868Z" fill="#A5A5A5"/>
<path d="M2.65,0.868C2.65,0.04 1.978,-0.632 1.15,-0.632C0.322,-0.632 -0.35,0.04 -0.35,0.868L2.65,0.868ZM-0.35,0.887C-0.35,1.715 0.322,2.387 1.15,2.387C1.978,2.387 2.65,1.715 2.65,0.887L-0.35,0.887ZM-0.35,0.868L-0.35,0.887L2.65,0.887L2.65,0.868L-0.35,0.868Z" fill="#A5A5A5" fill-opacity="0.2"/>
</svg>
