<svg width="26" height="14" viewBox="0 0 26 14" fill="none" xmlns="http://www.w3.org/2000/svg" xmlns:xlink="http://www.w3.org/1999/xlink">
<path d="M0,12.5C0,13.328 0.672,14 1.5,14C2.328,14 3,13.328 3,12.5L0,12.5ZM22,12.5C22,13.328 22.672,14 23.5,14C24.328,14 25,13.328 25,12.5L22,12.5ZM3,12.5L3,8.833L0,8.833L0,12.5L3,12.5ZM3,8.833C3,5.612 5.612,3 8.833,3L8.833,0C3.955,0 0,3.955 0,8.833L3,8.833ZM8.833,3L16.167,3L16.167,0L8.833,0L8.833,3ZM16.167,3C19.388,3 22,5.612 22,8.833L25,8.833C25,3.955 21.045,0 16.167,0L16.167,3ZM22,8.833L22,12.5L25,12.5L25,8.833L22,8.833Z" fill="#A5A5A5"/>
<path d="M0,12.5C0,13.328 0.672,14 1.5,14C2.328,14 3,13.328 3,12.5L0,12.5ZM22,12.5C22,13.328 22.672,14 23.5,14C24.328,14 25,13.328 25,12.5L22,12.5ZM3,12.5L3,8.833L0,8.833L0,12.5L3,12.5ZM3,8.833C3,5.612 5.612,3 8.833,3L8.833,0C3.955,0 0,3.955 0,8.833L3,8.833ZM8.833,3L16.167,3L16.167,0L8.833,0L8.833,3ZM16.167,3C19.388,3 22,5.612 22,8.833L25,8.833C25,3.955 21.045,0 16.167,0L16.167,3ZM22,8.833L22,12.5L25,12.5L25,8.833L22,8.833Z" fill="#A5A5A5" fill-opacity="0.2"/>
</svg>
