<svg width="4" height="4" viewBox="0 0 4 4" fill="none" xmlns="http://www.w3.org/2000/svg" xmlns:xlink="http://www.w3.org/1999/xlink">
<path d="M3.578,1.667C3.578,0.838 2.907,0.167 2.078,0.167C1.25,0.167 0.578,0.838 0.578,1.667L3.578,1.667ZM0.578,1.685C0.578,2.513 1.25,3.185 2.078,3.185C2.907,3.185 3.578,2.513 3.578,1.685L0.578,1.685ZM0.578,1.667L0.578,1.685L3.578,1.685L3.578,1.667L0.578,1.667Z" fill="#A5A5A5"/>
<path d="M3.578,1.667C3.578,0.838 2.907,0.167 2.078,0.167C1.25,0.167 0.578,0.838 0.578,1.667L3.578,1.667ZM0.578,1.685C0.578,2.513 1.25,3.185 2.078,3.185C2.907,3.185 3.578,2.513 3.578,1.685L0.578,1.685ZM0.578,1.667L0.578,1.685L3.578,1.685L3.578,1.667L0.578,1.667Z" fill="#A5A5A5" fill-opacity="0.2"/>
</svg>
