<svg width="12" height="18" viewBox="0 0 12 18" fill="none" xmlns="http://www.w3.org/2000/svg" xmlns:xlink="http://www.w3.org/1999/xlink">
<path d="M9.894,1.727C10.48,1.142 10.48,0.192 9.894,-0.394C9.308,-0.98 8.358,-0.98 7.773,-0.394L9.894,1.727ZM1.5,8L0.439,6.939C-0.146,7.525 -0.146,8.475 0.439,9.061L1.5,8ZM7.773,16.394C8.358,16.98 9.308,16.98 9.894,16.394C10.48,15.808 10.48,14.859 9.894,14.273L7.773,16.394ZM7.773,-0.394L0.439,6.939L2.561,9.061L9.894,1.727L7.773,-0.394ZM0.439,9.061L7.773,16.394L9.894,14.273L2.561,6.939L0.439,9.061Z" fill="#A5A5A5"/>
<path d="M9.894,1.727C10.48,1.142 10.48,0.192 9.894,-0.394C9.308,-0.98 8.358,-0.98 7.773,-0.394L9.894,1.727ZM1.5,8L0.439,6.939C-0.146,7.525 -0.146,8.475 0.439,9.061L1.5,8ZM7.773,16.394C8.358,16.98 9.308,16.98 9.894,16.394C10.48,15.808 10.48,14.859 9.894,14.273L7.773,16.394ZM7.773,-0.394L0.439,6.939L2.561,9.061L9.894,1.727L7.773,-0.394ZM0.439,9.061L7.773,16.394L9.894,14.273L2.561,6.939L0.439,9.061Z" fill="#A5A5A5" fill-opacity="0.2"/>
</svg>
