<svg width="10" height="18" viewBox="0 0 10 18" fill="none" xmlns="http://www.w3.org/2000/svg" xmlns:xlink="http://www.w3.org/1999/xlink">
<path d="M1.705,0.285C0.903,0.08 0.086,0.564 -0.12,1.366C-0.325,2.169 0.159,2.986 0.961,3.191L1.705,0.285ZM0.961,14.493C0.159,14.699 -0.325,15.516 -0.12,16.319C0.086,17.121 0.903,17.605 1.705,17.4L0.961,14.493ZM0.961,3.191C3.542,3.852 5.348,6.178 5.348,8.842L8.348,8.842C8.348,4.808 5.614,1.286 1.705,0.285L0.961,3.191ZM5.348,8.842C5.348,11.507 3.542,13.832 0.961,14.493L1.705,17.4C5.614,16.399 8.348,12.877 8.348,8.842L5.348,8.842Z" fill="#A5A5A5"/>
<path d="M1.705,0.285C0.903,0.08 0.086,0.564 -0.12,1.366C-0.325,2.169 0.159,2.986 0.961,3.191L1.705,0.285ZM0.961,14.493C0.159,14.699 -0.325,15.516 -0.12,16.319C0.086,17.121 0.903,17.605 1.705,17.4L0.961,14.493ZM0.961,3.191C3.542,3.852 5.348,6.178 5.348,8.842L8.348,8.842C8.348,4.808 5.614,1.286 1.705,0.285L0.961,3.191ZM5.348,8.842C5.348,11.507 3.542,13.832 0.961,14.493L1.705,17.4C5.614,16.399 8.348,12.877 8.348,8.842L5.348,8.842Z" fill="#A5A5A5" fill-opacity="0.2"/>
</svg>
