<svg width="10" height="18" viewBox="0 0 10 18" fill="none" xmlns="http://www.w3.org/2000/svg" xmlns:xlink="http://www.w3.org/1999/xlink">
<path d="M2.227,-0.394C1.642,-0.98 0.692,-0.98 0.106,-0.394C-0.48,0.192 -0.48,1.142 0.106,1.727L2.227,-0.394ZM8.5,8L9.561,9.061C10.146,8.475 10.146,7.525 9.561,6.939L8.5,8ZM0.106,14.273C-0.48,14.859 -0.48,15.808 0.106,16.394C0.692,16.98 1.642,16.98 2.227,16.394L0.106,14.273ZM0.106,1.727L7.439,9.061L9.561,6.939L2.227,-0.394L0.106,1.727ZM7.439,6.939L0.106,14.273L2.227,16.394L9.561,9.061L7.439,6.939Z" fill="#A5A5A5"/>
<path d="M2.227,-0.394C1.642,-0.98 0.692,-0.98 0.106,-0.394C-0.48,0.192 -0.48,1.142 0.106,1.727L2.227,-0.394ZM8.5,8L9.561,9.061C10.146,8.475 10.146,7.525 9.561,6.939L8.5,8ZM0.106,14.273C-0.48,14.859 -0.48,15.808 0.106,16.394C0.692,16.98 1.642,16.98 2.227,16.394L0.106,14.273ZM0.106,1.727L7.439,9.061L9.561,6.939L2.227,-0.394L0.106,1.727ZM7.439,6.939L0.106,14.273L2.227,16.394L9.561,9.061L7.439,6.939Z" fill="#A5A5A5" fill-opacity="0.2"/>
</svg>
