<svg width="12" height="34" viewBox="0 0 12 34" fill="none" xmlns="http://www.w3.org/2000/svg" xmlns:xlink="http://www.w3.org/1999/xlink">
<path d="M11.122,1.697C11.323,0.893 10.834,0.079 10.03,-0.122C9.227,-0.323 8.412,0.166 8.211,0.969L11.122,1.697ZM0.878,30.303C0.677,31.106 1.166,31.921 1.97,32.122C2.773,32.323 3.588,31.834 3.789,31.03L0.878,30.303ZM8.211,0.969L0.878,30.303L3.789,31.03L11.122,1.697L8.211,0.969Z" fill="#A5A5A5"/>
<path d="M11.122,1.697C11.323,0.893 10.834,0.079 10.03,-0.122C9.227,-0.323 8.412,0.166 8.211,0.969L11.122,1.697ZM0.878,30.303C0.677,31.106 1.166,31.921 1.97,32.122C2.773,32.323 3.588,31.834 3.789,31.03L0.878,30.303ZM8.211,0.969L0.878,30.303L3.789,31.03L11.122,1.697L8.211,0.969Z" fill="#A5A5A5" fill-opacity="0.2"/>
</svg>
