<svg width="14" height="22" viewBox="0 0 14 22" fill="none" xmlns="http://www.w3.org/2000/svg" xmlns:xlink="http://www.w3.org/1999/xlink">
<path d="M2.737,-0.237C2.054,-0.921 0.946,-0.921 0.263,-0.237C-0.421,0.446 -0.421,1.554 0.263,2.237L2.737,-0.237ZM10.5,10L11.737,11.237C12.421,10.554 12.421,9.446 11.737,8.763L10.5,10ZM0.263,17.763C-0.421,18.446 -0.421,19.554 0.263,20.237C0.946,20.921 2.054,20.921 2.737,20.237L0.263,17.763ZM0.263,2.237L9.263,11.237L11.737,8.763L2.737,-0.237L0.263,2.237ZM9.263,8.763L0.263,17.763L2.737,20.237L11.737,11.237L9.263,8.763Z" fill="#4B465C"/>
<path d="M2.737,-0.237C2.054,-0.921 0.946,-0.921 0.263,-0.237C-0.421,0.446 -0.421,1.554 0.263,2.237L2.737,-0.237ZM10.5,10L11.737,11.237C12.421,10.554 12.421,9.446 11.737,8.763L10.5,10ZM0.263,17.763C-0.421,18.446 -0.421,19.554 0.263,20.237C0.946,20.921 2.054,20.921 2.737,20.237L0.263,17.763ZM0.263,2.237L9.263,11.237L11.737,8.763L2.737,-0.237L0.263,2.237ZM9.263,8.763L0.263,17.763L2.737,20.237L11.737,11.237L9.263,8.763Z" fill="#FFFFFF" fill-opacity="0.5"/>
</svg>
