<svg width="4" height="4" viewBox="0 0 4 4" fill="none" xmlns="http://www.w3.org/2000/svg" xmlns:xlink="http://www.w3.org/1999/xlink">
<path d="M2.593,2.285C2.593,1.457 1.922,0.785 1.093,0.785C0.265,0.785 -0.407,1.457 -0.407,2.285L2.593,2.285ZM-0.407,2.303C-0.407,3.132 0.265,3.803 1.093,3.803C1.922,3.803 2.593,3.132 2.593,2.303L-0.407,2.303ZM-0.407,2.285L-0.407,2.303L2.593,2.303L2.593,2.285L-0.407,2.285Z" fill="#A5A5A5"/>
<path d="M2.593,2.285C2.593,1.457 1.922,0.785 1.093,0.785C0.265,0.785 -0.407,1.457 -0.407,2.285L2.593,2.285ZM-0.407,2.303C-0.407,3.132 0.265,3.803 1.093,3.803C1.922,3.803 2.593,3.132 2.593,2.303L-0.407,2.303ZM-0.407,2.285L-0.407,2.303L2.593,2.303L2.593,2.285L-0.407,2.285Z" fill="#A5A5A5" fill-opacity="0.2"/>
</svg>
