<svg width="4" height="4" viewBox="0 0 4 4" fill="none" xmlns="http://www.w3.org/2000/svg" xmlns:xlink="http://www.w3.org/1999/xlink">
<path d="M3.422,1.667C3.422,0.838 2.75,0.167 1.922,0.167C1.093,0.167 0.422,0.838 0.422,1.667L3.422,1.667ZM0.422,1.685C0.422,2.513 1.093,3.185 1.922,3.185C2.75,3.185 3.422,2.513 3.422,1.685L0.422,1.685ZM0.422,1.667L0.422,1.685L3.422,1.685L3.422,1.667L0.422,1.667Z" fill="#A5A5A5"/>
<path d="M3.422,1.667C3.422,0.838 2.75,0.167 1.922,0.167C1.093,0.167 0.422,0.838 0.422,1.667L3.422,1.667ZM0.422,1.685C0.422,2.513 1.093,3.185 1.922,3.185C2.75,3.185 3.422,2.513 3.422,1.685L0.422,1.685ZM0.422,1.667L0.422,1.685L3.422,1.685L3.422,1.667L0.422,1.667Z" fill="#A5A5A5" fill-opacity="0.2"/>
</svg>
