<svg width="4" height="4" viewBox="0 0 4 4" fill="none" xmlns="http://www.w3.org/2000/svg" xmlns:xlink="http://www.w3.org/1999/xlink">
<path d="M3.578,2.333C3.578,1.505 2.907,0.833 2.078,0.833C1.25,0.833 0.578,1.505 0.578,2.333L3.578,2.333ZM0.578,2.352C0.578,3.18 1.25,3.852 2.078,3.852C2.907,3.852 3.578,3.18 3.578,2.352L0.578,2.352ZM0.578,2.333L0.578,2.352L3.578,2.352L3.578,2.333L0.578,2.333Z" fill="#A5A5A5"/>
<path d="M3.578,2.333C3.578,1.505 2.907,0.833 2.078,0.833C1.25,0.833 0.578,1.505 0.578,2.333L3.578,2.333ZM0.578,2.352C0.578,3.18 1.25,3.852 2.078,3.852C2.907,3.852 3.578,3.18 3.578,2.352L0.578,2.352ZM0.578,2.333L0.578,2.352L3.578,2.352L3.578,2.333L0.578,2.333Z" fill="#A5A5A5" fill-opacity="0.2"/>
</svg>
