<svg width="14" height="20" viewBox="0 0 14 20" fill="none" xmlns="http://www.w3.org/2000/svg" xmlns:xlink="http://www.w3.org/1999/xlink">
<path d="M1.5,6.334L0.829,4.992C0.321,5.246 0,5.765 0,6.334L1.5,6.334ZM9.847,2.161L9.177,0.819L9.176,0.819L9.847,2.161ZM12.5,3.8L14,3.8L14,3.799L12.5,3.8ZM12.5,16.201L14,16.201L14,16.201L12.5,16.201ZM11.63,17.759L12.419,19.035L11.63,17.759ZM9.847,17.84L9.176,19.181L9.177,19.181L9.847,17.84ZM1.5,13.667L0,13.667C0,14.235 0.321,14.755 0.829,15.009L1.5,13.667ZM2.171,7.675L10.518,3.503L9.176,0.819L0.829,4.992L2.171,7.675ZM10.518,3.503C10.621,3.451 10.744,3.457 10.842,3.517L12.419,0.965C11.436,0.358 10.21,0.303 9.177,0.819L10.518,3.503ZM10.842,3.517C10.94,3.578 11,3.685 11,3.801L14,3.799C13.999,2.644 13.401,1.572 12.419,0.965L10.842,3.517ZM11,3.8L11,16.201L14,16.201L14,3.8L11,3.8ZM11,16.2C11,16.315 10.94,16.422 10.842,16.483L12.419,19.035C13.401,18.428 13.999,17.356 14,16.201L11,16.2ZM10.842,16.483C10.744,16.544 10.621,16.549 10.518,16.498L9.177,19.181C10.21,19.698 11.436,19.642 12.419,19.035L10.842,16.483ZM10.518,16.498L2.171,12.325L0.829,15.009L9.176,19.181L10.518,16.498ZM3,13.667L3,6.334L0,6.334L0,13.667L3,13.667Z" fill="#A5A5A5"/>
<path d="M1.5,6.334L0.829,4.992C0.321,5.246 0,5.765 0,6.334L1.5,6.334ZM9.847,2.161L9.177,0.819L9.176,0.819L9.847,2.161ZM12.5,3.8L14,3.8L14,3.799L12.5,3.8ZM12.5,16.201L14,16.201L14,16.201L12.5,16.201ZM11.63,17.759L12.419,19.035L11.63,17.759ZM9.847,17.84L9.176,19.181L9.177,19.181L9.847,17.84ZM1.5,13.667L0,13.667C0,14.235 0.321,14.755 0.829,15.009L1.5,13.667ZM2.171,7.675L10.518,3.503L9.176,0.819L0.829,4.992L2.171,7.675ZM10.518,3.503C10.621,3.451 10.744,3.457 10.842,3.517L12.419,0.965C11.436,0.358 10.21,0.303 9.177,0.819L10.518,3.503ZM10.842,3.517C10.94,3.578 11,3.685 11,3.801L14,3.799C13.999,2.644 13.401,1.572 12.419,0.965L10.842,3.517ZM11,3.8L11,16.201L14,16.201L14,3.8L11,3.8ZM11,16.2C11,16.315 10.94,16.422 10.842,16.483L12.419,19.035C13.401,18.428 13.999,17.356 14,16.201L11,16.2ZM10.842,16.483C10.744,16.544 10.621,16.549 10.518,16.498L9.177,19.181C10.21,19.698 11.436,19.642 12.419,19.035L10.842,16.483ZM10.518,16.498L2.171,12.325L0.829,15.009L9.176,19.181L10.518,16.498ZM3,13.667L3,6.334L0,6.334L0,13.667L3,13.667Z" fill="#A5A5A5" fill-opacity="0.2"/>
</svg>
