<svg width="4" height="4" viewBox="0 0 4 4" fill="none" xmlns="http://www.w3.org/2000/svg" xmlns:xlink="http://www.w3.org/1999/xlink">
<path d="M3.5,1.5C3.5,0.672 2.828,0 2,0C1.172,0 0.5,0.672 0.5,1.5L3.5,1.5ZM0.5,1.518C0.5,2.347 1.172,3.018 2,3.018C2.828,3.018 3.5,2.347 3.5,1.518L0.5,1.518ZM0.5,1.5L0.5,1.518L3.5,1.518L3.5,1.5L0.5,1.5Z" fill="#A5A5A5"/>
<path d="M3.5,1.5C3.5,0.672 2.828,0 2,0C1.172,0 0.5,0.672 0.5,1.5L3.5,1.5ZM0.5,1.518C0.5,2.347 1.172,3.018 2,3.018C2.828,3.018 3.5,2.347 3.5,1.518L0.5,1.518ZM0.5,1.5L0.5,1.518L3.5,1.518L3.5,1.5L0.5,1.5Z" fill="#A5A5A5" fill-opacity="0.2"/>
</svg>
