<svg width="8" height="14" viewBox="0 0 8 14" fill="none" xmlns="http://www.w3.org/2000/svg" xmlns:xlink="http://www.w3.org/1999/xlink">
<path d="M5,12.5C5,13.328 5.672,14 6.5,14C7.328,14 8,13.328 8,12.5L5,12.5ZM6.5,8.833L8,8.833L8,8.824L6.5,8.833ZM1.375,0.322C0.573,0.115 -0.245,0.598 -0.452,1.4C-0.659,2.202 -0.177,3.02 0.625,3.227L1.375,0.322ZM8,12.5L8,8.833L5,8.833L5,12.5L8,12.5ZM8,8.824C7.977,4.815 5.257,1.325 1.375,0.322L0.625,3.227C3.189,3.889 4.985,6.194 5,8.842L8,8.824Z" fill="#A5A5A5"/>
<path d="M5,12.5C5,13.328 5.672,14 6.5,14C7.328,14 8,13.328 8,12.5L5,12.5ZM6.5,8.833L8,8.833L8,8.824L6.5,8.833ZM1.375,0.322C0.573,0.115 -0.245,0.598 -0.452,1.4C-0.659,2.202 -0.177,3.02 0.625,3.227L1.375,0.322ZM8,12.5L8,8.833L5,8.833L5,12.5L8,12.5ZM8,8.824C7.977,4.815 5.257,1.325 1.375,0.322L0.625,3.227C3.189,3.889 4.985,6.194 5,8.842L8,8.824Z" fill="#A5A5A5" fill-opacity="0.2"/>
</svg>
