<svg width="40" height="30" viewBox="0 0 40 30" fill="none" xmlns="http://www.w3.org/2000/svg" xmlns:xlink="http://www.w3.org/1999/xlink">
<path d="M39.636,14.744C40.047,14.025 39.797,13.109 39.078,12.698C38.358,12.287 37.442,12.536 37.031,13.256L39.636,14.744ZM1.667,14L0.364,13.256C0.101,13.717 0.101,14.283 0.364,14.744L1.667,14ZM37.031,14.744C37.442,15.463 38.358,15.713 39.078,15.302C39.797,14.891 40.047,13.975 39.636,13.256L37.031,14.744ZM37.031,13.256C32.304,21.527 26.613,25.333 20,25.333L20,28.333C28.053,28.333 34.583,23.585 39.636,14.744L37.031,13.256ZM20,25.333C13.387,25.333 7.696,21.527 2.969,13.256L0.364,14.744C5.416,23.585 11.947,28.333 20,28.333L20,25.333ZM2.969,14.744C7.696,6.473 13.387,2.667 20,2.667L20,-0.333C11.947,-0.333 5.416,4.415 0.364,13.256L2.969,14.744ZM20,2.667C26.613,2.667 32.304,6.473 37.031,14.744L39.636,13.256C34.583,4.415 28.053,-0.333 20,-0.333L20,2.667Z" fill="#A5A5A5"/>
<path d="M39.636,14.744C40.047,14.025 39.797,13.109 39.078,12.698C38.358,12.287 37.442,12.536 37.031,13.256L39.636,14.744ZM1.667,14L0.364,13.256C0.101,13.717 0.101,14.283 0.364,14.744L1.667,14ZM37.031,14.744C37.442,15.463 38.358,15.713 39.078,15.302C39.797,14.891 40.047,13.975 39.636,13.256L37.031,14.744ZM37.031,13.256C32.304,21.527 26.613,25.333 20,25.333L20,28.333C28.053,28.333 34.583,23.585 39.636,14.744L37.031,13.256ZM20,25.333C13.387,25.333 7.696,21.527 2.969,13.256L0.364,14.744C5.416,23.585 11.947,28.333 20,28.333L20,25.333ZM2.969,14.744C7.696,6.473 13.387,2.667 20,2.667L20,-0.333C11.947,-0.333 5.416,4.415 0.364,13.256L2.969,14.744ZM20,2.667C26.613,2.667 32.304,6.473 37.031,14.744L39.636,13.256C34.583,4.415 28.053,-0.333 20,-0.333L20,2.667Z" fill="#A5A5A5" fill-opacity="0.2"/>
</svg>
