<svg width="12" height="4" viewBox="0 0 12 4" fill="none" xmlns="http://www.w3.org/2000/svg" xmlns:xlink="http://www.w3.org/1999/xlink">
<path d="M1.333,-0.333C0.505,-0.333 -0.167,0.338 -0.167,1.167C-0.167,1.995 0.505,2.667 1.333,2.667L1.333,-0.333ZM8.667,2.667C9.495,2.667 10.167,1.995 10.167,1.167C10.167,0.338 9.495,-0.333 8.667,-0.333L8.667,2.667ZM1.333,2.667L8.667,2.667L8.667,-0.333L1.333,-0.333L1.333,2.667Z" fill="#A5A5A5"/>
<path d="M1.333,-0.333C0.505,-0.333 -0.167,0.338 -0.167,1.167C-0.167,1.995 0.505,2.667 1.333,2.667L1.333,-0.333ZM8.667,2.667C9.495,2.667 10.167,1.995 10.167,1.167C10.167,0.338 9.495,-0.333 8.667,-0.333L8.667,2.667ZM1.333,2.667L8.667,2.667L8.667,-0.333L1.333,-0.333L1.333,2.667Z" fill="#A5A5A5" fill-opacity="0.2"/>
</svg>
