<svg width="4" height="4" viewBox="0 0 4 4" fill="none" xmlns="http://www.w3.org/2000/svg" xmlns:xlink="http://www.w3.org/1999/xlink">
<path d="M2.593,1.715C2.593,0.887 1.922,0.215 1.093,0.215C0.265,0.215 -0.407,0.887 -0.407,1.715L2.593,1.715ZM-0.407,1.733C-0.407,2.562 0.265,3.233 1.093,3.233C1.922,3.233 2.593,2.562 2.593,1.733L-0.407,1.733ZM-0.407,1.715L-0.407,1.733L2.593,1.733L2.593,1.715L-0.407,1.715Z" fill="#A5A5A5"/>
<path d="M2.593,1.715C2.593,0.887 1.922,0.215 1.093,0.215C0.265,0.215 -0.407,0.887 -0.407,1.715L2.593,1.715ZM-0.407,1.733C-0.407,2.562 0.265,3.233 1.093,3.233C1.922,3.233 2.593,2.562 2.593,1.733L-0.407,1.733ZM-0.407,1.715L-0.407,1.733L2.593,1.733L2.593,1.715L-0.407,1.715Z" fill="#A5A5A5" fill-opacity="0.2"/>
</svg>
