<svg width="4" height="4" viewBox="0 0 4 4" fill="none" xmlns="http://www.w3.org/2000/svg" xmlns:xlink="http://www.w3.org/1999/xlink">
<path d="M2.35,1.132C2.35,0.303 1.678,-0.368 0.85,-0.368C0.022,-0.368 -0.65,0.303 -0.65,1.132L2.35,1.132ZM-0.65,1.15C-0.65,1.978 0.022,2.65 0.85,2.65C1.678,2.65 2.35,1.978 2.35,1.15L-0.65,1.15ZM-0.65,1.132L-0.65,1.15L2.35,1.15L2.35,1.132L-0.65,1.132Z" fill="#A5A5A5"/>
<path d="M2.35,1.132C2.35,0.303 1.678,-0.368 0.85,-0.368C0.022,-0.368 -0.65,0.303 -0.65,1.132L2.35,1.132ZM-0.65,1.15C-0.65,1.978 0.022,2.65 0.85,2.65C1.678,2.65 2.35,1.978 2.35,1.15L-0.65,1.15ZM-0.65,1.132L-0.65,1.15L2.35,1.15L2.35,1.132L-0.65,1.132Z" fill="#A5A5A5" fill-opacity="0.2"/>
</svg>
