<svg width="4" height="4" viewBox="0 0 4 4" fill="none" xmlns="http://www.w3.org/2000/svg" xmlns:xlink="http://www.w3.org/1999/xlink">
<path d="M3.422,2.333C3.422,1.505 2.75,0.833 1.922,0.833C1.093,0.833 0.422,1.505 0.422,2.333L3.422,2.333ZM0.422,2.352C0.422,3.18 1.093,3.852 1.922,3.852C2.75,3.852 3.422,3.18 3.422,2.352L0.422,2.352ZM0.422,2.333L0.422,2.352L3.422,2.352L3.422,2.333L0.422,2.333Z" fill="#A5A5A5"/>
<path d="M3.422,2.333C3.422,1.505 2.75,0.833 1.922,0.833C1.093,0.833 0.422,1.505 0.422,2.333L3.422,2.333ZM0.422,2.352C0.422,3.18 1.093,3.852 1.922,3.852C2.75,3.852 3.422,3.18 3.422,2.352L0.422,2.352ZM0.422,2.333L0.422,2.352L3.422,2.352L3.422,2.333L0.422,2.333Z" fill="#A5A5A5" fill-opacity="0.2"/>
</svg>
