<svg width="4" height="4" viewBox="0 0 4 4" fill="none" xmlns="http://www.w3.org/2000/svg" xmlns:xlink="http://www.w3.org/1999/xlink">
<path d="M2.35,0.868C2.35,0.04 1.678,-0.632 0.85,-0.632C0.022,-0.632 -0.65,0.04 -0.65,0.868L2.35,0.868ZM-0.65,0.887C-0.65,1.715 0.022,2.387 0.85,2.387C1.678,2.387 2.35,1.715 2.35,0.887L-0.65,0.887ZM-0.65,0.868L-0.65,0.887L2.35,0.887L2.35,0.868L-0.65,0.868Z" fill="#A5A5A5"/>
<path d="M2.35,0.868C2.35,0.04 1.678,-0.632 0.85,-0.632C0.022,-0.632 -0.65,0.04 -0.65,0.868L2.35,0.868ZM-0.65,0.887C-0.65,1.715 0.022,2.387 0.85,2.387C1.678,2.387 2.35,1.715 2.35,0.887L-0.65,0.887ZM-0.65,0.868L-0.65,0.887L2.35,0.887L2.35,0.868L-0.65,0.868Z" fill="#A5A5A5" fill-opacity="0.2"/>
</svg>
