<svg width="20" height="12" viewBox="0 0 20 12" fill="none" xmlns="http://www.w3.org/2000/svg" xmlns:xlink="http://www.w3.org/1999/xlink">
<path d="M3.237,0.763C2.554,0.079 1.446,0.079 0.763,0.763C0.079,1.446 0.079,2.554 0.763,3.237L3.237,0.763ZM10,10L8.763,11.237C9.446,11.921 10.554,11.921 11.237,11.237L10,10ZM19.237,3.237C19.921,2.554 19.921,1.446 19.237,0.763C18.554,0.079 17.446,0.079 16.763,0.763L19.237,3.237ZM0.763,3.237L8.763,11.237L11.237,8.763L3.237,0.763L0.763,3.237ZM11.237,11.237L19.237,3.237L16.763,0.763L8.763,8.763L11.237,11.237Z" fill="#A8AAAE"/>
</svg>
