<svg width="44" height="44" viewBox="0 0 44 44" fill="none" xmlns="http://www.w3.org/2000/svg" xmlns:xlink="http://www.w3.org/1999/xlink">
<path d="M27.5,13.167C26.671,13.167 26,13.838 26,14.667C26,15.495 26.671,16.167 27.5,16.167L27.5,13.167ZM27.518,16.167C28.347,16.167 29.018,15.495 29.018,14.667C29.018,13.838 28.347,13.167 27.518,13.167L27.518,16.167ZM27.5,16.167L27.518,16.167L27.518,13.167L27.5,13.167L27.5,16.167Z" fill="#A5A5A5"/>
<path d="M27.5,13.167C26.671,13.167 26,13.838 26,14.667C26,15.495 26.671,16.167 27.5,16.167L27.5,13.167ZM27.518,16.167C28.347,16.167 29.018,15.495 29.018,14.667C29.018,13.838 28.347,13.167 27.518,13.167L27.518,16.167ZM27.5,16.167L27.518,16.167L27.518,13.167L27.5,13.167L27.5,16.167Z" fill="#A5A5A5" fill-opacity="0.2"/>
<rect  x="5.833" y="5.833" width="29.333" height="29.333" rx="6" stroke="#A5A5A5" stroke-width="1.5" stroke-miterlimit="3.999327" stroke-linecap="round" stroke-linejoin="round"/>
<rect  x="5.833" y="5.833" width="29.333" height="29.333" rx="6" stroke="#A5A5A5" stroke-opacity="0.2" stroke-width="1.5" stroke-miterlimit="3.999327" stroke-linecap="round" stroke-linejoin="round"/>
<path d="M6.273,26.439C5.687,27.025 5.687,27.975 6.273,28.561C6.858,29.146 7.808,29.146 8.394,28.561L6.273,26.439ZM14.667,20.167L13.627,19.086C13.62,19.092 13.613,19.099 13.606,19.106L14.667,20.167ZM20.167,20.167L21.227,19.106C21.221,19.099 21.214,19.092 21.207,19.086L20.167,20.167ZM28.273,30.394C28.859,30.98 29.808,30.98 30.394,30.394C30.98,29.808 30.98,28.858 30.394,28.273L28.273,30.394ZM8.394,28.561L15.727,21.227L13.606,19.106L6.273,26.439L8.394,28.561ZM15.707,21.247C16.333,20.645 16.924,20.438 17.417,20.438C17.909,20.438 18.501,20.645 19.127,21.247L21.207,19.086C20.131,18.05 18.824,17.438 17.417,17.438C16.01,17.438 14.703,18.05 13.627,19.086L15.707,21.247ZM19.106,21.227L28.273,30.394L30.394,28.273L21.227,19.106L19.106,21.227Z" fill="#A5A5A5"/>
<path d="M6.273,26.439C5.687,27.025 5.687,27.975 6.273,28.561C6.858,29.146 7.808,29.146 8.394,28.561L6.273,26.439ZM14.667,20.167L13.627,19.086C13.62,19.092 13.613,19.099 13.606,19.106L14.667,20.167ZM20.167,20.167L21.227,19.106C21.221,19.099 21.214,19.092 21.207,19.086L20.167,20.167ZM28.273,30.394C28.859,30.98 29.808,30.98 30.394,30.394C30.98,29.808 30.98,28.858 30.394,28.273L28.273,30.394ZM8.394,28.561L15.727,21.227L13.606,19.106L6.273,26.439L8.394,28.561ZM15.707,21.247C16.333,20.645 16.924,20.438 17.417,20.438C17.909,20.438 18.501,20.645 19.127,21.247L21.207,19.086C20.131,18.05 18.824,17.438 17.417,17.438C16.01,17.438 14.703,18.05 13.627,19.086L15.707,21.247ZM19.106,21.227L28.273,30.394L30.394,28.273L21.227,19.106L19.106,21.227Z" fill="#A5A5A5" fill-opacity="0.2"/>
<path d="M24.606,24.606C24.02,25.192 24.02,26.141 24.606,26.727C25.192,27.313 26.142,27.313 26.727,26.727L24.606,24.606ZM27.5,23.833L26.46,22.752C26.453,22.759 26.446,22.766 26.439,22.773L27.5,23.833ZM33,23.833L34.061,22.773C34.054,22.766 34.047,22.759 34.04,22.752L33,23.833ZM35.606,28.561C36.192,29.146 37.142,29.146 37.727,28.561C38.313,27.975 38.313,27.025 37.727,26.439L35.606,28.561ZM26.727,26.727L28.561,24.894L26.439,22.773L24.606,24.606L26.727,26.727ZM28.54,24.914C29.166,24.312 29.758,24.105 30.25,24.105C30.742,24.105 31.334,24.312 31.96,24.914L34.04,22.752C32.964,21.717 31.657,21.105 30.25,21.105C28.843,21.105 27.536,21.717 26.46,22.752L28.54,24.914ZM31.939,24.894L35.606,28.561L37.727,26.439L34.061,22.773L31.939,24.894Z" fill="#A5A5A5"/>
<path d="M24.606,24.606C24.02,25.192 24.02,26.141 24.606,26.727C25.192,27.313 26.142,27.313 26.727,26.727L24.606,24.606ZM27.5,23.833L26.46,22.752C26.453,22.759 26.446,22.766 26.439,22.773L27.5,23.833ZM33,23.833L34.061,22.773C34.054,22.766 34.047,22.759 34.04,22.752L33,23.833ZM35.606,28.561C36.192,29.146 37.142,29.146 37.727,28.561C38.313,27.975 38.313,27.025 37.727,26.439L35.606,28.561ZM26.727,26.727L28.561,24.894L26.439,22.773L24.606,24.606L26.727,26.727ZM28.54,24.914C29.166,24.312 29.758,24.105 30.25,24.105C30.742,24.105 31.334,24.312 31.96,24.914L34.04,22.752C32.964,21.717 31.657,21.105 30.25,21.105C28.843,21.105 27.536,21.717 26.46,22.752L28.54,24.914ZM31.939,24.894L35.606,28.561L37.727,26.439L34.061,22.773L31.939,24.894Z" fill="#A5A5A5" fill-opacity="0.2"/>
</svg>
