<svg width="44" height="44" viewBox="0 0 44 44" fill="none" xmlns="http://www.w3.org/2000/svg" xmlns:xlink="http://www.w3.org/1999/xlink">
<path d="M17.273,24.606C16.687,25.192 16.687,26.142 17.273,26.727C17.858,27.313 18.808,27.313 19.394,26.727L17.273,24.606ZM39.561,6.561C40.147,5.975 40.147,5.025 39.561,4.439C38.975,3.854 38.025,3.854 37.439,4.439L39.561,6.561ZM19.394,26.727L39.561,6.561L37.439,4.439L17.273,24.606L19.394,26.727Z" fill="#A5A5A5"/>
<path d="M17.273,24.606C16.687,25.192 16.687,26.142 17.273,26.727C17.858,27.313 18.808,27.313 19.394,26.727L17.273,24.606ZM39.561,6.561C40.147,5.975 40.147,5.025 39.561,4.439C38.975,3.854 38.025,3.854 37.439,4.439L39.561,6.561ZM19.394,26.727L39.561,6.561L37.439,4.439L17.273,24.606L19.394,26.727Z" fill="#A5A5A5" fill-opacity="0.2"/>
<path d="M39.911,6.009C40.192,5.23 39.789,4.371 39.01,4.089C38.23,3.808 37.371,4.211 37.089,4.991L39.911,6.009ZM26.583,38.5L27.947,39.125C27.964,39.087 27.98,39.049 27.994,39.009L26.583,38.5ZM24.75,38.5L26.114,37.875C26.107,37.86 26.099,37.844 26.092,37.829L24.75,38.5ZM18.333,25.667L19.675,24.996C19.53,24.706 19.295,24.47 19.004,24.325L18.333,25.667ZM5.5,19.25L6.171,17.908C6.156,17.901 6.14,17.893 6.125,17.886L5.5,19.25ZM5.5,17.417L4.991,16.006C4.952,16.02 4.913,16.036 4.875,16.053L5.5,17.417ZM39.01,6.911C39.789,6.629 40.192,5.77 39.911,4.991C39.63,4.211 38.77,3.808 37.991,4.089L39.01,6.911ZM37.089,4.991L25.173,37.991L27.994,39.009L39.911,6.009L37.089,4.991ZM25.22,37.875C25.3,37.7 25.474,37.588 25.667,37.588L25.667,40.588C26.648,40.588 27.538,40.017 27.947,39.125L25.22,37.875ZM25.667,37.588C25.859,37.588 26.034,37.7 26.114,37.875L23.386,39.125C23.795,40.017 24.686,40.588 25.667,40.588L25.667,37.588ZM26.092,37.829L19.675,24.996L16.992,26.337L23.408,39.171L26.092,37.829ZM19.004,24.325L6.171,17.908L4.829,20.592L17.663,27.008L19.004,24.325ZM6.125,17.886C6.3,17.966 6.412,18.141 6.412,18.333L3.412,18.333C3.412,19.314 3.984,20.205 4.875,20.614L6.125,17.886ZM6.412,18.333C6.412,18.526 6.3,18.7 6.125,18.78L4.875,16.053C3.984,16.462 3.412,17.352 3.412,18.333L6.412,18.333ZM6.01,18.827L39.01,6.911L37.991,4.089L4.991,16.006L6.01,18.827Z" fill="#A5A5A5"/>
<path d="M39.911,6.009C40.192,5.23 39.789,4.371 39.01,4.089C38.23,3.808 37.371,4.211 37.089,4.991L39.911,6.009ZM26.583,38.5L27.947,39.125C27.964,39.087 27.98,39.049 27.994,39.009L26.583,38.5ZM24.75,38.5L26.114,37.875C26.107,37.86 26.099,37.844 26.092,37.829L24.75,38.5ZM18.333,25.667L19.675,24.996C19.53,24.706 19.295,24.47 19.004,24.325L18.333,25.667ZM5.5,19.25L6.171,17.908C6.156,17.901 6.14,17.893 6.125,17.886L5.5,19.25ZM5.5,17.417L4.991,16.006C4.952,16.02 4.913,16.036 4.875,16.053L5.5,17.417ZM39.01,6.911C39.789,6.629 40.192,5.77 39.911,4.991C39.63,4.211 38.77,3.808 37.991,4.089L39.01,6.911ZM37.089,4.991L25.173,37.991L27.994,39.009L39.911,6.009L37.089,4.991ZM25.22,37.875C25.3,37.7 25.474,37.588 25.667,37.588L25.667,40.588C26.648,40.588 27.538,40.017 27.947,39.125L25.22,37.875ZM25.667,37.588C25.859,37.588 26.034,37.7 26.114,37.875L23.386,39.125C23.795,40.017 24.686,40.588 25.667,40.588L25.667,37.588ZM26.092,37.829L19.675,24.996L16.992,26.337L23.408,39.171L26.092,37.829ZM19.004,24.325L6.171,17.908L4.829,20.592L17.663,27.008L19.004,24.325ZM6.125,17.886C6.3,17.966 6.412,18.141 6.412,18.333L3.412,18.333C3.412,19.314 3.984,20.205 4.875,20.614L6.125,17.886ZM6.412,18.333C6.412,18.526 6.3,18.7 6.125,18.78L4.875,16.053C3.984,16.462 3.412,17.352 3.412,18.333L6.412,18.333ZM6.01,18.827L39.01,6.911L37.991,4.089L4.991,16.006L6.01,18.827Z" fill="#A5A5A5" fill-opacity="0.2"/>
</svg>
