<svg width="44" height="44" viewBox="0 0 44 44" fill="none" xmlns="http://www.w3.org/2000/svg" xmlns:xlink="http://www.w3.org/1999/xlink">
<path d="M18.929,7.914L20.387,8.269L20.387,8.268L18.929,7.914ZM25.071,7.914L26.529,7.561L26.529,7.561L25.071,7.914ZM29.788,9.869L29.008,8.588L29.007,8.588L29.788,9.869ZM34.133,14.214L35.414,14.994L35.414,14.994L34.133,14.214ZM36.086,18.929L35.731,20.387L35.732,20.387L36.086,18.929ZM36.086,25.071L36.439,26.529L36.439,26.529L36.086,25.071ZM34.131,29.788L35.412,29.008L35.412,29.007L34.131,29.788ZM29.786,34.133L29.006,35.414L29.006,35.414L29.786,34.133ZM25.071,36.086L23.613,35.731L23.613,35.732L25.071,36.086ZM18.929,36.086L17.471,36.439L17.471,36.439L18.929,36.086ZM14.212,34.131L14.992,35.412L14.993,35.412L14.212,34.131ZM9.867,29.786L8.586,29.006L8.586,29.006L9.867,29.786ZM7.915,25.071L8.269,23.613L8.268,23.613L7.915,25.071ZM7.915,18.929L7.561,17.471L7.561,17.471L7.915,18.929ZM9.869,14.212L8.588,14.992L8.588,14.993L9.869,14.212ZM14.214,9.867L13.434,11.148L13.435,11.149L14.214,9.867ZM20.387,8.268C20.797,6.577 23.203,6.577 23.613,8.268L26.529,7.561C25.377,2.813 18.623,2.813 17.471,7.561L20.387,8.268ZM23.613,8.268C23.964,9.714 24.984,10.906 26.359,11.476L27.507,8.704C27.017,8.501 26.654,8.077 26.529,7.561L23.613,8.268ZM26.359,11.476C27.734,12.046 29.298,11.924 30.569,11.15L29.007,8.588C28.554,8.864 27.997,8.907 27.507,8.704L26.359,11.476ZM30.568,11.15C32.054,10.245 33.758,11.946 32.852,13.434L35.414,14.994C37.955,10.82 33.179,6.046 29.008,8.588L30.568,11.15ZM32.852,13.434C32.078,14.704 31.957,16.267 32.526,17.641L35.298,16.493C35.095,16.004 35.138,15.447 35.414,14.994L32.852,13.434ZM32.526,17.641C33.095,19.015 34.286,20.035 35.731,20.387L36.44,17.472C35.925,17.346 35.501,16.983 35.298,16.493L32.526,17.641ZM35.732,20.387C37.423,20.797 37.423,23.203 35.732,23.613L36.439,26.529C41.187,25.377 41.187,18.623 36.439,17.471L35.732,20.387ZM35.732,23.613C34.286,23.963 33.094,24.984 32.524,26.359L35.296,27.507C35.499,27.017 35.923,26.654 36.439,26.529L35.732,23.613ZM32.524,26.359C31.954,27.734 32.076,29.298 32.85,30.569L35.412,29.007C35.136,28.554 35.093,27.997 35.296,27.507L32.524,26.359ZM32.85,30.568C33.755,32.054 32.054,33.758 30.566,32.852L29.006,35.414C33.18,37.955 37.954,33.179 35.412,29.008L32.85,30.568ZM30.566,32.852C29.296,32.078 27.733,31.957 26.359,32.526L27.507,35.298C27.996,35.095 28.553,35.138 29.006,35.414L30.566,32.852ZM26.359,32.526C24.985,33.095 23.965,34.286 23.613,35.731L26.528,36.44C26.654,35.925 27.017,35.501 27.507,35.298L26.359,32.526ZM23.613,35.732C23.203,37.423 20.797,37.423 20.387,35.732L17.471,36.439C18.623,41.187 25.377,41.187 26.529,36.439L23.613,35.732ZM20.387,35.732C20.036,34.286 19.016,33.094 17.641,32.524L16.493,35.296C16.983,35.499 17.346,35.923 17.471,36.439L20.387,35.732ZM17.641,32.524C16.266,31.954 14.702,32.076 13.431,32.85L14.993,35.412C15.446,35.136 16.003,35.093 16.493,35.296L17.641,32.524ZM13.432,32.85C11.946,33.755 10.242,32.054 11.148,30.566L8.586,29.006C6.045,33.18 10.821,37.954 14.992,35.412L13.432,32.85ZM11.148,30.566C11.922,29.296 12.043,27.733 11.474,26.359L8.702,27.507C8.905,27.996 8.862,28.553 8.586,29.006L11.148,30.566ZM11.474,26.359C10.905,24.985 9.714,23.965 8.269,23.613L7.56,26.528C8.075,26.654 8.499,27.017 8.702,27.507L11.474,26.359ZM8.268,23.613C6.577,23.203 6.577,20.797 8.268,20.387L7.561,17.471C2.813,18.623 2.813,25.377 7.561,26.529L8.268,23.613ZM8.268,20.387C9.714,20.037 10.906,19.016 11.476,17.641L8.704,16.493C8.501,16.983 8.077,17.346 7.561,17.471L8.268,20.387ZM11.476,17.641C12.046,16.266 11.924,14.702 11.15,13.431L8.588,14.993C8.864,15.446 8.907,16.003 8.704,16.493L11.476,17.641ZM11.15,13.432C10.245,11.946 11.946,10.242 13.434,11.148L14.994,8.586C10.82,6.045 6.046,10.821 8.588,14.992L11.15,13.432ZM13.435,11.149C16.135,12.79 19.641,11.336 20.387,8.269L17.472,7.56C17.206,8.654 15.959,9.173 14.993,8.585L13.435,11.149Z" fill="#A5A5A5"/>
<path d="M18.929,7.914L20.387,8.269L20.387,8.268L18.929,7.914ZM25.071,7.914L26.529,7.561L26.529,7.561L25.071,7.914ZM29.788,9.869L29.008,8.588L29.007,8.588L29.788,9.869ZM34.133,14.214L35.414,14.994L35.414,14.994L34.133,14.214ZM36.086,18.929L35.731,20.387L35.732,20.387L36.086,18.929ZM36.086,25.071L36.439,26.529L36.439,26.529L36.086,25.071ZM34.131,29.788L35.412,29.008L35.412,29.007L34.131,29.788ZM29.786,34.133L29.006,35.414L29.006,35.414L29.786,34.133ZM25.071,36.086L23.613,35.731L23.613,35.732L25.071,36.086ZM18.929,36.086L17.471,36.439L17.471,36.439L18.929,36.086ZM14.212,34.131L14.992,35.412L14.993,35.412L14.212,34.131ZM9.867,29.786L8.586,29.006L8.586,29.006L9.867,29.786ZM7.915,25.071L8.269,23.613L8.268,23.613L7.915,25.071ZM7.915,18.929L7.561,17.471L7.561,17.471L7.915,18.929ZM9.869,14.212L8.588,14.992L8.588,14.993L9.869,14.212ZM14.214,9.867L13.434,11.148L13.435,11.149L14.214,9.867ZM20.387,8.268C20.797,6.577 23.203,6.577 23.613,8.268L26.529,7.561C25.377,2.813 18.623,2.813 17.471,7.561L20.387,8.268ZM23.613,8.268C23.964,9.714 24.984,10.906 26.359,11.476L27.507,8.704C27.017,8.501 26.654,8.077 26.529,7.561L23.613,8.268ZM26.359,11.476C27.734,12.046 29.298,11.924 30.569,11.15L29.007,8.588C28.554,8.864 27.997,8.907 27.507,8.704L26.359,11.476ZM30.568,11.15C32.054,10.245 33.758,11.946 32.852,13.434L35.414,14.994C37.955,10.82 33.179,6.046 29.008,8.588L30.568,11.15ZM32.852,13.434C32.078,14.704 31.957,16.267 32.526,17.641L35.298,16.493C35.095,16.004 35.138,15.447 35.414,14.994L32.852,13.434ZM32.526,17.641C33.095,19.015 34.286,20.035 35.731,20.387L36.44,17.472C35.925,17.346 35.501,16.983 35.298,16.493L32.526,17.641ZM35.732,20.387C37.423,20.797 37.423,23.203 35.732,23.613L36.439,26.529C41.187,25.377 41.187,18.623 36.439,17.471L35.732,20.387ZM35.732,23.613C34.286,23.963 33.094,24.984 32.524,26.359L35.296,27.507C35.499,27.017 35.923,26.654 36.439,26.529L35.732,23.613ZM32.524,26.359C31.954,27.734 32.076,29.298 32.85,30.569L35.412,29.007C35.136,28.554 35.093,27.997 35.296,27.507L32.524,26.359ZM32.85,30.568C33.755,32.054 32.054,33.758 30.566,32.852L29.006,35.414C33.18,37.955 37.954,33.179 35.412,29.008L32.85,30.568ZM30.566,32.852C29.296,32.078 27.733,31.957 26.359,32.526L27.507,35.298C27.996,35.095 28.553,35.138 29.006,35.414L30.566,32.852ZM26.359,32.526C24.985,33.095 23.965,34.286 23.613,35.731L26.528,36.44C26.654,35.925 27.017,35.501 27.507,35.298L26.359,32.526ZM23.613,35.732C23.203,37.423 20.797,37.423 20.387,35.732L17.471,36.439C18.623,41.187 25.377,41.187 26.529,36.439L23.613,35.732ZM20.387,35.732C20.036,34.286 19.016,33.094 17.641,32.524L16.493,35.296C16.983,35.499 17.346,35.923 17.471,36.439L20.387,35.732ZM17.641,32.524C16.266,31.954 14.702,32.076 13.431,32.85L14.993,35.412C15.446,35.136 16.003,35.093 16.493,35.296L17.641,32.524ZM13.432,32.85C11.946,33.755 10.242,32.054 11.148,30.566L8.586,29.006C6.045,33.18 10.821,37.954 14.992,35.412L13.432,32.85ZM11.148,30.566C11.922,29.296 12.043,27.733 11.474,26.359L8.702,27.507C8.905,27.996 8.862,28.553 8.586,29.006L11.148,30.566ZM11.474,26.359C10.905,24.985 9.714,23.965 8.269,23.613L7.56,26.528C8.075,26.654 8.499,27.017 8.702,27.507L11.474,26.359ZM8.268,23.613C6.577,23.203 6.577,20.797 8.268,20.387L7.561,17.471C2.813,18.623 2.813,25.377 7.561,26.529L8.268,23.613ZM8.268,20.387C9.714,20.037 10.906,19.016 11.476,17.641L8.704,16.493C8.501,16.983 8.077,17.346 7.561,17.471L8.268,20.387ZM11.476,17.641C12.046,16.266 11.924,14.702 11.15,13.431L8.588,14.993C8.864,15.446 8.907,16.003 8.704,16.493L11.476,17.641ZM11.15,13.432C10.245,11.946 11.946,10.242 13.434,11.148L14.994,8.586C10.82,6.045 6.046,10.821 8.588,14.992L11.15,13.432ZM13.435,11.149C16.135,12.79 19.641,11.336 20.387,8.269L17.472,7.56C17.206,8.654 15.959,9.173 14.993,8.585L13.435,11.149Z" fill="#A5A5A5" fill-opacity="0.2"/>
<circle cx="22" cy="22" r="5.5" stroke="#A5A5A5" stroke-width="1.5" stroke-miterlimit="3.999327" stroke-linecap="round" stroke-linejoin="round"/>
<circle cx="22" cy="22" r="5.5" stroke="#A5A5A5" stroke-opacity="0.2" stroke-width="1.5" stroke-miterlimit="3.999327" stroke-linecap="round" stroke-linejoin="round"/>
</svg>
