<svg width="44" height="44" viewBox="0 0 44 44" fill="none" xmlns="http://www.w3.org/2000/svg" xmlns:xlink="http://www.w3.org/1999/xlink">
<path d="M33.912,17.152C34.566,17.661 35.509,17.543 36.017,16.889C36.526,16.235 36.408,15.293 35.754,14.784L33.912,17.152ZM25.056,8.364L24.135,9.548L24.135,9.548L25.056,8.364ZM19.054,8.364L19.975,9.548L19.975,9.548L19.054,8.364ZM9.275,15.968L8.354,14.784L8.354,14.784L9.275,15.968ZM7.388,19.827L8.888,19.827L8.888,19.827L7.388,19.827ZM35.754,14.784C35.099,14.276 34.157,14.394 33.649,15.048C33.141,15.702 33.259,16.645 33.913,17.153L35.754,14.784ZM35.754,14.784L25.977,7.18L24.135,9.548L33.912,17.152L35.754,14.784ZM25.977,7.18C23.67,5.385 20.44,5.385 18.133,7.18L19.975,9.548C21.198,8.596 22.912,8.596 24.135,9.548L25.977,7.18ZM18.133,7.18L8.354,14.784L10.196,17.152L19.975,9.548L18.133,7.18ZM8.354,14.784C6.798,15.995 5.887,17.856 5.888,19.828L8.888,19.827C8.888,18.781 9.37,17.794 10.196,17.152L8.354,14.784ZM5.888,19.827L5.888,33.028L8.888,33.028L8.888,19.827L5.888,19.827ZM5.888,33.028C5.888,35.881 8.202,38.194 11.055,38.194L11.055,35.194C9.858,35.194 8.888,34.224 8.888,33.028L5.888,33.028ZM11.055,38.194L33.055,38.194L33.055,35.194L11.055,35.194L11.055,38.194ZM33.055,38.194C35.909,38.194 38.222,35.881 38.222,33.028L35.222,33.028C35.222,34.224 34.252,35.194 33.055,35.194L33.055,38.194ZM38.222,33.028L38.222,19.827L35.222,19.827L35.222,33.028L38.222,33.028ZM38.222,19.827C38.222,17.856 37.311,15.994 35.754,14.784L33.913,17.153C34.739,17.794 35.222,18.782 35.222,19.827L38.222,19.827Z" fill="#A5A5A5"/>
<path d="M30.108,28.784C30.817,28.356 31.046,27.434 30.618,26.725C30.19,26.016 29.268,25.787 28.559,26.215L30.108,28.784ZM15.442,26.216C14.733,25.787 13.811,26.015 13.383,26.724C12.954,27.434 13.182,28.356 13.891,28.784L15.442,26.216ZM28.559,26.215C26.819,27.264 24.449,27.833 21.999,27.833C19.548,27.833 17.179,27.264 15.442,26.216L13.891,28.784C16.202,30.179 19.14,30.833 21.999,30.833C24.857,30.833 27.796,30.179 30.108,28.784L28.559,26.215Z" fill="#A5A5A5"/>
</svg>
