<svg width="44" height="44" viewBox="0 0 44 44" fill="none" xmlns="http://www.w3.org/2000/svg" xmlns:xlink="http://www.w3.org/1999/xlink">
<path d="M33.759,17.35C34.522,17.943 35.621,17.806 36.215,17.043C36.808,16.28 36.671,15.18 35.908,14.587L33.759,17.35ZM25.056,8.364L23.982,9.745L23.982,9.745L25.056,8.364ZM19.054,8.364L20.128,9.745L20.128,9.745L19.054,8.364ZM9.275,15.968L8.201,14.587L8.201,14.587L9.275,15.968ZM7.388,19.828L9.138,19.828L9.138,19.827L7.388,19.828ZM35.907,14.586C35.144,13.993 34.044,14.132 33.451,14.895C32.858,15.658 32.997,16.757 33.76,17.35L35.907,14.586ZM35.908,14.587L26.131,6.982L23.982,9.745L33.759,17.35L35.908,14.587ZM26.131,6.982C23.734,5.118 20.376,5.118 17.979,6.982L20.128,9.745C21.262,8.863 22.849,8.863 23.982,9.745L26.131,6.982ZM17.98,6.982L8.201,14.587L10.349,17.35L20.128,9.745L17.98,6.982ZM8.201,14.587C6.583,15.845 5.637,17.779 5.638,19.828L9.138,19.827C9.138,18.858 9.585,17.944 10.349,17.35L8.201,14.587ZM5.638,19.828L5.638,33.028L9.138,33.028L9.138,19.828L5.638,19.828ZM5.638,33.028C5.638,36.019 8.064,38.444 11.055,38.444L11.055,34.944C9.997,34.944 9.138,34.086 9.138,33.028L5.638,33.028ZM11.055,38.444L33.055,38.444L33.055,34.944L11.055,34.944L11.055,38.444ZM33.055,38.444C36.047,38.444 38.472,36.019 38.472,33.028L34.972,33.028C34.972,34.086 34.114,34.944 33.055,34.944L33.055,38.444ZM38.472,33.028L38.472,19.828L34.972,19.828L34.972,33.028L38.472,33.028ZM38.472,19.828C38.472,17.779 37.526,15.844 35.907,14.586L33.76,17.35C34.524,17.944 34.972,18.859 34.972,19.828L38.472,19.828Z" fill="#FFFFFF"/>
<path d="M30.237,28.998C31.065,28.499 31.331,27.424 30.832,26.596C30.333,25.768 29.257,25.502 28.429,26.001L30.237,28.998ZM15.571,26.002C14.744,25.502 13.668,25.768 13.169,26.595C12.669,27.423 12.935,28.498 13.762,28.998L15.571,26.002ZM28.429,26.001C26.738,27.022 24.415,27.583 21.999,27.583C19.582,27.583 17.26,27.022 15.571,26.002L13.762,28.998C16.121,30.422 19.106,31.083 21.999,31.083C24.891,31.083 27.877,30.422 30.237,28.998L28.429,26.001Z" fill="#FFFFFF"/>
</svg>
