<svg width="44" height="44" viewBox="0 0 44 44" fill="none" xmlns="http://www.w3.org/2000/svg" xmlns:xlink="http://www.w3.org/1999/xlink">
<path d="M9.167,5.833C8.338,5.833 7.667,6.505 7.667,7.333C7.667,8.162 8.338,8.833 9.167,8.833L9.167,5.833ZM9.167,16.833C8.338,16.833 7.667,17.505 7.667,18.333C7.667,19.162 8.338,19.833 9.167,19.833L9.167,16.833ZM9.167,8.833L16.5,8.833L16.5,5.833L9.167,5.833L9.167,8.833ZM16.5,8.833C16.684,8.833 16.833,8.982 16.833,9.167L19.833,9.167C19.833,7.326 18.341,5.833 16.5,5.833L16.5,8.833ZM16.833,9.167L16.833,16.5L19.833,16.5L19.833,9.167L16.833,9.167ZM16.833,16.5C16.833,16.684 16.684,16.833 16.5,16.833L16.5,19.833C18.341,19.833 19.833,18.341 19.833,16.5L16.833,16.5ZM16.5,16.833L9.167,16.833L9.167,19.833L16.5,19.833L16.5,16.833Z" fill="#A5A5A5"/>
<path d="M9.167,5.833C8.338,5.833 7.667,6.505 7.667,7.333C7.667,8.162 8.338,8.833 9.167,8.833L9.167,5.833ZM9.167,16.833C8.338,16.833 7.667,17.505 7.667,18.333C7.667,19.162 8.338,19.833 9.167,19.833L9.167,16.833ZM9.167,8.833L16.5,8.833L16.5,5.833L9.167,5.833L9.167,8.833ZM16.5,8.833C16.684,8.833 16.833,8.982 16.833,9.167L19.833,9.167C19.833,7.326 18.341,5.833 16.5,5.833L16.5,8.833ZM16.833,9.167L16.833,16.5L19.833,16.5L19.833,9.167L16.833,9.167ZM16.833,16.5C16.833,16.684 16.684,16.833 16.5,16.833L16.5,19.833C18.341,19.833 19.833,18.341 19.833,16.5L16.833,16.5ZM16.5,16.833L9.167,16.833L9.167,19.833L16.5,19.833L16.5,16.833Z" fill="#A5A5A5" fill-opacity="0.2"/>
<path d="M9.167,24.167C8.338,24.167 7.667,24.838 7.667,25.667C7.667,26.495 8.338,27.167 9.167,27.167L9.167,24.167ZM9.167,35.167C8.338,35.167 7.667,35.838 7.667,36.667C7.667,37.495 8.338,38.167 9.167,38.167L9.167,35.167ZM9.167,27.167L16.5,27.167L16.5,24.167L9.167,24.167L9.167,27.167ZM16.5,27.167C16.684,27.167 16.833,27.316 16.833,27.5L19.833,27.5C19.833,25.659 18.341,24.167 16.5,24.167L16.5,27.167ZM16.833,27.5L16.833,34.833L19.833,34.833L19.833,27.5L16.833,27.5ZM16.833,34.833C16.833,35.018 16.684,35.167 16.5,35.167L16.5,38.167C18.341,38.167 19.833,36.674 19.833,34.833L16.833,34.833ZM16.5,35.167L9.167,35.167L9.167,38.167L16.5,38.167L16.5,35.167Z" fill="#A5A5A5"/>
<path d="M9.167,24.167C8.338,24.167 7.667,24.838 7.667,25.667C7.667,26.495 8.338,27.167 9.167,27.167L9.167,24.167ZM9.167,35.167C8.338,35.167 7.667,35.838 7.667,36.667C7.667,37.495 8.338,38.167 9.167,38.167L9.167,35.167ZM9.167,27.167L16.5,27.167L16.5,24.167L9.167,24.167L9.167,27.167ZM16.5,27.167C16.684,27.167 16.833,27.316 16.833,27.5L19.833,27.5C19.833,25.659 18.341,24.167 16.5,24.167L16.5,27.167ZM16.833,27.5L16.833,34.833L19.833,34.833L19.833,27.5L16.833,27.5ZM16.833,34.833C16.833,35.018 16.684,35.167 16.5,35.167L16.5,38.167C18.341,38.167 19.833,36.674 19.833,34.833L16.833,34.833ZM16.5,35.167L9.167,35.167L9.167,38.167L16.5,38.167L16.5,35.167Z" fill="#A5A5A5" fill-opacity="0.2"/>
<path d="M18.333,11.333C17.505,11.333 16.833,12.005 16.833,12.833C16.833,13.662 17.505,14.333 18.333,14.333L18.333,11.333ZM18.333,29.667C17.505,29.667 16.833,30.338 16.833,31.167C16.833,31.995 17.505,32.667 18.333,32.667L18.333,29.667ZM18.333,14.333L25.667,14.333L25.667,11.333L18.333,11.333L18.333,14.333ZM25.667,14.333C25.851,14.333 26,14.482 26,14.667L29,14.667C29,12.826 27.508,11.333 25.667,11.333L25.667,14.333ZM26,14.667L26,29.333L29,29.333L29,14.667L26,14.667ZM26,29.333C26,29.517 25.851,29.667 25.667,29.667L25.667,32.667C27.508,32.667 29,31.174 29,29.333L26,29.333ZM25.667,29.667L18.333,29.667L18.333,32.667L25.667,32.667L25.667,29.667Z" fill="#A5A5A5"/>
<path d="M18.333,11.333C17.505,11.333 16.833,12.005 16.833,12.833C16.833,13.662 17.505,14.333 18.333,14.333L18.333,11.333ZM18.333,29.667C17.505,29.667 16.833,30.338 16.833,31.167C16.833,31.995 17.505,32.667 18.333,32.667L18.333,29.667ZM18.333,14.333L25.667,14.333L25.667,11.333L18.333,11.333L18.333,14.333ZM25.667,14.333C25.851,14.333 26,14.482 26,14.667L29,14.667C29,12.826 27.508,11.333 25.667,11.333L25.667,14.333ZM26,14.667L26,29.333L29,29.333L29,14.667L26,14.667ZM26,29.333C26,29.517 25.851,29.667 25.667,29.667L25.667,32.667C27.508,32.667 29,31.174 29,29.333L26,29.333ZM25.667,29.667L18.333,29.667L18.333,32.667L25.667,32.667L25.667,29.667Z" fill="#A5A5A5" fill-opacity="0.2"/>
<path d="M27.5,20.5C26.672,20.5 26,21.171 26,22C26,22.828 26.672,23.5 27.5,23.5L27.5,20.5ZM36.667,23.5C37.495,23.5 38.167,22.828 38.167,22C38.167,21.171 37.495,20.5 36.667,20.5L36.667,23.5ZM27.5,23.5L36.667,23.5L36.667,20.5L27.5,20.5L27.5,23.5Z" fill="#A5A5A5"/>
<path d="M27.5,20.5C26.672,20.5 26,21.171 26,22C26,22.828 26.672,23.5 27.5,23.5L27.5,20.5ZM36.667,23.5C37.495,23.5 38.167,22.828 38.167,22C38.167,21.171 37.495,20.5 36.667,20.5L36.667,23.5ZM27.5,23.5L36.667,23.5L36.667,20.5L27.5,20.5L27.5,23.5Z" fill="#A5A5A5" fill-opacity="0.2"/>
</svg>
