<svg width="36" height="36" viewBox="0 0 36 36" fill="none" xmlns="http://www.w3.org/2000/svg" xmlns:xlink="http://www.w3.org/1999/xlink">
<path d="M34.2,16.558L32.436,16.558C31.441,16.558 30.636,17.204 30.636,18C30.636,18.794 31.441,19.438 32.436,19.438L34.2,19.438C35.194,19.438 36,18.796 36,18C36,17.206 35.192,16.558 34.2,16.558ZM18,8.1C16.699,8.096 15.41,8.349 14.207,8.845C13.004,9.341 11.911,10.071 10.991,10.991C10.071,11.911 9.341,13.004 8.845,14.207C8.349,15.41 8.096,16.699 8.1,18C8.1,23.492 12.508,27.9 18,27.9C23.49,27.9 27.9,23.492 27.9,18C27.9,12.508 23.488,8.1 18,8.1ZM18,25.2C14.02,25.2 10.8,21.976 10.8,18C10.8,14.02 14.02,10.8 18,10.8C19.91,10.8 21.741,11.559 23.091,12.909C24.441,14.259 25.2,16.09 25.2,18C25.2,19.91 24.441,21.741 23.091,23.091C21.741,24.441 19.91,25.2 18,25.2ZM5.4,18C5.4,17.206 4.592,16.558 3.6,16.558L1.8,16.558C0.805,16.558 0,17.204 0,18C0,18.794 0.805,19.438 1.8,19.438L3.6,19.438C4.592,19.438 5.4,18.794 5.4,18ZM18,5.4C18.794,5.4 19.438,4.595 19.438,3.6L19.438,1.8C19.438,0.805 18.794,0 18,0C17.204,0 16.558,0.805 16.558,1.8L16.558,3.6C16.558,4.595 17.204,5.4 18,5.4ZM18,30.6C17.204,30.6 16.558,31.405 16.558,32.4L16.558,34.2C16.558,35.195 17.204,36 18,36C18.794,36 19.438,35.195 19.438,34.2L19.438,32.4C19.438,31.405 18.794,30.6 18,30.6ZM31.257,6.779C31.961,6.075 32.074,5.049 31.513,4.487C30.951,3.926 29.923,4.041 29.223,4.745L27.963,6.003C27.259,6.707 27.146,7.733 27.707,8.294C28.269,8.856 29.297,8.741 29.999,8.037L31.257,6.779ZM6.001,27.959L4.741,29.221C4.037,29.925 3.924,30.947 4.486,31.509C5.047,32.071 6.075,31.959 6.775,31.255L8.035,29.997C8.739,29.293 8.852,28.267 8.291,27.704C7.729,27.14 6.701,27.259 6.001,27.959ZM6.777,4.743C6.075,4.039 5.047,3.924 4.486,4.486C3.924,5.047 4.039,6.075 4.739,6.779L5.999,8.037C6.703,8.741 7.727,8.856 8.289,8.294C8.851,7.733 8.737,6.705 8.035,6.003L6.777,4.743ZM27.961,29.999L29.221,31.257C29.925,31.961 30.949,32.072 31.511,31.514C32.072,30.953 31.959,29.925 31.255,29.223L29.997,27.965C29.293,27.261 28.267,27.146 27.704,27.707C27.14,28.269 27.257,29.295 27.961,29.999Z" fill="#13101C" stroke="#13101C" stroke-width="1" stroke-miterlimit="3.999327"/>
</svg>
