<svg width="48" height="48" viewBox="0 0 48 48" fill="none" xmlns="http://www.w3.org/2000/svg" xmlns:xlink="http://www.w3.org/1999/xlink">
<path d="M18,45.5L30,45.5L30,42.5L18,42.5L18,45.5ZM30,45.5C35.148,45.5 39.142,44.48 41.811,41.811C44.48,39.142 45.5,35.148 45.5,30L42.5,30C42.5,34.852 41.52,37.858 39.689,39.689C37.858,41.52 34.852,42.5 30,42.5L30,45.5ZM45.5,30L45.5,18L42.5,18L42.5,30L45.5,30ZM45.5,18C45.5,12.852 44.48,8.858 41.811,6.189C39.142,3.52 35.148,2.5 30,2.5L30,5.5C34.852,5.5 37.858,6.48 39.689,8.311C41.52,10.142 42.5,13.148 42.5,18L45.5,18ZM30,2.5L18,2.5L18,5.5L30,5.5L30,2.5ZM18,2.5C12.852,2.5 8.858,3.52 6.189,6.189C3.52,8.858 2.5,12.852 2.5,18L5.5,18C5.5,13.148 6.48,10.142 8.311,8.311C10.142,6.48 13.148,5.5 18,5.5L18,2.5ZM2.5,18L2.5,30L5.5,30L5.5,18L2.5,18ZM2.5,30C2.5,35.148 3.52,39.142 6.189,41.811C8.858,44.48 12.852,45.5 18,45.5L18,42.5C13.148,42.5 10.142,41.52 8.311,39.689C6.48,37.858 5.5,34.852 5.5,30L2.5,30Z" fill="#1B1B1B"/>
<line x1="16.5" y1="4" x2="16.5" y2="44" stroke="#1B1B1B" stroke-width="1.5" stroke-miterlimit="3.999327" stroke-linecap="round" stroke-linejoin="round"/>
<path d="M32.189,31.001C32.775,31.586 33.725,31.586 34.311,31.001C34.896,30.415 34.896,29.465 34.311,28.879L32.189,31.001ZM28.36,25.05L29.421,23.989L28.36,25.05ZM28.36,22.95L29.421,24.011L28.36,22.95ZM34.311,19.121C34.896,18.535 34.896,17.585 34.311,16.999C33.725,16.413 32.775,16.413 32.189,16.999L34.311,19.121ZM34.311,28.879L29.421,23.989L27.299,26.111L32.189,31.001L34.311,28.879ZM29.421,23.989C29.422,23.991 29.425,23.994 29.426,23.998C29.427,24.001 29.427,24.001 29.427,24C29.427,23.999 29.427,23.999 29.426,24.002C29.425,24.006 29.422,24.009 29.421,24.011L27.299,21.889C26.136,23.053 26.136,24.947 27.299,26.111L29.421,23.989ZM29.421,24.011L34.311,19.121L32.189,16.999L27.299,21.889L29.421,24.011Z" fill="#1B1B1B"/>
</svg>
