<svg width="44" height="44" viewBox="0 0 44 44" fill="none" xmlns="http://www.w3.org/2000/svg" xmlns:xlink="http://www.w3.org/1999/xlink">
<path d="M4.728,33.547C4.018,33.973 3.788,34.895 4.214,35.605C4.64,36.316 5.561,36.546 6.272,36.12L4.728,33.547ZM7.333,23.833L8.833,23.808L8.833,23.808L7.333,23.833ZM11.917,31.167L10.717,32.067L10.717,32.067L11.917,31.167ZM18.333,33L17.085,32.168L17.085,32.168L18.333,33ZM21.083,28.417L22.462,27.826C22.232,27.289 21.711,26.934 21.127,26.917C20.543,26.9 20.002,27.224 19.741,27.747L21.083,28.417ZM33,36.333C33.828,36.333 34.5,35.662 34.5,34.833C34.5,34.005 33.828,33.333 33,33.333L33,36.333ZM6.272,36.12C12.426,32.427 16.167,28.372 16.167,23.833L13.167,23.833C13.167,26.628 10.795,29.907 4.728,33.547L6.272,36.12ZM16.167,23.833C16.167,21.036 15.727,19.105 14.582,17.96C13.386,16.765 11.795,16.833 11,16.833L11,19.833C12.038,19.833 12.281,19.902 12.46,20.082C12.69,20.311 13.167,21.131 13.167,23.833L16.167,23.833ZM11,16.833C7.961,16.833 5.768,19.93 5.834,23.858L8.833,23.808C8.781,20.715 10.372,19.833 11,19.833L11,16.833ZM5.834,23.858C5.872,26.194 6.841,27.836 7.929,29.11C8.453,29.724 9.027,30.277 9.504,30.748C10.006,31.242 10.406,31.652 10.717,32.067L13.117,30.267C12.656,29.652 12.105,29.099 11.612,28.613C11.095,28.102 10.631,27.655 10.21,27.162C9.408,26.222 8.857,25.227 8.833,23.808L5.834,23.858ZM10.717,32.067C11.428,33.015 12.115,33.834 12.788,34.474C13.449,35.103 14.181,35.642 14.994,35.913C15.87,36.204 16.777,36.162 17.631,35.723C18.422,35.315 19.053,34.625 19.581,33.832L17.085,32.168C16.697,32.75 16.411,32.976 16.257,33.056C16.165,33.103 16.099,33.119 15.943,33.067C15.725,32.994 15.368,32.788 14.855,32.3C14.354,31.823 13.78,31.152 13.117,30.267L10.717,32.067ZM19.581,33.832C20.82,31.975 21.775,30.389 22.425,29.087L19.741,27.747C19.17,28.89 18.292,30.359 17.085,32.168L19.581,33.832ZM19.705,29.008C21.633,33.507 24.469,36.333 28.417,36.333L28.417,33.333C26.252,33.333 24.2,31.881 22.462,27.826L19.705,29.008ZM28.417,36.333L33,36.333L33,33.333L28.417,33.333L28.417,36.333Z" fill="#A5A5A5"/>
<path d="M4.728,33.547C4.018,33.973 3.788,34.895 4.214,35.605C4.64,36.316 5.561,36.546 6.272,36.12L4.728,33.547ZM7.333,23.833L8.833,23.808L8.833,23.808L7.333,23.833ZM11.917,31.167L10.717,32.067L10.717,32.067L11.917,31.167ZM18.333,33L17.085,32.168L17.085,32.168L18.333,33ZM21.083,28.417L22.462,27.826C22.232,27.289 21.711,26.934 21.127,26.917C20.543,26.9 20.002,27.224 19.741,27.747L21.083,28.417ZM33,36.333C33.828,36.333 34.5,35.662 34.5,34.833C34.5,34.005 33.828,33.333 33,33.333L33,36.333ZM6.272,36.12C12.426,32.427 16.167,28.372 16.167,23.833L13.167,23.833C13.167,26.628 10.795,29.907 4.728,33.547L6.272,36.12ZM16.167,23.833C16.167,21.036 15.727,19.105 14.582,17.96C13.386,16.765 11.795,16.833 11,16.833L11,19.833C12.038,19.833 12.281,19.902 12.46,20.082C12.69,20.311 13.167,21.131 13.167,23.833L16.167,23.833ZM11,16.833C7.961,16.833 5.768,19.93 5.834,23.858L8.833,23.808C8.781,20.715 10.372,19.833 11,19.833L11,16.833ZM5.834,23.858C5.872,26.194 6.841,27.836 7.929,29.11C8.453,29.724 9.027,30.277 9.504,30.748C10.006,31.242 10.406,31.652 10.717,32.067L13.117,30.267C12.656,29.652 12.105,29.099 11.612,28.613C11.095,28.102 10.631,27.655 10.21,27.162C9.408,26.222 8.857,25.227 8.833,23.808L5.834,23.858ZM10.717,32.067C11.428,33.015 12.115,33.834 12.788,34.474C13.449,35.103 14.181,35.642 14.994,35.913C15.87,36.204 16.777,36.162 17.631,35.723C18.422,35.315 19.053,34.625 19.581,33.832L17.085,32.168C16.697,32.75 16.411,32.976 16.257,33.056C16.165,33.103 16.099,33.119 15.943,33.067C15.725,32.994 15.368,32.788 14.855,32.3C14.354,31.823 13.78,31.152 13.117,30.267L10.717,32.067ZM19.581,33.832C20.82,31.975 21.775,30.389 22.425,29.087L19.741,27.747C19.17,28.89 18.292,30.359 17.085,32.168L19.581,33.832ZM19.705,29.008C21.633,33.507 24.469,36.333 28.417,36.333L28.417,33.333C26.252,33.333 24.2,31.881 22.462,27.826L19.705,29.008ZM28.417,36.333L33,36.333L33,33.333L28.417,33.333L28.417,36.333Z" fill="#A5A5A5" fill-opacity="0.2"/>
<path d="M36.667,31.167L37.727,32.227C38.009,31.946 38.167,31.564 38.167,31.167L36.667,31.167ZM29.333,31.167L27.833,31.167C27.833,31.564 27.991,31.946 28.273,32.227L29.333,31.167ZM33,34.833L31.939,35.894C32.525,36.48 33.475,36.48 34.061,35.894L33,34.833ZM38.167,31.167L38.167,9.167L35.167,9.167L35.167,31.167L38.167,31.167ZM38.167,9.167C38.167,6.283 35.884,4 33,4L33,7C34.227,7 35.167,7.94 35.167,9.167L38.167,9.167ZM33,4C30.116,4 27.833,6.283 27.833,9.167L30.833,9.167C30.833,7.94 31.773,7 33,7L33,4ZM27.833,9.167L27.833,31.167L30.833,31.167L30.833,9.167L27.833,9.167ZM28.273,32.227L31.939,35.894L34.061,33.773L30.394,30.106L28.273,32.227ZM34.061,35.894L37.727,32.227L35.606,30.106L31.939,33.773L34.061,35.894Z" fill="#A5A5A5"/>
<path d="M36.667,31.167L37.727,32.227C38.009,31.946 38.167,31.564 38.167,31.167L36.667,31.167ZM29.333,31.167L27.833,31.167C27.833,31.564 27.991,31.946 28.273,32.227L29.333,31.167ZM33,34.833L31.939,35.894C32.525,36.48 33.475,36.48 34.061,35.894L33,34.833ZM38.167,31.167L38.167,9.167L35.167,9.167L35.167,31.167L38.167,31.167ZM38.167,9.167C38.167,6.283 35.884,4 33,4L33,7C34.227,7 35.167,7.94 35.167,9.167L38.167,9.167ZM33,4C30.116,4 27.833,6.283 27.833,9.167L30.833,9.167C30.833,7.94 31.773,7 33,7L33,4ZM27.833,9.167L27.833,31.167L30.833,31.167L30.833,9.167L27.833,9.167ZM28.273,32.227L31.939,35.894L34.061,33.773L30.394,30.106L28.273,32.227ZM34.061,35.894L37.727,32.227L35.606,30.106L31.939,33.773L34.061,35.894Z" fill="#A5A5A5" fill-opacity="0.2"/>
<path d="M29.333,11.333C28.505,11.333 27.833,12.005 27.833,12.833C27.833,13.662 28.505,14.333 29.333,14.333L29.333,11.333ZM36.667,14.333C37.495,14.333 38.167,13.662 38.167,12.833C38.167,12.005 37.495,11.333 36.667,11.333L36.667,14.333ZM29.333,14.333L36.667,14.333L36.667,11.333L29.333,11.333L29.333,14.333Z" fill="#A5A5A5"/>
<path d="M29.333,11.333C28.505,11.333 27.833,12.005 27.833,12.833C27.833,13.662 28.505,14.333 29.333,14.333L29.333,11.333ZM36.667,14.333C37.495,14.333 38.167,13.662 38.167,12.833C38.167,12.005 37.495,11.333 36.667,11.333L36.667,14.333ZM29.333,14.333L36.667,14.333L36.667,11.333L29.333,11.333L29.333,14.333Z" fill="#A5A5A5" fill-opacity="0.2"/>
</svg>
